<?xml version="1.0" standalone="no"?>
<!DOCTYPE svg PUBLIC "-//W3C//DTD SVG 1.1//EN" "http://www.w3.org/Graphics/SVG/1.1/DTD/svg11.dtd" >
<svg>
<metadata>
Created by FontForge 20090914 at Thu Mar 28 01:25:54 2013
 By www-data
Copyright &#194;&#169;1993, Swfte Interntational, Ltd. All rights reserved.
</metadata>
<defs>
<font id="FatsoItalicSwfte" horiz-adv-x="0" >
  <font-face 
    font-family="Fatso"
    font-weight="400"
    font-style="italic"
    font-stretch="normal"
    units-per-em="1000"
    panose-1="0 0 4 0 0 0 0 0 0 0"
    ascent="800"
    descent="-200"
    x-height="405"
    cap-height="490"
    bbox="-197 -185.998 1151 800"
    underline-thickness="70"
    underline-position="-115"
    slope="-11"
    unicode-range="U+0020-U+F002"
  />
<missing-glyph horiz-adv-x="500" 
d="M63 0v800h375v-800h-375zM125 63h250v675h-250v-675z" />
    <glyph glyph-name=".notdef" horiz-adv-x="500" 
d="M63 0v800h375v-800h-375zM125 63h250v675h-250v-675z" />
    <glyph glyph-name="space" unicode=" " horiz-adv-x="240" 
 />
    <glyph glyph-name="exclam" unicode="!" horiz-adv-x="301" 
d="M326 357l-67.001 -205c-38.667 -10 -96.667 -13.667 -174 -11l3 12l54 149l38 142c2.66699 9.33301 4.66699 23.333 6 42c15.333 4.66699 34.666 7 57.999 7c14 0 32 -1 54 -3c28.667 -2 46.334 -3.33301 53.001 -4c-1.33301 -28 -9.66602 -71 -24.999 -129zM232.999 89
c-2 -8.66699 -14.667 -38.333 -38 -89c-34 -4 -64.667 -6 -92 -6c-10.667 0 -36 2 -76 6c18.667 42 32.667 77 42 105l171 8z" />
    <glyph glyph-name="quotedbl" unicode="&#x22;" horiz-adv-x="401" 
d="M460 433c-10 -37.333 -32.334 -97.999 -67.001 -181.999h-109c0 13.333 2.33301 37.666 7 72.999c4.66699 32.667 7.66699 51.667 9 57l28 102c1.33301 1.33301 4 3.33301 8 6c69.333 0.666992 114 -1.33301 134 -6c-1.33301 -5.33301 -3.16602 -14.5 -5.49902 -27.5
s-3.83301 -20.5 -4.5 -22.5zM305.999 490.001l-36 -101l-35 -132c-32.667 -3.33301 -58 -4.33301 -76 -3l-43 3c3.33301 66.667 8 110 14 130l28 103c48 2 97.333 2 148 0z" />
    <glyph glyph-name="numbersign" unicode="#" horiz-adv-x="688" 
d="M454 98l-35.998 -56c-19.333 -28 -33 -42 -41 -42h-88l52 92c1.33301 1.33301 1.33301 3.66602 0 6.99902c-23.333 -4 -56 -6.33301 -98 -7c-10 -12 -30.667 -41.667 -62 -89c-8 -0.666992 -42.667 -0.333984 -104 0.999023l61 96
c-4.66699 1.33301 -39.667 1.33301 -105 0l49 83h107l71 111c-1.33301 -1.33301 -32.333 -1 -93 1c20.667 34.667 39.667 62.334 57 83.001c19.333 2.66699 50 4 92 4c14.667 23.333 37.667 58 69 104h101l-66 -105c-1.33301 0.666992 34 1 106 1c18.667 20 34 41.333 46 64
c10 18 17.667 28.667 23 32c8 6 24 9 48 9c43.333 0 62.666 -0.333008 57.999 -1l-63 -106h99l-3 -12c-2.66699 -11.333 -20.334 -36.666 -53.001 -75.999h-99l-72 -108h84l-56 -80c-4.66699 -1.33301 -32.667 -3.33301 -84 -6zM468.002 291h-104l-64 -107h101z" />
    <glyph glyph-name="dollar" unicode="$" horiz-adv-x="352" 
d="M383 330c-38 -4 -63.666 -30.667 -76.999 -80l-29 -109c-13.333 -49.333 -44 -87.333 -92 -114c-10.667 -41.333 -20 -72.666 -28 -93.999c-28 -2.66699 -55 -2.66699 -81 0c6.66699 22 10.334 39.667 11.001 53l-50 -18h-10c-4.66699 101.333 -5.66699 156.333 -3 165
l3 9c55.333 13.333 91.666 50 108.999 110c2.66699 8 9.5 11.333 20.5 10s23.5 12 37.5 40c22 43.333 49.333 122.333 82 237c-0.666992 0 26.333 1 81 3c1.33301 -6 -2.33398 -21 -11.001 -45l2 -3c8.66699 1.33301 19.334 2.66602 32.001 3.99902h36
c-0.666992 -33.333 -3.33398 -58 -8.00098 -74z" />
    <glyph glyph-name="percent" unicode="%" horiz-adv-x="799" 
d="M793 143c-12 -44.667 -37.5 -82.167 -76.5 -112.5s-80.5 -45.5 -124.5 -45.5c-36 0 -65.333 10.833 -88 32.5s-34 49.5 -34 83.5c0 45.333 20.667 89.666 62 132.999c44 46 92 69 144 69c38 0 68 -11.5 90 -34.5s33 -51.5 33 -85.5c0 -13.333 -2 -26.666 -6 -39.999z
M778 521c-170 -163.333 -344.002 -340.001 -522.002 -530.001c-29.333 0 -53 0.333008 -71 1c-13.333 0.666992 -23.166 1.33398 -29.499 2.00098s-9.16602 1 -8.49902 1l128 136l338 346c32.667 32.667 54 49 64 49c2 0 5.66699 -0.333008 11 -1h14zM430.998 366.999
c-12 -44.667 -37.668 -82.001 -77.001 -112.001s-80.666 -45 -123.999 -45c-38 0 -68 11 -90 33s-33 49.667 -33 83c0 13.333 2 27 6 41c12 44.667 37.333 82.667 76 114s80.667 47 126 47c37.333 0 67.333 -12 90 -36c20.667 -22.667 31 -51 31 -85
c0 -13.333 -1.66699 -26.666 -5 -39.999zM697.997 94.998c0 16.667 -8.66699 25 -26 25c-9.33301 0 -18.166 -3.5 -26.499 -10.5s-13.5 -14.5 -15.5 -22.5c-2.66699 -8 -1.33398 -15.333 3.99902 -22s12.333 -10 21 -10c8 0 17.167 4 27.5 12s15.5 17.333 15.5 28z
M334.997 319.998c0 16 -8.66699 24 -26 24c-10 0 -19.667 -4.16699 -29 -12.5s-14 -17.5 -14 -27.5c0 -16 8.66699 -24 26 -24c8.66699 0 18 3.83301 28 11.5s15 17.167 15 28.5z" />
    <glyph glyph-name="ampersand" unicode="&#x26;" horiz-adv-x="414" 
d="M498 433c-3.33301 -13.333 -22.999 -45 -58.999 -95c-29.333 -41.333 -50.333 -69.333 -63 -84c-7.33301 5.33301 -15 8 -23 8c-19.333 0 -31.666 -9 -36.999 -27c-2 -8 0 -16 6 -24c-28.667 -6 -47.334 -25 -56.001 -57c-5.33301 -20.667 0 -36 16 -46l29 -9
c0.666992 -27.333 -0.666016 -51.333 -3.99902 -72l-51 -26l-25 -97c-37.333 -2.66699 -75 -2.66699 -113 0l26 91c-38.667 22.667 -58 50 -58 82c0 10.667 2 23 6 37c7.33301 28.667 28.666 58 63.999 88c-40.667 30.667 -61 61.334 -61 92.001
c0 37.333 15 74.666 45 111.999c34.667 43.333 79.667 71.333 135 84c2 0.666992 6.33301 3 13 7l-2 5c-6 1.33301 -18 1 -36 -1c-22 -2 -32.333 -3 -31 -3l-19 3c4 0 6 5.33301 6 16c2 7.33301 6.66699 28.333 14 63c58.667 8 101.334 12 128.001 12c26 0 46 -1 60 -3
c1.33301 -2.66699 -6.33398 -35 -23.001 -97c28 -7.33301 48 -13.333 60 -18c21.333 -8 39.666 -18.667 54.999 -32z" />
    <glyph glyph-name="quotesingle" unicode="'" horiz-adv-x="235" 
d="M290 418c-9.33301 -33.333 -30.001 -87.999 -62.001 -163.999c-26 -2 -63.333 -1 -112 3c0.666992 15.333 2.83398 39.666 6.50098 72.999s6.16699 52.333 7.5 57l28 104l4 -2c24 4 51.333 5.33301 82 4c13.333 -2 33.333 -5.33301 60 -10z" />
    <glyph glyph-name="parenleft" unicode="(" horiz-adv-x="266" 
d="M377 525c-24 -29.333 -56.667 -71.999 -98 -127.999c-30 -45.333 -53 -98 -69 -158c-11.333 -42 -17 -82.333 -17 -121c0 -43.333 7.33301 -94 22 -152c-28.667 -19.333 -74 -41 -136 -65c-22 53.333 -33 108.666 -33 165.999c0 40.667 5.33301 81.334 16 122.001
c32.667 121.333 120.667 251.666 264 390.999l32 -29c14 -12 20.333 -20.667 19 -26z" />
    <glyph glyph-name="parenright" unicode=")" horiz-adv-x="311" 
d="M319 287c-16 -60.667 -46.333 -124.666 -91 -191.999c-46 -69.333 -101 -133 -165 -191c-16 12.667 -34 30.667 -54 54c84 87.333 139.667 182 167 284c9.33301 36.667 14 74.334 14 113.001c0 49.333 -8 101.666 -24 156.999c24 17.333 70.667 40 140 68
c20 -43.333 30 -96.333 30 -159c0 -46.667 -5.66699 -91.334 -17 -134.001z" />
    <glyph glyph-name="asterisk" unicode="*" horiz-adv-x="353" 
d="M396 357l-67.998 -24.001c6 -10 14.333 -26.333 25 -49c-31.333 -22 -62.333 -41.667 -93 -59l-25 49l-51 -49c-22 13.333 -44 31 -66 53c17.333 19.333 34.666 37 51.999 53c-10.667 4.66699 -29 11.334 -55 20.001l25.5 45.5l25.5 46.5
c15.333 -3.33301 34 -9.33301 56 -18l8.5 31c3.66699 13.333 6.16699 23.333 7.5 30c13.333 4.66699 25.333 6.66699 36 6h65l-17 -61c-2 -1.33301 -0.666992 -2 4 -2c1.33301 0 10.166 2.5 26.499 7.5s27.833 8.16699 34.5 9.5c5.33301 -39.333 8.33301 -69 9 -89z" />
    <glyph glyph-name="plus" unicode="+" horiz-adv-x="410" 
d="M435 287c-6 -34 -15.001 -67.333 -27.001 -100c-14 2 -53 3 -117 3l-3 -3l-24 -104l-5 -19h-92c-4.66699 4 -6.66699 8.33301 -6 13c2.66699 18 5 31 7 39l19 71c-24.667 2.66699 -65 2.66699 -121 0l27 101c2.66699 -4 10 -5.33301 22 -4c20 2.66699 29.333 4 28 4
c51.333 0 74.333 0 69 0c8.66699 26.667 23.334 67.667 44.001 123h89c4 -4 5.33301 -7.66699 4 -11c-1.33301 -4 -3 -7.66699 -5 -11l-13 -34l-18 -68h122z" />
    <glyph glyph-name="comma" unicode="," horiz-adv-x="268" 
d="M230 96c-16 -60.667 -39.333 -107.668 -70 -141.001c-39.333 -43.333 -95.333 -71 -168 -83l37 106l49 191c50 8 105 8 165 0c-4.66699 -33.333 -9 -57.666 -13 -72.999z" />
    <glyph glyph-name="hyphen" unicode="-" horiz-adv-x="338" 
d="M310 169h-9c-2.66699 0 -7 0.833008 -13 2.5s-10.333 2.5 -13 2.5c-78.667 6.66699 -137 10 -175 10c-20.667 0 -35.667 -1 -45 -3c0 1.33301 11 43 33 125h258c-8 -34 -13.333 -54.667 -16 -62z" />
    <glyph glyph-name="period" unicode="." horiz-adv-x="257" 
d="M193 3c-26.667 -6 -52.002 -8.99805 -76.002 -8.99805c-23.333 0 -47.666 2 -72.999 6c0.666992 33.333 4.33398 61.666 11.001 84.999c3.33301 12.667 11 33.667 23 63c36.667 4 70.334 4.66699 101.001 2c40 -2.66699 56.333 -4.33398 49 -5.00098
c-4.66699 -33.333 -9.33398 -57.333 -14.001 -72s-11.667 -38 -21 -70z" />
    <glyph glyph-name="slash" unicode="/" horiz-adv-x="358" 
d="M478 501l-76 -100.999l-64 -87l-56 -79l-178 -263c-11.333 -4 -30.333 -6 -57 -6c-22.667 0 -41 1.33301 -55 4c139.333 217.333 263 395.666 371 534.999c40.667 1.33301 79 0.333008 115 -3z" />
    <glyph glyph-name="zero" unicode="0" horiz-adv-x="594" 
d="M625 240c-20 -73.333 -62.332 -135.501 -126.999 -186.501s-133.667 -76.5 -207 -76.5c-61.333 0 -110.5 18 -147.5 54s-55.5 82.333 -55.5 139c0 22.667 3 46 9 70c20 72.667 62.667 135.334 128 188.001s134.666 79 207.999 79c60.667 0 109.5 -18.5 146.5 -55.5
s55.5 -84.167 55.5 -141.5c0 -22.667 -3.33301 -46 -10 -70zM468.001 162.999c0 25.333 -14.3311 38 -42.998 38c-18 0 -34.333 -6.66699 -49 -20s-22 -28.333 -22 -45c0 -11.333 3.66699 -21.333 11 -30s17.666 -13 30.999 -13c15.333 0 31.166 7.66699 47.499 23
s24.5 31 24.5 47z" />
    <glyph glyph-name="one" unicode="1" horiz-adv-x="594" 
d="M555 486c-38.667 -93.333 -62 -155.666 -70 -186.999l-61 -228c-2 -6.66699 -6.33301 -29.334 -13 -68.001c-48 -4 -82 -6 -102 -6l-99 3l15 92l35 128l24 67l10 40h-38l80 121c16 22 31 35 45 39c6.66699 2 31 3 73 3z" />
    <glyph glyph-name="two" unicode="2" horiz-adv-x="594" 
d="M481 200c2.66699 -5.33301 11.667 -8.00195 27 -8.00195c-16.667 -79.333 -27.334 -125.666 -32.001 -138.999c-9.33301 -25.333 -15 -42 -17 -50l-159 -6c-43.333 0 -106.666 4.33301 -189.999 13l122 115c80.667 78.667 123.334 127 128.001 145
c4.66699 16 0 24 -14 24c-4.66699 0 -11.667 -3.66699 -21 -11c-16 6.66699 -52 23.334 -108 50.001c41.333 108.667 113.666 163 216.999 163c38.667 0 72 -10.333 100 -31c31.333 -23.333 47 -54 47 -92c0 -26 -9.5 -55.167 -28.5 -87.5s-42.833 -60.833 -71.5 -85.5z" />
    <glyph glyph-name="three" unicode="3" horiz-adv-x="594" 
d="M531 233c-25.333 -95.333 -119.669 -192.33 -283.002 -290.997c-44.667 35.333 -80 75.666 -106 120.999c48.667 22 91.667 48.667 129 80c42.667 36 68.667 71 78 105c1.33301 7.33301 2 13.666 2 18.999c0 18 -10.333 27 -31 27c-9.33301 0 -16 -0.666992 -20 -2
l15.5 18c7 8 12.5 13.667 16.5 17c-15.333 2.66699 -32.666 2.66699 -51.999 0l25 94c6.66699 14 16.334 35.667 29.001 65c113.333 4.66699 199 3.66699 257 -3c-25.333 -47.333 -56.333 -92.333 -93 -135c-0.666992 -2 0.333008 -4 3 -6c24 -13.333 36 -36 36 -68
c0 -12.667 -2 -26.334 -6 -41.001z" />
    <glyph glyph-name="four" unicode="4" horiz-adv-x="594" 
d="M544 106h-95l-29 -106h-203l31 117h-138l243 372c-4.66699 0.666992 29 1 101 1c37.333 0 73 -3.33301 107 -10l-53 -195c16 -2 43 -5 81 -9zM422 219l21 78l-64 -78h43z" />
    <glyph glyph-name="five" unicode="5" horiz-adv-x="594" 
d="M563 400c-2.66699 -10 -11.0029 -32.3311 -25.0029 -66.998c-46 -3.33301 -99.667 -4 -161 -2c-13.333 1.33301 -28.666 2.66602 -45.999 3.99902h-14c-5.33301 -12.667 -12.666 -33 -21.999 -61c36.667 17.333 64.667 26 84 26c35.333 0 62.333 -11 81 -33
c17.333 -19.333 26 -45 26 -77c0 -14.667 -2 -30 -6 -46c-16 -58.667 -47.667 -106.334 -95 -143.001c-7.33301 -6 -26.666 -8 -57.999 -6h-80c22 22.667 37.667 52.667 47 90c2.66699 9.33301 4 18 4 26c0 32.667 -18.333 49 -55 49c-9.33301 0 -31.333 -5.66699 -66 -17
l118 343h291z" />
    <glyph glyph-name="six" unicode="6" horiz-adv-x="594" 
d="M561 176c-16 -58.667 -53.335 -106.335 -112.002 -143.002c-50.667 -32 -102.334 -48 -155.001 -48c-53.333 0 -94.666 14.667 -123.999 44s-44 67.333 -44 114c0 20 3 41 9 63c20.667 77.333 68.334 143 143.001 197c66.667 48.667 140.334 78.667 221.001 90
c36 5.33301 54.333 8 55 8h12c5.33301 -35.333 7 -72.666 5 -111.999l-2 -10c-37.333 -7.33301 -74.666 -19.666 -111.999 -36.999c1.33301 0 3.66602 -1 6.99902 -3c34 -6 60 -20.667 78 -44c16.667 -20.667 25 -46 25 -76c0 -14 -2 -28.333 -6 -43zM360.998 226.999
c0 10.667 -6.33301 19 -19 25c-9.33301 4.66699 -18.666 7 -27.999 7c-14.667 0 -25.334 -12.333 -32.001 -37c-7.33301 -27.333 1.66699 -41 27 -41c8.66699 0 19.5 4.83301 32.5 14.5s19.5 20.167 19.5 31.5z" />
    <glyph glyph-name="seven" unicode="7" horiz-adv-x="594" 
d="M609 480c-108 -139.333 -199.668 -299.333 -275.001 -480c-93.333 -3.33301 -160.333 -2 -201 4c47.333 94 103 187 167 279c-8 0 -31.333 1 -70 3c-22.667 0.666992 -36.334 0 -41.001 -2l8 26c2.66699 12 17.334 42 44.001 90c22.667 40.667 37.667 66.667 45 78
c20.667 8 67.334 12 140.001 12z" />
    <glyph glyph-name="eight" unicode="8" horiz-adv-x="594" 
d="M538 165c-14.667 -54.667 -46.335 -99.6689 -95.002 -135.002c-46 -33.333 -94.667 -50 -146 -50c-43.333 0 -80 12.667 -110 38c-32 26.667 -48 61.334 -48 104.001c0 14.667 2 30 6 46c14.667 54 54 99.667 118 137c-11.333 23.333 -13.333 48 -6 74
c10 38.667 32.333 70.334 67 95.001c32.667 24 68.334 36 107.001 36c30.667 0 56.667 -9 78 -27s32 -42 32 -72c0 -10.667 -1.66699 -22 -5 -34c-5.33301 -20 -19.666 -45 -42.999 -75c33.333 -16.667 50 -49 50 -97c0 -14 -1.66699 -27.333 -5 -40zM413.999 312.998
c2 6 0.333008 15 -5 27c6.66699 10 10.667 18.667 12 26c2 10.667 -4 16 -18 16c-8 0 -15 -2.83301 -21 -8.5s-9 -12.5 -9 -20.5c0 -4.66699 1.66699 -9 5 -13c-16.667 -10.667 -26 -20 -28 -28c-2 -7.33301 -0.5 -14 4.5 -20s11.833 -9 20.5 -9c20.667 0 33.667 10 39 30z
" />
    <glyph glyph-name="nine" unicode="9" horiz-adv-x="594" 
d="M579 271c-14.667 -55.333 -24.002 -88.999 -28.002 -100.999c-7.33301 -24 -26.666 -79.667 -57.999 -167c-18 -6 -50 -9 -96 -9c-20.667 0 -54 2.33301 -100 7c6.66699 15.333 13.334 35.666 20.001 60.999c-51.333 8 -91.333 26.833 -120 56.5s-43 65.834 -43 108.501
c0 16.667 2.33301 33.667 7 51c22 81.333 77 140.666 165 177.999c62.667 26.667 132.667 40 210 40c19.333 0 49.333 -2.33301 90 -7c-11.333 -70 -27 -142.667 -47 -218zM438.998 315.001l26 99.001c-37.333 -18 -56 -40.333 -56 -67c0 -14.667 10 -25.334 30 -32.001z
" />
    <glyph glyph-name="colon" unicode=":" horiz-adv-x="271" 
d="M287 331c-8 -29.333 -15.3359 -52 -22.0029 -68c-30 -4 -52.333 -6 -67 -6c-31.333 0 -60.666 3 -87.999 9c0.666992 26 4.33398 52 11.001 78l23 70c1.33301 -6 5 -7.33301 11 -4c5.33301 0 16.333 0.666992 33 2s26.334 2 29.001 2c30 0 57.333 -3.33301 82 -10
c0.666992 -2 1 -5 1 -9c0 -10 -4.33301 -31.333 -13 -64zM216.997 71c-6.66699 -24.667 -15.333 -49.332 -26 -73.999c-34 -4 -58 -6 -72 -6c-20 0 -46 2 -78 6c-0.666992 11.333 -0.333984 24.666 0.999023 39.999l28 102c16.667 6.66699 46.334 10 89.001 10
c32.667 0 51 -0.333008 55 -1c10 -2 15 -8.33301 15 -19c0 -8 -4 -27.333 -12 -58z" />
    <glyph glyph-name="semicolon" unicode=";" horiz-adv-x="277" 
d="M295 329c-4 -13.333 -10.998 -35.334 -20.998 -66.001c-29.333 -6 -57.333 -9 -84 -9c-18.667 0 -41.667 2 -69 6c-2 25.333 1 53 9 83l19 59c29.333 6 57.666 9 84.999 9c24 0 49 -2 75 -6c-4.66699 -33.333 -9.33398 -58.666 -14.001 -75.999zM228.002 89.999
c-14 -52 -38.333 -97 -73 -135c-44.667 -49.333 -100 -78 -166 -86l52 144l40 159c50.667 8.66699 105 8.66699 163 0c-6 -38 -11.333 -65.333 -16 -82z" />
    <glyph glyph-name="less" unicode="&#x3c;" horiz-adv-x="425" 
d="M376 86l-7.5 -21.499l-9.5 -26.5c-18 5.33301 -37.333 14.333 -58 27l-116 64c-45.333 25.333 -80.333 51.333 -105 78c-1.33301 1.33301 -2 3.66602 -2 6.99902c0 1.33301 3.33301 14 10 38c0.666992 10 5.66699 24 15 42c6 5.33301 32 19.333 78 42l170 80
c38 16 78.667 31.667 122 47l-29 -110l-237 -102c-0.666992 -1.33301 1.33301 -4.33301 6 -9l174 -98c-3.33301 -16.667 -7 -36 -11 -58z" />
    <glyph glyph-name="equal" unicode="=" horiz-adv-x="429" 
d="M429 257h-122c-2.66699 0 -18.167 0.833008 -46.5 2.5s-43.5 2.5 -45.5 2.5l-130 -5c3.33301 19.333 10.333 46.333 21 81h344c-9.33301 -28.667 -16.333 -55.667 -21 -81zM396 138h-344l22 83h345z" />
    <glyph glyph-name="greater" unicode="&#x3e;" horiz-adv-x="393" 
d="M420 252c-3.33301 -12.667 -5.99902 -21.9971 -7.99902 -27.9971c-4.66699 -12.667 -9.66699 -20.334 -15 -23.001c-69.333 -36 -166 -81.333 -290 -136c-15.333 -6.66699 -39 -15.667 -71 -27c2 14 4.66699 30.333 8 49l6 27c4.66699 15.333 10.167 25.666 16.5 30.999
s19.5 12 39.5 20c16 6.66699 32.333 13 49 19l71 28c28 11.333 52.667 23.666 74 36.999c-6.66699 12 -30 27.333 -70 46c-50.667 24 -86.667 43.667 -108 59c0 16.667 3.33301 37.667 10 63c5.33301 18.667 10.666 34 15.999 46c20 -7.33301 50.333 -22.666 91 -45.999
c79.333 -44.667 142.333 -85 189 -121c-2 -12.667 -4.66699 -27.334 -8 -44.001z" />
    <glyph glyph-name="question" unicode="?" horiz-adv-x="419" 
d="M449 306c-13.333 -49.333 -39.668 -91.668 -79.001 -127.001c-42.667 -38.667 -94.667 -62.667 -156 -72c-19.333 -3.33301 -27.666 -5 -24.999 -5h-48c4 18 9.66699 39 17 63c0 0.666992 6.33301 1 19 1c32 0 51.333 12.333 58 37c0.666992 3.33301 1 6.33301 1 9
c0 14 -9.66699 21 -29 21c-12 0 -31.333 -5.66699 -58 -17c-16 46.667 -24 105.334 -24 176.001c0 28 1.33301 54.667 4 80c53.333 27.333 105.666 41 156.999 41c50.667 0 91.834 -13.5 123.501 -40.5s47.5 -63.5 47.5 -109.5c0 -18 -2.66699 -37 -8 -57zM232.998 9.99805
l-132.999 -45c-6 8 -9.66699 22.333 -11 43l-4 46c7.33301 5.33301 27.333 14 60 26c35.333 12.667 57.666 19 66.999 19h12z" />
    <glyph glyph-name="at" unicode="@" horiz-adv-x="594" 
d="M604 240c-16.667 -60.667 -49.667 -117.334 -99 -170.001h-104c-3.33301 22.667 -9.33301 56.667 -18 102c-24.667 -20 -55 -53 -91 -99c-34 36.667 -49.333 60.334 -46 71.001c2 9.33301 34.667 41 98 95c58 50 92.333 78.333 103 85c12 -25.333 23.333 -58 34 -98
l26 -101c12.667 14 22.667 35 30 63c4 14 6 27.333 6 40c0 36 -12.5 65.333 -37.5 88s-55.833 34 -92.5 34c-44.667 0 -87.667 -16.333 -129 -49s-68 -70.667 -80 -114c-3.33301 -14.667 -5 -29 -5 -43c0 -45.333 20 -85 60 -119c33.333 -28.667 77.333 -51 132 -67
c-86 -2 -160 17 -222 57c-66.667 42.667 -100 99 -100 169c0 19.333 2.66699 39 8 59c20 74 62.333 136.5 127 187.5s133.667 76.5 207 76.5c60.667 0 109.5 -18.667 146.5 -56s55.5 -84.333 55.5 -141c0 -22.667 -3 -46 -9 -70zM381 94c-20 -6 -30.335 -9 -31.002 -9h-21
c4.66699 4.66699 8.33398 18 11.001 40c8.66699 1.33301 22.667 4.33301 42 9c0.666992 -10.667 0.333984 -24 -0.999023 -40z" />
    <glyph glyph-name="A" unicode="A" horiz-adv-x="586" 
d="M571 138c-2.66699 -7.33301 -28.999 -30 -78.999 -68c-44 -33.333 -73.667 -54.333 -89 -63l-60 -36c0.666992 18 1 35.333 1 52c0 60 -7 118.333 -21 175c-75.333 -65.333 -141 -140 -197 -224c-12 8 -24.667 20 -38 36c-8.66699 10 -22.334 31 -41.001 63
c-20.667 34.667 -30.334 54.667 -29.001 60c2.66699 9.33301 43.667 52.333 123 129c92.667 89.333 198.667 179 318 269c20 -35.333 37 -72.666 51 -111.999c12 -32.667 23.667 -73.334 35 -122.001c20.667 -92.667 29.334 -145.667 26.001 -159zM314.001 18
c-20.667 -5.33301 -54.333 -12.332 -101 -20.999c6.66699 33.333 9.66699 63.333 9 90c28.667 4.66699 60.667 13.667 96 27c4 -38.667 4.33301 -63.334 1 -74.001z" />
    <glyph glyph-name="B" unicode="B" horiz-adv-x="510" 
d="M535 300c-18.667 -70.667 -65.334 -128.667 -140.001 -174c5.33301 -16.667 6.33301 -32 3 -46c-11.333 -40 -39.333 -71 -84 -93c-34.667 -16.667 -69 -25 -103 -25c-35.333 0 -68 6.66699 -98 20c-37.333 16 -58.666 38.667 -63.999 68
c-3.33301 20 1.33398 51.333 14.001 94l22 63c21.333 80 44.666 155.333 69.999 226c62 49.333 133 74 213 74c50.667 0 92.5 -13 125.5 -39s49.5 -62.667 49.5 -110c0 -18 -2.66699 -37.333 -8 -58zM320 206c1.33301 4 1 9.66797 -1 17.001
c-2.66699 10.667 -7.66699 16 -15 16h-18l-17 -64l21 -3c15.333 5.33301 25.333 16.666 30 33.999zM275 82.001c2 6.66699 0 14.333 -6 23h-16l-12 -46h10c5.33301 2.66699 10.333 5.5 15 8.5s7.66699 7.83301 9 14.5z" />
    <glyph glyph-name="C" unicode="C" horiz-adv-x="491" 
d="M506 310c-5.33301 -18.667 -25.668 -68.333 -61.001 -149c-17.333 3.33301 -32.333 5 -45 5c-36.667 0 -58.667 -13.667 -66 -41c-1.33301 -4 -2 -7.66699 -2 -11c0 -18 12 -31 36 -39c15.333 -5.33301 31.666 -8 48.999 -8c0.666992 -6 0.333984 -14 -0.999023 -24
l-13 -51c-41.333 -10 -82.666 -15 -123.999 -15c-62 0 -112.667 13 -152 39c-44 29.333 -66 71.666 -66 126.999c0 58.667 20.333 117.334 61 176.001c48.667 70 115.334 120.667 200.001 152c39.333 14.667 87.333 22 144 22c41.333 0 69.666 -4.33301 84.999 -13z" />
    <glyph glyph-name="D" unicode="D" horiz-adv-x="502" 
d="M515 248c-20 -76.667 -71.668 -139.001 -155.001 -187.001c-70 -40.667 -139 -61 -207 -61h-115c10.667 62.667 24.334 124.334 41.001 185.001c30 113.333 64 210.666 102 291.999c7.33301 4.66699 30 7 68 7c62.667 0 111.667 -6 147 -18c49.333 -16 86 -46 110 -90
c10.667 -20 16 -44.333 16 -73c0 -19.333 -2.33301 -37.666 -7 -54.999zM242.999 121.999c4.66699 18.667 -2.33301 32.334 -21 41.001c-4 -12 -13.333 -44 -28 -96c28 21.333 44.333 39.666 49 54.999z" />
    <glyph glyph-name="E" unicode="E" horiz-adv-x="463" 
d="M440 240c-46 -18.667 -90 -35.333 -132 -50c-1.33301 14 -3.33301 36.667 -6 68c14.667 11.333 59 29.333 133 54c4 -32.667 5.66699 -56.667 5 -72zM388 3.00098c-39.333 -6 -95 -9 -167 -9c-34 0 -63 0.666992 -87 2c-26.667 1.33301 -55 4 -85 8
c4 60.667 20.667 146.334 50 257.001c12 43.333 19.667 70 23 80c6.66699 19.333 24.667 65.666 54 138.999c23.333 6.66699 69 10 137 10c57.333 0 124.666 -4 201.999 -12l-50 -157h-153l-39 -145l1 -3c29.333 -2 66.666 -1.66699 111.999 1
c2.66699 0 7.33398 0.666992 14.001 2s11.334 2 14.001 2h12l-26 -98z" />
    <glyph glyph-name="F" unicode="F" horiz-adv-x="442" 
d="M419 214l-115.001 -39.001c-0.666992 22 0.333008 52 3 90c30 14.667 66.667 29.334 110 44.001c0.666992 -22 1.33398 -53.667 2.00098 -95zM501.999 461.999c-8 -21.333 -19.333 -53.332 -34 -95.999c-2.66699 -7.33301 -6 -21.333 -10 -42l-150 -1l-52 -194
c-8.66699 -36.667 -16.334 -79.334 -23.001 -128.001h-194l44 202c10.667 38.667 26.334 89 47.001 151c22.667 65.333 39.667 110.333 51 135l107 2l220 -10z" />
    <glyph glyph-name="G" unicode="G" horiz-adv-x="537" 
d="M603 457c-35.333 -79.333 -92.999 -170.336 -172.999 -273.003c-8 3.33301 -16 5 -24 5c-13.333 0 -24.666 -4.83301 -33.999 -14.5s-14 -19.5 -14 -29.5c0 -13.333 6.66699 -20 20 -20c10.667 0 21 7.66699 31 23c9.33301 13.333 13.333 23 12 29c4 0 32 1 84 3
c-2 -10 -5 -22.333 -9 -37c-13.333 -49.333 -34.333 -92.666 -63 -129.999c-49.333 -22 -99.333 -33 -150 -33c-60 0 -111.333 16 -154 48c-46 34.667 -69 80.334 -69 137.001c0 18 2.66699 37 8 57c22 80.667 72.667 149.334 152 206.001
c75.333 52.667 151.666 79 228.999 79c53.333 0 104.666 -16.667 153.999 -50z" />
    <glyph glyph-name="H" unicode="H" horiz-adv-x="559" 
d="M492 1l-116.001 -7.00195c-22.667 0 -46.667 2 -72 6c0 27.333 4.33301 61.333 13 102l25 106c1.33301 1.33301 0 2 -4 2c-1.33301 0 -21.666 -8.33301 -60.999 -25c-15.333 -67.333 -26.666 -128 -33.999 -182c-6.66699 0 -23.334 -1.66699 -50.001 -5
c-23.333 -2.66699 -36.333 -4 -39 -4h-94c-2 66 14.667 165.333 50 298l24 85c11.333 34.667 25 71.334 41 110.001h188l-37 -98l-18 -66c23.333 6.66699 46.666 15.334 69.999 26.001c10.667 30.667 28.334 76 53.001 136h188c-28.667 -64 -53.667 -136.333 -75 -217
c-11.333 -42.667 -20 -78.667 -26 -108c-12 -53.333 -20.667 -106.333 -26 -159z" />
    <glyph glyph-name="I" unicode="I" horiz-adv-x="322" 
d="M382 480c-34 -68.667 -65.999 -159.332 -95.999 -271.999c-8 -30 -13.333 -52 -16 -66c-6 -42.667 -12.667 -87.334 -20 -134.001l-3 -12c-99.333 -6 -165.333 -5.33301 -198 2c8.66699 76.667 23 151.667 43 225c25.333 95.333 56.666 183 93.999 263
c12.667 2.66699 37.667 4 75 4c38.667 0 79 -3.33301 121 -10z" />
    <glyph glyph-name="J" unicode="J" horiz-adv-x="316" 
d="M325 300c-52.667 -196.667 -136.666 -353 -251.999 -469c-8 6 -25.667 27.333 -53 64c-29.333 39.333 -43 63 -41 71l35 45c22 32.667 39 63.667 51 93c25.333 62.667 45.166 121 59.499 175s27.5 121 39.5 201c0.666992 0.666992 5.66699 3.66699 15 9
c99.333 0 160.333 -2 183 -6c-14.667 -84 -27 -145 -37 -183z" />
    <glyph glyph-name="K" unicode="K" horiz-adv-x="521" 
d="M577 382l-167.001 -210c16 -32.667 35.333 -63.334 58 -92.001c-32 -35.333 -90.667 -77.666 -176 -126.999c-23.333 24.667 -43 59.667 -59 105l-15 -60c-85.333 -3.33301 -145.333 -2.66602 -180 2.00098c6.66699 54 21.667 124.333 45 211
c12 45.333 21.667 78.666 29 99.999c16.667 52 40 112.333 70 181h71c24.667 1.33301 64.667 -2.66699 120 -12c-4 -6.66699 -17.333 -35.667 -40 -87c-25.333 -58 -40.666 -96 -45.999 -114l-2 -8h2c70 76 129.667 150.667 179 224c18.667 -8 39.667 -23.833 63 -47.5
s39.333 -45.5 48 -65.5z" />
    <glyph glyph-name="L" unicode="L" horiz-adv-x="396" 
d="M330 4c-32 -4.66699 -60.999 -7.00098 -86.999 -7.00098l-194 9c4.66699 54 18 123 40 207c25.333 95.333 58 187.333 98 276h200c-2.66699 -3.33301 -14.667 -29 -36 -77c-22.667 -51.333 -36.334 -86 -41.001 -104l-27 -98h97l-39 -145
c-5.33301 -21.333 -9 -41.666 -11 -60.999z" />
    <glyph glyph-name="M" unicode="M" horiz-adv-x="687" 
d="M668 133c-2.66699 -10 -34.998 -37.332 -96.998 -81.999c-48.667 -34.667 -85.334 -59.334 -110.001 -74.001c-3.33301 36 -12 90.333 -26 163c-38.667 -46 -83.667 -87 -135 -123c-28 53.333 -45 95.333 -51 126c-45.333 -48 -89 -100.667 -131 -158
c-7.33301 4.66699 -25.333 29 -54 73c-30.667 48.667 -44.334 80 -41.001 94c2.66699 10 41 54 115 132c64.667 70 108 115 130 135c41.333 38.667 89 78.667 143 120l25 -70l76 76c20 -27.333 44.333 -70.333 73 -129c9.33301 -18 25.333 -61.667 48 -131
c28 -84 39.667 -134.667 35 -152z" />
    <glyph glyph-name="N" unicode="N" horiz-adv-x="537" 
d="M598 480l-78.998 -230.997l-63 -224l-17 -80c-51.333 29.333 -117.333 80.666 -198 153.999c-4.66699 -23.333 -10.334 -49 -17.001 -77l-5 -22h-184l82 304c4.66699 21.333 32.667 99.666 84 234.999c39.333 -44.667 98.666 -94.334 177.999 -149.001l36 102
c6 2.66699 15.333 4 28 4c15.333 0 67 -5.33301 155 -16z" />
    <glyph glyph-name="O" unicode="O" horiz-adv-x="594" 
d="M604 240c-20 -73.333 -62.334 -135.501 -127.001 -186.501s-134 -76.5 -208 -76.5c-60.667 0 -109.667 18 -147 54s-56 82.333 -56 139c0 22.667 3.33301 46 10 70c19.333 72.667 61.833 135.334 127.5 188.001s134.834 79 207.501 79c61.333 0 110.333 -18.5 147 -55.5
s55 -84.167 55 -141.5c0 -22.667 -3 -46 -9 -70zM446.999 162.999c0 25.333 -14.332 38 -42.999 38c-18 0 -34.5 -6.66699 -49.5 -20s-22.5 -28.333 -22.5 -45c0 -11.333 3.83301 -21.333 11.5 -30s18.167 -13 31.5 -13c15.333 0 31.166 7.66699 47.499 23s24.5 31 24.5 47z
" />
    <glyph glyph-name="P" unicode="P" horiz-adv-x="500" 
d="M516 273c-14.667 -55.333 -46.499 -102.167 -95.499 -140.5s-107.833 -61.833 -176.5 -70.5c-4.66699 -14.667 -8.33398 -35 -11.001 -61c-44 -4.66699 -75.667 -7 -95 -7c-32.667 0 -66.667 3 -102 9c5.33301 50.667 16.333 107 33 169c24 90 60 194.667 108 314
c23.333 4.66699 49 7 77 7c67.333 0 124.333 -10.333 171 -31c66 -28 99 -73 99 -135c0 -16.667 -2.66699 -34.667 -8 -54zM294.001 159.999c4.66699 20 -2.33203 33.668 -20.999 41.001l-22 -84c23.333 9.33301 37.666 23.666 42.999 42.999z" />
    <glyph glyph-name="Q" unicode="Q" horiz-adv-x="602" 
d="M605 243c-17.333 -64.667 -51.998 -120.999 -103.998 -168.999c6.66699 -9.33301 13 -24.666 19 -45.999c-26.667 -24 -83.334 -56.667 -170.001 -98c-20 35.333 -29.333 53 -28 53c-2.66699 0 -11.334 -1 -26.001 -3s-23 -3 -25 -3c-62 0 -111.5 18.5 -148.5 55.5
s-55.5 83.833 -55.5 140.5c0 23.333 3.33301 46.666 10 69.999c20 74 62.333 136.5 127 187.5s133.667 76.5 207 76.5c61.333 0 110.5 -18 147.5 -54s55.5 -82.333 55.5 -139c0 -22.667 -3 -46.334 -9 -71.001zM446.002 160.001c0 11.333 -3.66797 21.5 -11.001 30.5
s-17.666 13.5 -30.999 13.5c-14.667 0 -30.167 -7.33301 -46.5 -22s-24.5 -29.667 -24.5 -45c0 -27.333 14.333 -41 43 -41c16.667 0 32.5 6 47.5 18s22.5 27.333 22.5 46z" />
    <glyph glyph-name="R" unicode="R" horiz-adv-x="511" 
d="M470 57c-18.667 -12.667 -79.667 -46.334 -183 -101.001c-14 40 -29 74 -45 102c-6.66699 -15.333 -11.667 -34.666 -15 -57.999h-189c9.33301 56 23.333 118.667 42 188c26 98.667 60.333 198 103 298c10 4.66699 32 7 66 7c68 0 126 -10 174 -30
c68 -27.333 102 -71.666 102 -132.999c0 -16 -2.33301 -33.333 -7 -52c-11.333 -40.667 -39 -85.334 -83 -134.001c11.333 -22.667 23 -51.667 35 -87zM318 163c4 16 -2.33203 24 -18.999 24c-8.66699 0 -17.334 -2.33301 -26.001 -7l-14 -54c19.333 6.66699 31 11 35 13
c13.333 6 21.333 14 24 24z" />
    <glyph glyph-name="S" unicode="S" horiz-adv-x="412" 
d="M452 328c-43.333 -27.333 -79.999 -63.334 -109.999 -108.001l-72 -114c-32 -43.333 -73.667 -79 -125 -107l-55 -28c-32 51.333 -56 108.333 -72 171c46 27.333 87.667 66 125 116l92 129c39.333 48 85.666 85 138.999 111c14 -19.333 28.333 -46.666 43 -81.999z" />
    <glyph glyph-name="T" unicode="T" horiz-adv-x="427" 
d="M446 305c-18 -0.666992 -44.333 -0.667969 -79 -0.000976562l-57 -205l-38 -106h-97c0.666992 0 -28 3 -86 9l78 292c-10.667 2.66699 -41 6.66699 -91 12l24 88c2 6.66699 14.667 35.334 38 86.001c71.333 4 121.333 6 150 6l205 -7l-6 -4
c-1.33301 -1.33301 -2.33301 -6 -3 -14c-1.33301 -15.333 -3 -26 -5 -32z" />
    <glyph glyph-name="U" unicode="U" horiz-adv-x="526" 
d="M549 343c-41.333 -156.667 -115.332 -266.332 -221.999 -328.999c-32.667 -19.333 -67.334 -29 -104.001 -29c-20.667 0 -42.334 4.33301 -65.001 13c-52 18.667 -78 65.667 -78 141c0 41.333 9 95.666 27 162.999c14.667 55.333 35.334 113.666 62.001 174.999h203
l-32 -120c-7.33301 -30 0 -45 22 -45c12.667 0 24.667 8.33301 36 25c8 12.667 13.667 25.334 17 38.001l26 94c43.333 2.66699 86.666 2.66699 129.999 0c0.666992 -27.333 -6.66602 -69.333 -21.999 -126z" />
    <glyph glyph-name="V" unicode="V" horiz-adv-x="591" 
d="M688 436c-111.333 -160.667 -256.667 -316.666 -436 -467.999c-75.333 138 -125.333 286.333 -150 445c31.333 20.667 100 54 206 100c16 -62.667 37.667 -124 65 -184c33.333 31.333 86 91.666 158 180.999z" />
    <glyph glyph-name="W" unicode="W" horiz-adv-x="693" 
d="M785 428c-132 -186 -276.669 -343.332 -434.002 -471.999c-12.667 26.667 -25.667 65.667 -39 117c-41.333 -41.333 -81.333 -78.333 -120 -111c-57.333 156.667 -86 311.667 -86 465l2 10c68.667 29.333 132 51.666 190 66.999c6.66699 -56 19.334 -108.333 38.001 -157
c48.667 58 85.334 99.667 110.001 125c11.333 -28.667 26.333 -74.334 45 -137.001l140 166c58.667 -23.333 110 -47.666 154 -72.999z" />
    <glyph glyph-name="X" unicode="X" horiz-adv-x="581" 
d="M553 127c-0.666992 -1.33301 -6 -6.66699 -16 -16c-48.667 -43.333 -115.334 -91 -200.001 -143l-51 137c-47.333 -36.667 -97.666 -83.334 -150.999 -140.001c-55.333 44.667 -98.333 88.667 -129 132c51.333 58.667 110 115.334 176 170.001
c-18 28.667 -43.333 60.667 -76 96c57.333 52 125.333 104 204 156l81 -99c86.667 50.667 130.667 76 132 76c4 0 13 -12.333 27 -37s33.667 -65.667 59 -123c-53.333 -34 -89.333 -59 -108 -75l29 -64c17.333 -40 25 -63.333 23 -70z" />
    <glyph glyph-name="Y" unicode="Y" horiz-adv-x="527" 
d="M621 437c-82 -125.333 -229.669 -291.334 -443.002 -498.001l-133 109c4 2 28 24.833 72 68.5s67 69.834 69 78.501c0.666992 2 -5.66602 19.667 -18.999 53c-25.333 63.333 -45.666 131 -60.999 203c19.333 14 81.333 39.667 186 77c6.66699 -42 24.667 -97.667 54 -167
c42.667 44.667 87.667 101 135 169c34 -15.333 80.667 -46.333 140 -93z" />
    <glyph glyph-name="Z" unicode="Z" horiz-adv-x="541" 
d="M643 474l-123 -133.001c-48 -54 -88.333 -103 -121 -147c22 -1.33301 54.333 -4 97 -8l-29 -106c-2.66699 -12 -11.334 -37.667 -26.001 -77c-27.333 -4 -50.666 -6 -69.999 -6h-207l-173 12c48.667 68 127.667 159.667 237 275c-6 0.666992 -33 3.33398 -81 8.00098
l52 194h159z" />
    <glyph glyph-name="bracketleft" unicode="[" horiz-adv-x="384" 
d="M478 524c-18 -40.667 -31.6709 -81.001 -41.0039 -121.001h-160l-96 -326l2 -3c35.333 -2 74.666 -1.66699 117.999 1c2.66699 0 7.33398 0.5 14.001 1.5s11.334 1.5 14.001 1.5h21c-3.33301 -2.66699 -7.33301 -9.66699 -12 -21
c-9.33301 -21.333 -14.666 -41 -15.999 -59c-1.33301 -22.667 -2.33301 -35 -3 -37l-4 -13c-53.333 -6 -104 -9 -152 -9c-53.333 0 -100.666 3 -141.999 9c6 36.667 10.333 60.334 13 71.001l21 76l40 172c14 52 29 100.667 45 146l43 117c46.667 4 91.334 6 134.001 6
c64 0 117.667 -4 161 -12z" />
    <glyph glyph-name="backslash" unicode="\" horiz-adv-x="372" 
d="M338 -31c-38.667 -3.33301 -77.334 -3.66895 -116.001 -1.00195c-11.333 138.667 -38.666 316.334 -81.999 533.001c10.667 1.33301 48.667 2.33301 114 3c35.333 -143.333 63.333 -321.666 84 -534.999z" />
    <glyph glyph-name="bracketright" unicode="]" horiz-adv-x="410" 
d="M407 267l-71.001 -242c-6 -18 -15 -43.667 -27 -77c-39.333 -6 -88 -9 -146 -9c-47.333 0 -96.666 3 -147.999 9l4 12c0.666992 4 7.33398 19.333 20.001 46c10 22.667 15 40.334 15 53.001c0 7.33301 -1.33301 13.666 -4 18.999c26 -3.33301 42.667 -5 50 -5h113l3 2
l26 108l58 219h-163c13.333 44 21.333 84.667 24 122c55.333 8 111.333 12 168 12c25.333 0 68.666 -2 129.999 -6l-19 -117c-8 -44 -19 -92.667 -33 -146z" />
    <glyph glyph-name="asciicircum" unicode="^" horiz-adv-x="408" 
d="M429 263h-93l-35 160l-123 -160h-93l175 235h121z" />
    <glyph glyph-name="underscore" unicode="_" horiz-adv-x="335" 
d="M344 -107h-372l17 63h372z" />
    <glyph glyph-name="grave" unicode="`" horiz-adv-x="270" 
d="M440 522h-16c-17.333 0 -47.333 6.33301 -90 19c-37.333 10.667 -59.333 18.334 -66 23.001c14.667 30 27 56.667 37 80c36 -22.667 87 -40.334 153 -53.001z" />
    <glyph glyph-name="a" unicode="a" horiz-adv-x="521" 
d="M498 117c-0.666992 -2.66699 -9.99902 -11.333 -27.999 -26c-58.667 -48.667 -114.334 -87.667 -167.001 -117c4 69.333 -2 133.333 -18 192c-49.333 -37.333 -105 -100.333 -167 -189c-32 24 -62.333 69 -91 135c114 126.667 239 239 375 337l44 -97
c6 -18 16.333 -57.333 31 -118c16.667 -68 23.667 -107 21 -117zM278.001 15.001c-45.333 -12 -70 -18 -74 -18h-12c5.33301 34.667 8 59.667 8 75c32 7.33301 57.667 14.333 77 21c3.33301 -0.666992 5.33301 -10.667 6 -30c0.666992 -18 0 -29.667 -2 -35z" />
    <glyph glyph-name="b" unicode="b" horiz-adv-x="437" 
d="M453 255c-16.667 -62 -56 -110.667 -118 -146c4 -14.667 4.33301 -28.334 1 -41.001c-8.66699 -32 -31.334 -57.667 -68.001 -77c-29.333 -15.333 -58.333 -23 -87 -23c-66.667 0 -111.667 22.667 -135 68c-2 3.33301 0.666992 22 8 56c8 37.333 15.333 69 22 95
c17.333 62.667 36.666 122.334 57.999 179.001c50.667 42 110.334 63 179.001 63c42.667 0 77.834 -11.5 105.501 -34.5s41.5 -54.167 41.5 -93.5c0 -14.667 -2.33301 -30 -7 -46zM268 175c3.33301 12 1 21.667 -7 29h-17l-15 -58h16c12 6 19.667 15.667 23 29zM234 70
c2.66699 8 0.333008 14.667 -7 20h-10c-3.33301 -6.66699 -6.33301 -20 -9 -40c13.333 -2 22 4.66699 26 20z" />
    <glyph glyph-name="c" unicode="c" horiz-adv-x="426" 
d="M448 335c-11.333 -43.333 -35.334 -110.332 -72.001 -200.999c-10.667 4 -22.334 6 -35.001 6c-31.333 0 -50 -11.667 -56 -35c-1.33301 -4 -2 -7.33301 -2 -10c0 -26 23 -39.333 69 -40c1.33301 -11.333 1 -21.333 -1 -30l-9 -33c-47.333 -8 -82 -12 -104 -12
c-53.333 0 -96.666 10.667 -129.999 32c-38 25.333 -57 61.666 -57 108.999c0 17.333 2.66699 35.666 8 54.999c12.667 46.667 38 90.334 76 131.001c43.333 46.667 95 79 155 97c28.667 8.66699 63.334 13 104.001 13c22 0 45.667 -2 71 -6
c-2 -16.667 -7.66699 -42 -17 -76z" />
    <glyph glyph-name="d" unicode="d" horiz-adv-x="434" 
d="M435 208c-17.333 -63.333 -62.001 -115.67 -134.001 -157.003c-59.333 -34 -115.666 -51 -168.999 -51h-96c2 32.667 12.667 84.667 32 156c26 98 55.333 182 88 252h106c8.66699 0 28.334 -3.66699 59.001 -11c39.333 -9.33301 69.166 -27.166 89.499 -53.499
s30.5 -56.166 30.5 -89.499c0 -15.333 -2 -30.666 -6 -45.999zM204.999 101.996c4.66699 16.667 -0.666992 28.334 -16 35.001c-2 -2.66699 -9.66699 -27.667 -23 -75c7.33301 1.33301 15.333 6.66602 24 15.999s13.667 17.333 15 24z" />
    <glyph glyph-name="e" unicode="e" horiz-adv-x="407" 
d="M372 205c-32.667 -15.333 -69.999 -30.333 -111.999 -45c-1.33301 12.667 -2 34 -2 64c25.333 11.333 61.666 25 108.999 41c3.33301 -12.667 5 -32.667 5 -60zM329.001 1c-55.333 -4.66699 -102.333 -7 -141 -7l-150 6c11.333 79.333 26.333 154 45 224
c8.66699 32 14.667 53 18 63c8 24.667 23.667 65 47 121c54.667 4 93.334 6 116.001 6l167 -9c1.33301 -4 2 -8 2 -12c0 -6.66699 -2 -14 -6 -22c-5.33301 -10 -8.33301 -16.333 -9 -19l-21 -77h-134c0.666992 -2.66699 -3.83301 -22.334 -13.5 -59.001
s-16.167 -58.667 -19.5 -66l1 -3c60.667 -2 101.667 -0.666992 123 4h15l-5 -5c-10.667 -19.333 -22.334 -67.666 -35.001 -144.999z" />
    <glyph glyph-name="f" unicode="f" horiz-adv-x="369" 
d="M355 182c-18.667 -9.33301 -51.667 -20.334 -99 -33.001l1 72c20 12.667 51.333 24.334 94 35.001c2.66699 -28 4 -52.667 4 -74zM426 400.999c-2 -7.33301 -10 -29.999 -24 -67.999c-10 -28 -15.333 -49.667 -16 -65c-1.33301 2.66699 -44 3 -128 1l-42 -157l-20 -109
h-163c10 58.667 22 115 36 169c15.333 56.667 30.333 104.667 45 144l38 98c10.667 -0.666992 27.667 -0.333984 51 0.999023s35.333 2 36 2l183 -12z" />
    <glyph glyph-name="g" unicode="g" horiz-adv-x="469" 
d="M512 387c-38 -80 -87.332 -157.334 -147.999 -232.001c-6 3.33301 -12.333 5 -19 5c-9.33301 0 -17.833 -3.33301 -25.5 -10s-12.5 -14 -14.5 -22c-4 -15.333 1 -23 15 -23c13.333 0 23.666 7.66699 30.999 23s12.333 23 15 23h59l-5 -31
c-8 -29.333 -25 -65.333 -51 -108c-42.667 -19.333 -85 -29 -127 -29c-50 0 -93 12.667 -129 38c-40.667 28.667 -61 67.334 -61 116.001c0 16.667 2.33301 33.667 7 51c18.667 68 61.667 126 129 174c63.333 44.667 128 67 194 67c42.667 0 86 -14 130 -42z" />
    <glyph glyph-name="h" unicode="h" horiz-adv-x="491" 
d="M417 1c-38.667 -4.66699 -71.3311 -6.99805 -97.998 -6.99805c-0.666992 0 -8.83398 0.5 -24.501 1.5s-27.5 1.5 -35.5 1.5c0.666992 27.333 4 57.666 10 90.999c9.33301 54 14.666 84 15.999 90c-2.66699 -0.666992 -20.667 -8 -54 -22c-4 -15.333 -11 -46.333 -21 -93
l-5 -50l-3 -10c-44.667 -6 -67.334 -9 -68.001 -9h-82c0 66.667 13.333 150.667 40 252c7.33301 28 25.333 83 54 165h154l-36 -135h-1v-1c0.666992 -0.666992 2 -1 4 -1c7.33301 0 25 6.66699 53 20c6.66699 22 21.334 60.667 44.001 116h160l-5 -15
c-6 -12.667 -14.667 -32 -26 -58c-8.66699 -24.667 -19.667 -61.667 -33 -111c-12.667 -46.667 -19.667 -74.334 -21 -83.001c-4 -18.667 -11.333 -66 -22 -142z" />
    <glyph glyph-name="i" unicode="i" horiz-adv-x="289" 
d="M325 408l-36 -91.001c-16 -44 -30.667 -91 -44 -141c-9.33301 -35.333 -15 -57.666 -17 -66.999c-5.33301 -26 -10.666 -63 -15.999 -111c-35.333 -4.66699 -66 -7 -92 -7c-14.667 0 -40.334 2.33301 -77.001 7c12.667 82 24.667 145 36 189c13.333 49.333 27 92 41 128
l36 92c10.667 4.66699 33.667 7 69 7c30 0 63.333 -2 100 -6z" />
    <glyph glyph-name="j" unicode="j" horiz-adv-x="280" 
d="M276 258c-45.333 -168.667 -116.332 -302.333 -212.999 -401c-6 5.33301 -20.333 23.333 -43 54c-26 34.667 -38.333 54.667 -37 60c10.667 13.333 25.667 33.333 45 60c28.667 47.333 55 116.333 79 207c4 14 12 48 24 102c1.33301 16 3.66602 34.333 6.99902 55l4 16
h163c-6 -52 -15.667 -103 -29 -153z" />
    <glyph glyph-name="k" unicode="k" horiz-adv-x="457" 
d="M489 325l-141.001 -177.996c4.66699 -14 20 -40 46 -78c-34 -34.667 -82.667 -70.334 -146 -107.001c-16 19.333 -31.667 47.666 -47 84.999c-6.66699 -14 -10.667 -29.667 -12 -47h-156c10 62 23 122.667 39 182c9.33301 34 18 63 26 87c16 48.667 35.333 98 58 148h79
c-3.33301 0 23.667 -3 81 -9l-3 -10c-6 -10.667 -13.667 -26.334 -23 -47.001l-46 -121c24.667 24 51.334 55 80.001 93l72 97c27.333 -12.667 58.333 -44.334 93 -95.001z" />
    <glyph glyph-name="l" unicode="l" horiz-adv-x="333" 
d="M322 413c-31.333 -66 -52.001 -115.666 -62.001 -148.999l-23 -87c25.333 -3.33301 53.333 -3.33301 84 0l-48 -179c-59.333 -4 -137 -1.33301 -233 8c4 45.333 15.667 103.666 35 174.999c5.33301 22 33 99.667 83 233c110.667 1.33301 165.334 1 164.001 -1z" />
    <glyph glyph-name="m" unicode="m" horiz-adv-x="591" 
d="M564 115c-2.66699 -10 -31.001 -34.333 -85.001 -73c-48 -34 -77.667 -53.667 -89 -59c-3.33301 32 -10.666 76.667 -21.999 134c-23.333 -22.667 -60.666 -56.667 -111.999 -102c-15.333 20 -30.333 55 -45 105c-20 -16.667 -57.667 -60.667 -113 -132
c-36.667 48.667 -63.667 96 -81 142c68 78 117.333 132.667 148 164c61.333 63.333 122.666 118 183.999 164c7.33301 -26.667 14.333 -47.334 21 -62.001c13.333 14.667 34.666 36.334 63.999 65.001c29.333 -50 50.333 -88.333 63 -115
c6.66699 -14.667 19.334 -49.667 38.001 -105c23.333 -70 33 -112 29 -126z" />
    <glyph glyph-name="n" unicode="n" horiz-adv-x="461" 
d="M505 408l-67 -199.999l-66 -254c-68 43.333 -123.667 87 -167 131l-22 -85h-153l50 188l90 270c22 -26.667 47.667 -51.334 77 -74.001l73 -52l32 88h59c18.667 0 50 -4 94 -12z" />
    <glyph glyph-name="o" unicode="o" horiz-adv-x="511" 
d="M513 206c-16.667 -62 -53.335 -114.667 -110.002 -158s-115.334 -65 -176.001 -65c-51.333 0 -92.666 15.167 -123.999 45.5s-47 69.833 -47 118.5c0 18.667 2.66699 38.334 8 59.001c16.667 62 52.334 114.667 107.001 158s113.334 65 176.001 65
c50.667 0 92.167 -15.833 124.5 -47.5s48.5 -71.5 48.5 -119.5c0 -18.667 -2.33301 -37.334 -7 -56.001zM376.999 138c0 22.667 -11.999 34 -35.999 34c-14.667 0 -28.334 -5.5 -41.001 -16.5s-19 -23.833 -19 -38.5c0 -23.333 11.667 -35 35 -35
c13.333 0 26.833 5.66699 40.5 17s20.5 24.333 20.5 39z" />
    <glyph glyph-name="p" unicode="p" horiz-adv-x="429" 
d="M438 232c-12 -45.333 -39.1689 -85.168 -81.502 -119.501s-89.833 -54.833 -142.5 -61.5c-2 0 -4.16699 -1.33301 -6.5 -4s-5.83301 -19 -10.5 -49c-80 -4 -134.667 -3.33301 -164 2c0 30.667 8.66699 79.334 26 146.001c25.333 92 56.333 181.333 93 268
c14.667 2 35.334 3 62.001 3c56.667 0 105.334 -8.66699 146.001 -26c56.667 -24.667 85 -62.667 85 -114c0 -14 -2.33301 -29 -7 -45zM248.998 133.998c3.33301 13.333 -1 25 -13 35l-20 -73c18.667 13.333 29.667 26 33 38z" />
    <glyph glyph-name="q" unicode="q" horiz-adv-x="514" 
d="M513 206c-10.667 -38.667 -28.335 -73.3311 -53.002 -103.998l-35 -38c-0.666992 -2.66699 1 -8.33398 5 -17.001l11 -22c-26.667 -22.667 -75.334 -50.334 -146.001 -83.001c-2.66699 3.33301 -7.66699 12 -15 26c-5.33301 11.333 -9 17 -11 17
c-2.66699 0 -9.66699 -0.333008 -21 -1s-18.333 -1 -21 -1c-51.333 0 -92.666 15.167 -123.999 45.5s-47 69.833 -47 118.5c0 18.667 2.66699 38.334 8 59.001c16.667 62 52.334 114.667 107.001 158s113.334 65 176.001 65c50.667 0 92.167 -15.833 124.5 -47.5
s48.5 -71.5 48.5 -119.5c0 -18.667 -2.33301 -37.334 -7 -56.001zM375.999 137.003c0 23.333 -11.666 35 -34.999 35c-13.333 0 -26.833 -6 -40.5 -18s-20.5 -25.333 -20.5 -40c0 -21.333 12 -32 36 -32c13.333 0 26.666 5.33301 39.999 16s20 23.667 20 39z" />
    <glyph glyph-name="r" unicode="r" horiz-adv-x="441" 
d="M398 51c-19.333 -14.667 -70.332 -43.332 -152.999 -85.999l-41 88c-6 -15.333 -10.333 -33 -13 -53h-155c2.66699 34 13.667 87.333 33 160c11.333 41.333 20.333 72.666 27 93.999c19.333 58.667 41.333 113 66 163h91c1.33301 0 11.666 -1.66699 30.999 -5
c108 -19.333 162 -63 162 -131c0 -14 -2.33301 -29 -7 -45c-6 -24 -19 -49.667 -39 -77l-29 -35c-0.666992 -2.66699 2.66602 -13 9.99902 -31c10.667 -26 16.334 -40 17.001 -42zM271.001 140.002c2.66699 11.333 -3.66699 16.999 -19 16.999c-9.33301 0 -16.333 -1 -21 -3
l-12 -46c9.33301 2.66699 18.333 5.66699 27 9c14 4.66699 22.333 12.334 25 23.001z" />
    <glyph glyph-name="s" unicode="s" horiz-adv-x="349" 
d="M378 278c-44 -30.667 -82.334 -74 -115.001 -130s-72.667 -100.667 -120 -134l-28 -18c-10 -4.66699 -24 -12 -42 -22c-30.667 47.333 -51 96.333 -61 147c38.667 22.667 73.334 55 104.001 97l76 108c33.333 41.333 73.666 73.666 120.999 96.999
c10.667 -15.333 32.334 -63.666 65.001 -144.999z" />
    <glyph glyph-name="t" unicode="t" horiz-adv-x="376" 
d="M375 258l-67 0.000976562l-50 -175c0 -0.666992 -11 -30.334 -33 -89.001h-82c-6 0 -28.667 3.33301 -68 10c-1.33301 12.667 -0.333008 25.667 3 39l30 110l21 56l11 42l-76 9c0 8 2.33301 20.333 7 37c5.33301 21.333 19.333 58 42 110h302l-5 -4
c-2 -12 -4.66699 -26.333 -8 -43z" />
    <glyph glyph-name="u" unicode="u" horiz-adv-x="460" 
d="M465 290c-20 -76 -52.333 -142.334 -97 -199.001c-53.333 -68.667 -112 -103 -176 -103c-21.333 0 -41.333 4.33301 -60 13c-42 18.667 -63 58.334 -63 119.001c0 33.333 7.66699 79 23 137c8 30 25.333 79.333 52 148c86 4 144.667 3 176 -3l-29 -97
c-8 -28.667 -2.33301 -43 17 -43s34.333 18.333 45 55l23 85c-2 0 14.667 0 50 0c16 0 35 -2.33301 57 -7c-2 -33.333 -8 -68.333 -18 -105z" />
    <glyph glyph-name="v" unicode="v" horiz-adv-x="528" 
d="M582 366c-86.667 -122.667 -208.665 -253.333 -365.998 -392c-65.333 116.667 -108 241.667 -128 375c41.333 24 98.666 51.333 171.999 82l55 -154c33.333 28 77.666 78.333 132.999 151z" />
    <glyph glyph-name="w" unicode="w" horiz-adv-x="611" 
d="M665 361c-125.333 -168.667 -247.666 -300.666 -366.999 -395.999c-11.333 26 -22 58 -32 96l-100 -90c-52 134 -76.333 266 -73 396c52.667 25.333 106 44.666 160 57.999c2.66699 -45.333 13.667 -90 33 -134c15.333 20 45.666 56 90.999 108
c13.333 -28 26.333 -65.667 39 -113c22.667 20 62 65.667 118 137c45.333 -19.333 89 -40 131 -62z" />
    <glyph glyph-name="x" unicode="x" horiz-adv-x="503" 
d="M466 106c-2.66699 -8.66699 -29.668 -30.666 -81.001 -65.999c-43.333 -30 -77.333 -52 -102 -66c-16 48.667 -30.333 86.334 -43 113.001c-36 -27.333 -78.333 -66 -127 -116c-46.667 42.667 -83 79 -109 109c31.333 42 81.333 90.667 150 146
c-23.333 32.667 -44.666 58.667 -63.999 78c19.333 21.333 75.333 65.666 168 132.999c19.333 -16.667 43 -44.667 71 -84c14.667 10 36 23.167 64 39.5s43.667 24.5 47 24.5c8.66699 0 33 -44.333 73 -133c-16 -10 -47 -31.333 -93 -64c5.33301 -6.66699 14.333 -25 27 -55
c14 -32.667 20.333 -52.334 19 -59.001z" />
    <glyph glyph-name="y" unicode="y" horiz-adv-x="471" 
d="M525 370c-43.333 -66.667 -107 -145.667 -191 -237c-64.667 -70 -126.667 -131.667 -186 -185l-108 91l121 126c-30 58.667 -53.667 130.667 -71 216c12.667 10 65 31.667 157 65c12.667 -56 28 -102.667 46 -140c39.333 43.333 77.333 91 114 143
c24.667 -12.667 64 -39 118 -79z" />
    <glyph glyph-name="z" unicode="z" horiz-adv-x="482" 
d="M546 407l-206.998 -242c17.333 -1.33301 43.666 -4 78.999 -8c-1.33301 -17.333 -7.33301 -42.333 -18 -75l-26 -79c-34.667 -4 -82 -6 -142 -6l-238 12c48 68.667 114 144.667 198 228c-5.33301 0 -13 0.833008 -23 2.5s-17.667 2.5 -23 2.5
c-8.66699 0 -16.334 -1.66699 -23.001 -5l46 171h303c-5.33301 0 17.667 -1.33301 69 -4z" />
    <glyph glyph-name="braceleft" unicode="{" horiz-adv-x="285" 
d="M421 562c-44.667 -43.333 -82.333 -98 -113 -164c-31.333 -69.333 -62.333 -120 -93 -152c17.333 -21.333 26 -50.666 26 -87.999c0 -18.667 -2.66699 -47.834 -8 -87.501s-8 -71.834 -8 -96.501c0 -23.333 2.33301 -44.666 7 -63.999
c-7.33301 -0.666992 -22 -2.33398 -44 -5.00098c-19.333 -2.66699 -30.333 -4 -33 -4h-44c0 68 2.66699 124.667 8 170c2.66699 22 4 40.333 4 55c0 50 -15 90 -45 120l39 38c15.333 16.667 25.333 29.334 30 38.001l31 64c36.667 82 76 143.333 118 184
c2 0.666992 6.66699 1 14 1z" />
    <glyph glyph-name="bar" unicode="|" horiz-adv-x="324" 
d="M198 -151c-33.333 -3.33301 -69 -3.33301 -107 0l190 707c36 3.33301 71.667 3.33301 107 0z" />
    <glyph glyph-name="braceright" unicode="}" horiz-adv-x="329" 
d="M347 240c-41.333 -29.333 -81.667 -79.333 -121 -150c-48 -86.667 -88.333 -147.667 -121 -183c-26.667 1.33301 -66.667 6.33301 -120 15c38.667 28.667 75.667 78.667 111 150c38 78 77.667 136 119 174c-10 23.333 -12 59.333 -6 108
c6.66699 46.667 10 79.334 10 98.001c0 37.333 -7 74.666 -21 111.999h124c9.33301 -28 14 -60.667 14 -98c0 -18 -1.5 -43.833 -4.5 -77.5s-4.5 -57.167 -4.5 -70.5c0 -34.667 6.66699 -60.667 20 -78z" />
    <glyph glyph-name="asciitilde" unicode="~" horiz-adv-x="456" 
d="M564 518c-38 -67.333 -84.6631 -101 -139.996 -101c-16.667 0 -38.834 6.83301 -66.501 20.5s-47.5 20.5 -59.5 20.5c-22 0 -44 -14.667 -66 -44c-8.66699 9.33301 -22.334 22 -41.001 38c38.667 68 83.667 102 135 102c19.333 0 43.166 -6.83301 71.499 -20.5
s48.166 -20.5 59.499 -20.5c23.333 0 45.333 14.667 66 44c14 -15.333 27.667 -28.333 41 -39z" />
    <glyph glyph-name="nonbreakingspace" unicode="&#xa0;" 
 />
    <glyph glyph-name="exclamdown" unicode="&#xa1;" horiz-adv-x="285" 
d="M357 487c-10.667 -25.333 -25 -61.333 -43 -108c-10.667 2 -28.667 3 -54 3c-39.333 0 -78 -2.66699 -116 -8c9.33301 26 24.333 63.333 45 112c67.333 8.66699 123.333 9 168 1zM302 343c-26.667 -63.333 -43.999 -109 -51.999 -137l-43 -164
c-0.666992 -5.33301 -1 -10.666 -1 -15.999c0 -8.66699 -4.33301 -19.334 -13 -32.001h-111c-8 0 -24.333 2 -49 6c11.333 58 20.666 100.667 27.999 128l64 207c14 3.33301 39.667 7.33301 77 12z" />
    <glyph glyph-name="cent" unicode="&#xa2;" horiz-adv-x="420" 
d="M410 236c-10 6 -20.333 9.00098 -31 9.00098c-12 0 -22.833 -5.33301 -32.5 -16s-14.5 -20.667 -14.5 -30c0 -20.667 17.667 -31.667 53 -33c0 -1.33301 -7.33301 -29.333 -22 -84l-100 -26c-2 -6 -7.33301 -25.333 -16 -58c-28.667 -3.33301 -56.667 -3.33301 -84 0
c5.33301 17.333 10.333 37.666 15 60.999c-1.33301 0.666992 -3.33301 2 -6 4c-69.333 14.667 -104 48.334 -104 101.001c0 15.333 2.66699 33.666 8 54.999c26 96 93.667 160.667 203 194c3.33301 6.66699 9.33301 27.334 18 62.001
c5.33301 -0.666992 23.333 -0.333984 54 0.999023l33 2l-13 -50h90z" />
    <glyph glyph-name="sterling" unicode="&#xa3;" horiz-adv-x="470" 
d="M517 342c-56 -32.667 -118.666 -58.334 -187.999 -77.001c-5.33301 15.333 -8.33301 23.333 -9 24c-4.66699 9.33301 -12 14 -22 14s-20.667 -6 -32 -18s-18 -22 -20 -30l-4 -17c12.667 -2 53 -2 121 0c-5.33301 -10 -11 -31.667 -17 -65
c-28.667 -2 -71.334 -6 -128.001 -12l-7 -24c62 -2 132 1.66699 210 11c1.33301 -11.333 0.666016 -22 -2.00098 -32l-30 -109c-1.33301 -1.33301 -4 -3.33301 -8 -6c-48 -6.66699 -101.333 -10 -160 -10c-48 0 -101.667 4 -161 12c1.33301 24 10.333 76.667 27 158
c-4.66699 2.66699 -15 3.66699 -31 3l20 63c2.66699 0 7 0.5 13 1.5s10.667 1.5 14 1.5c28 84 63.667 150.667 107 200c50.667 57.333 107.334 86 170.001 86c38.667 0 71.667 -13 99 -39s41 -59.667 41 -101c0 -11.333 -1 -22.666 -3 -33.999z" />
    <glyph glyph-name="currency" unicode="&#xa4;" horiz-adv-x="441" 
d="M397 109c-10 -8.66699 -33.334 -27.667 -70.001 -57c-18.667 33.333 -29 50 -31 50c-2.66699 0 -9 -2.5 -19 -7.5s-17.333 -8.16699 -22 -9.5c-14.667 -4 -31.334 -6 -50.001 -6c-21.333 0 -47 7.66699 -77 23l-53 -47c-7.33301 6.66699 -16.166 16.334 -26.499 29.001
s-14.833 20.667 -13.5 24c0.666992 3.33301 9.66699 12.166 27 26.499s26.333 22.5 27 24.5c0.666992 2.66699 0.166992 6.5 -1.5 11.5s-2.83398 8.83301 -3.50098 11.5c-0.666992 19.333 1.33301 38 6 56c8.66699 32.667 24 60.667 46 84
c-5.33301 8 -16.666 20.667 -33.999 38c11.333 12 33.333 31 66 57c22.667 -25.333 36.334 -38 41.001 -38c2.66699 0 9.16699 2 19.5 6s17.166 6.33301 20.499 7c12.667 2.66699 26.334 4 41.001 4c18 0 33.667 -2.33301 47 -7c1.33301 0 5.33301 -2.16699 12 -6.5
s11.334 -6.5 14.001 -6.5s12 5.33301 28 16c19.333 14 31.666 22.333 36.999 25c7.33301 -8.66699 19.333 -27.667 36 -57c-16.667 -8 -35.667 -20.667 -57 -38c8.66699 -26 9 -54 1 -84c-9.33301 -34.667 -23 -60 -41 -76c10 -11.333 20 -29 30 -53zM333.999 198
c0 27.333 -14.667 41 -44 41c-17.333 0 -33.833 -7.16699 -49.5 -21.5s-23.5 -29.5 -23.5 -45.5c0 -27.333 14.667 -41 44 -41c16 0 32.167 7 48.5 21s24.5 29.333 24.5 46z" />
    <glyph glyph-name="yen" unicode="&#xa5;" horiz-adv-x="530" 
d="M621 437c-29.333 -48.667 -86.665 -122.002 -171.998 -220.002c1.33301 -1.33301 8.66602 -2 21.999 -2c-1.33301 -21.333 -4.66602 -37.333 -9.99902 -48c-20 -4 -42 -6.66699 -66 -8l-28 -29c2 0 16.667 -1.33301 44 -4c20 -1.33301 33.333 -4.66602 40 -9.99902
l-12 -43c-16.667 -4 -38.334 -6.66699 -65.001 -8l-66 -2l-130 -124l-133 109c7.33301 4.66699 12.333 9.33398 15 14.001c-4 2 -9.66699 5.66699 -17 11l11 40c14.667 6.66699 37 10 67 10l31 30c-0.666992 0 -18.334 1.33301 -53.001 4c-21.333 2 -32 9 -32 21
c0 6.66699 2.66699 15.334 8 26.001c1.33301 0.666992 3 2 5 4c12 2 45.667 5.33301 101 10c-39.333 100.667 -64 179.334 -74 236.001c52 25.333 113.667 49.666 185 72.999c6 -36.667 24 -92 54 -166c50 55.333 95 111.666 135 168.999c62 -34 108.667 -65 140 -93z" />
    <glyph glyph-name="brokenbar" unicode="&#xa6;" horiz-adv-x="319" 
d="M305 254h-107.001l81 302c34.667 3.33301 70.334 3.33301 107.001 0zM195.999 -154c-35.333 -3.33301 -71.001 -3.33301 -107.001 0l84 314c34.667 2.66699 70.334 2.66699 107.001 0z" />
    <glyph glyph-name="section" unicode="&#xa7;" horiz-adv-x="453" 
d="M467 232l-17.9971 -59.002c-2 1.33301 -6.33301 2.33301 -13 3c-8.66699 -0.666992 -22.334 -1.66699 -41.001 -3c1.33301 0 -36.334 0 -113.001 0c14 -24.667 21 -53.667 21 -87c0 -21.333 -2.66699 -42.666 -8 -63.999l-13 -42h-162c4 12.667 7 28.334 9 47.001
c1.33301 20 -7 52.5 -25 97.5s-26.667 76.833 -26 95.5c-0.666992 10.667 -0.666992 23.334 0 38.001l15 56c4 -4 12.667 -5.33301 26 -4c23.333 2.66699 34.666 4 33.999 4h109c-15.333 19.333 -23 51 -23 95c0 10.667 1 19.667 3 27l19 71h163
c-1.33301 -4.66699 -4 -20.667 -8 -48c-2 -20 5.33301 -51 22 -93c18.667 -46 28 -82 28 -108c0.666992 -18.667 1 -27.334 1 -26.001zM282.003 174.998l8 28c1.33301 4 2 9 2 15c0 20.667 -10 52 -30 94l-7 -27c-1.33301 -4 -2 -8.33301 -2 -13
c0 -28.667 9.66699 -61 29 -97z" />
    <glyph glyph-name="dieresis" unicode="&#xa8;" horiz-adv-x="288" 
d="M471 563c-27.333 -2.66699 -54.334 -2.66699 -81.001 0c10.667 32 18.334 57 23.001 75c14 0 40.333 1 79 3c-2 -21.333 -9 -47.333 -21 -78zM347.999 605c-6 -22.667 -10.833 -35.333 -14.5 -38s-17.5 -4 -41.5 -4h-17.5h-21.5c7.33301 22 15 47 23 75h81z" />
    <glyph glyph-name="copyright" unicode="&#xa9;" horiz-adv-x="599" 
d="M605 243c-20.667 -74.667 -64.001 -137.668 -130.001 -189.001s-135 -77 -207 -77c-61.333 0 -110.166 18.333 -146.499 55s-54.5 83.334 -54.5 140.001c0 23.333 3.33301 47 10 71c20 74 62.333 136.5 127 187.5s133.334 76.5 206.001 76.5
c61.333 0 110.666 -18.667 147.999 -56s56 -84.333 56 -141c0 -22 -3 -44.333 -9 -67zM536.999 187.999c4 14.667 6 28.6689 6 42.002c0 35.333 -12.167 64.166 -36.5 86.499s-55.5 33.5 -93.5 33.5c-46.667 0 -90 -15.833 -130 -47.5s-66 -69.834 -78 -114.501
c-4 -14 -6 -27.667 -6 -41c0 -35.333 11.333 -64.333 34 -87c23.333 -24.667 54 -37 92 -37c45.333 0 89 16 131 48s69 71 81 117zM455.999 214.001c-5.33301 -14 -13.668 -34.665 -25.001 -61.998c-8.66699 0 -17.667 -0.333008 -27 -1c-15.333 -2 -24.333 -8 -27 -18
c-4 -14 8.66699 -23.667 38 -29c0 -3.33301 -2.66699 -16.333 -8 -39c-2 4 -6.33301 5.33301 -13 4s-13 -2.5 -19 -3.5s-14 -1.5 -24 -1.5c-27.333 0 -49.666 6 -66.999 18c-20 13.333 -30 32.666 -30 57.999c0 9.33301 1.33301 19.666 4 30.999
c11.333 40.667 36 72.667 74 96c32 20 67 30 105 30h42z" />
    <glyph glyph-name="ordfeminine" unicode="&#xaa;" horiz-adv-x="297" 
d="M340 357c-38.667 -32 -73.001 -56.667 -103.001 -74c2 39.333 -1.33301 73.333 -10 102c-26 -19.333 -55.333 -53 -88 -101c-17.333 14.667 -33.666 39 -48.999 73c68.667 71.333 135.667 131 201 179c22.667 -46 39 -105.667 49 -179zM223.999 304l-44.999 -8.99902
c1.33301 5.33301 2.66602 18.666 3.99902 39.999l43 12c0 -16.667 -0.666992 -31 -2 -43z" />
    <glyph glyph-name="guillemotleft" unicode="&#xab;" horiz-adv-x="479" 
d="M440 97c-26.667 -14 -62.998 -31.666 -108.998 -52.999c-8.66699 28 -17.334 52.333 -26.001 73c-4.66699 10.667 -15.334 30 -32.001 58c-14 24 -20.667 37 -20 39c2 8.66699 31.333 40 88 94c48 45.333 81.333 75.666 100 90.999c18 -14 36.667 -36.667 56 -68
c-40 -34 -77.333 -68 -112 -102c30 -54 48.333 -98 55 -132zM325.002 343.001c0 -0.666992 -19.6689 -17.833 -59.002 -51.5s-59.666 -53.5 -60.999 -59.5c-0.666992 -2 2 -8 8 -18c8 -12.667 12.667 -21 14 -25c7.33301 -18 18 -48.667 32 -92
c-33.333 -22 -67.333 -41.667 -102 -59c-3.33301 26 -14.666 58.333 -33.999 97c-4.66699 8.66699 -16 25.667 -34 51c-14.667 21.333 -21.667 33.333 -21 36c0.666992 2 11.667 14.667 33 38s38.333 41.333 51 54c26 24.667 67 57 123 97c35.333 -37.333 52 -60 50 -68z
" />
    <glyph glyph-name="logicalnot" unicode="&#xac;" horiz-adv-x="416" 
d="M349 -2h-106l32 122h-219c-2 12 0.333008 27.667 7 47l18 48c24 4.66699 44.667 7 62 7h206c4 0 10.167 -1.16699 18.5 -3.5s14.833 -3.5 19.5 -3.5c7.33301 0 14.333 2 21 6z" />
    <glyph glyph-name="minus" unicode="&#xad;" horiz-adv-x="447" 
d="M420 169l-200 15h-159l33 122h362z" />
    <glyph glyph-name="registered" unicode="&#xae;" horiz-adv-x="593" 
d="M604 240c-20 -73.333 -62.333 -135.5 -127 -186.5s-134 -76.5 -208 -76.5c-60.667 0 -109.667 18 -147 54s-56 82.333 -56 139c0 22.667 3.33301 46 10 70c19.333 73.333 61.5 136.166 126.5 188.499s134.5 78.5 208.5 78.5c60.667 0 109.5 -18.667 146.5 -56
s55.5 -84.666 55.5 -141.999c0 -22.667 -3 -45.667 -9 -69zM536 185c4 14 6 27.666 6 40.999c0 35.333 -11.5 64.833 -34.5 88.5s-54.167 35.5 -93.5 35.5c-41.333 0 -83 -16 -125 -48c-44.667 -32.667 -73 -71 -85 -115c-3.33301 -13.333 -5 -26.666 -5 -39.999
c0 -34.667 11.667 -64 35 -88s54.333 -36 93 -36c42 0 83.667 15 125 45c44 31.333 72 70.333 84 117zM457 105.999l-84 -44.999l-20 44c-4 -6 -7 -14.667 -9 -26h-83l22 86c6.66699 24.667 12.334 43.667 17.001 57c9.33301 28.667 20 54.667 32 78h56
c14.667 0 32.167 -5.33301 52.5 -16s32.5 -22 36.5 -34c4.66699 -14.667 5 -29.334 1 -44.001s-11.167 -28.5 -21.5 -41.5s-15.5 -19.833 -15.5 -20.5c-0.666992 -2 4.66602 -14.667 15.999 -38zM385 153c0.666992 2.66699 0.666992 5 0 7
c-0.666992 1.33301 -1 2.33301 -1 3h-13l-10 -26c13.333 0.666992 21.333 6 24 16z" />
    <glyph glyph-name="macron" unicode="&#xaf;" horiz-adv-x="362" 
d="M432 479l-165 11h-92c0.666992 0 11.667 40.667 33 122h260z" />
    <glyph glyph-name="degree" unicode="&#xb0;" horiz-adv-x="334" 
d="M375 366c-9.33301 -35.333 -30.334 -65.8311 -63.001 -91.498s-66.667 -38.5 -102 -38.5c-29.333 0 -52.666 8.83301 -69.999 26.5s-26 40.5 -26 68.5c0 37.333 17 73.666 51 108.999s72 53 114 53c29.333 0 53.333 -8.83301 72 -26.5s28 -40.5 28 -68.5
c0 -10.667 -1.33301 -21.334 -4 -32.001zM298.999 336.002c0 18.667 -8.66699 28 -26 28c-11.333 0 -21.833 -4.83301 -31.5 -14.5s-14.5 -19.5 -14.5 -29.5c0 -18.667 8.66699 -28 26 -28c9.33301 0 19.333 4.16699 30 12.5s16 18.833 16 31.5z" />
    <glyph glyph-name="plusminus" unicode="&#xb1;" horiz-adv-x="413" 
d="M408 193l-121.002 -0.00195312l-26 -99c-8 -1.33301 -42 -1.66602 -102 -0.999023l26 94c-0.666992 3.33301 -1.66699 5 -3 5c-2.66699 -0.666992 -16.667 -2 -42 -4c-22.667 -0.666992 -36.667 -1 -42 -1h-33c4.66699 20.667 13.334 52.334 26.001 95.001
c36 4.66699 75.333 6.66699 118 6c2.66699 2 13.334 42.333 32.001 121h102l-31 -118h123zM374.998 61.998l-24 -90h-343c4 18.667 12 48.667 24 90h343z" />
    <glyph glyph-name="twosuperior" unicode="&#xb2;" horiz-adv-x="214" 
d="M167 367c1.33301 -2.66699 5.33398 -4 12.001 -4c-0.666992 -6 -8 -34.333 -22 -85l-73 -3c-20 0 -49.333 2 -88 6l56 52c37.333 35.333 57 57 59 65c2 7.33301 0 11 -6 11c-2 0 -5.33301 -1.66699 -10 -5l-50 23c19.333 48.667 52.666 73 99.999 73
c18 0 33.833 -4.83301 47.5 -14.5s20.5 -23.167 20.5 -40.5c0 -26 -15.333 -52 -46 -78z" />
    <glyph glyph-name="threesuperior" unicode="&#xb3;" horiz-adv-x="199" 
d="M177 380c-12 -43.333 -55.667 -87.333 -131 -132c-20.667 16 -37 34 -49 54c54.667 24.667 86.334 52.667 95.001 84c4 14 -0.333008 21 -13 21c-4 0 -7 -0.333008 -9 -1c1.33301 2 3.66602 4.83301 6.99902 8.5s6 6.16699 8 7.5c-7.33301 1.33301 -15.333 1.33301 -24 0
l11 43c3.33301 6 8 15.667 14 29c52.667 2 92.334 1.66699 119.001 -1c-12 -22 -26.333 -42.333 -43 -61c-0.666992 -1.33301 -0.333984 -2.33301 0.999023 -3c16 -8.66699 20.667 -25 14 -49z" />
    <glyph glyph-name="acute" unicode="&#xb4;" horiz-adv-x="270" 
d="M451 563c-12 -4.66699 -28.334 -10.333 -49.001 -17c-68 -16.667 -111.333 -24.667 -130 -24h-15l18 66l97 25c29.333 8.66699 58 19 86 31c-1.33301 -7.33301 -3.66602 -34.333 -6.99902 -81z" />
    <glyph glyph-name="mu" unicode="&#xb5;" horiz-adv-x="467" 
d="M481 337l-96.002 -346c-37.333 -2.66699 -75 -2.33398 -113 0.999023c4 11.333 4.33301 17 1 17c-2 0 -6.16699 -1.83301 -12.5 -5.5s-10.166 -5.5 -11.499 -5.5c-24 -6 -40 -9 -48 -9c-11.333 -36 -18.333 -73 -21 -111c-64 -10 -122.333 -10.333 -175 -1l36 200l32 128
c14.667 56 38.667 123.667 72 203c74.667 4.66699 132.334 3.66699 173.001 -3c0 -2 -5.16699 -17.667 -15.5 -47s-15.5 -51.333 -15.5 -66c0 -18 7.33301 -27 22 -27c19.333 0 35.666 20 48.999 60c6 24.667 11.667 49.334 17 74.001c22 4 40.667 6 56 6c12 0 32 -2 60 -6
c-3.33301 -14 -6.66602 -34.667 -9.99902 -62z" />
    <glyph glyph-name="paragraph" unicode="&#xb6;" horiz-adv-x="528" 
d="M469 76c-14 -52.667 -23.3311 -86.3301 -27.998 -100.997c-8.66699 -28.667 -27 -79.334 -55 -152.001c-16 -3.33301 -44.667 -6.33301 -86 -9l4 15c8.66699 20.667 21 54 37 100l51 173l44 176c1.33301 10 6 34 14 72c6.66699 34 10 58.333 10 73
c0 5.33301 -0.333008 10.333 -1 15h-39c-5.33301 -34 -14 -84.333 -26 -151c-12 -60.667 -26.333 -122 -43 -184c-26.667 -100.667 -59.334 -197 -98.001 -289h-45c-1.33301 0 -6.33301 0.333008 -15 1s-15 1 -19 1l-5 -2l79 218c3.33301 14 3.66602 22.333 0.999023 25
c-54 7.33301 -96 25.666 -126 54.999s-45 66 -45 110c0 17.333 2.33301 35 7 53c22 81.333 78 140.666 168 177.999c64 26.667 135 40 213 40l84 -4c1.33301 -16 -2.66699 -50 -12 -102l-24 -132zM270.002 117.004l22 83.999c-9.33301 0 -19 -5.66699 -29 -17
c-6.66699 -9.33301 -11 -17.666 -13 -24.999c-6 -20.667 0.666992 -34.667 20 -42z" />
    <glyph glyph-name="cedilla" unicode="&#xb8;" horiz-adv-x="210" 
d="M204 -108c-7.33301 -27.333 -25.3359 -47.332 -54.0029 -59.999c-20.667 -8.66699 -42.667 -13 -66 -13c-1.33301 0 -7.66602 0.666992 -18.999 2s-19.666 2 -24.999 2c4 12.667 6 23 6 31c2.66699 -2 8 -3 16 -3c14 0 27.167 4.5 39.5 13.5s18.5 19.5 18.5 31.5
c0 15.333 -11.333 25.666 -34 30.999c-16.667 4.66699 -31 6 -43 4l32 54c27.333 -2.66699 48.333 -2.66699 63 0c-6.66699 -11.333 -11 -21 -13 -29c18 0 32.667 -1 44 -3v0c32.667 -6.66699 44.334 -27 35.001 -61z" />
    <glyph glyph-name="onesuperior" unicode="&#xb9;" horiz-adv-x="200" 
d="M190 493c-16.667 -43.333 -26.999 -72.334 -30.999 -87.001l-27 -105c-0.666992 -3.33301 -2.66699 -14 -6 -32c-21.333 -2 -36.333 -3 -45 -3l-45 2c2 12.667 4.33301 26.667 7 42l15 59l11 32l5 18h-17c26.667 42.667 42.167 65.834 46.5 69.501s18.166 5.5 41.499 5.5
z" />
    <glyph glyph-name="ordmasculine" unicode="&#xba;" horiz-adv-x="294" 
d="M201 283c-26.667 0 -48.666 8.66797 -65.999 26.001s-26 38.666 -26 63.999c0 34.667 16.667 67.667 50 99s68.333 47 105 47c28 0 49.833 -8.83301 65.5 -26.5s23.5 -39.167 23.5 -64.5c0 -36.667 -18 -70.667 -54 -102c-32.667 -28.667 -65.334 -43 -98.001 -43z
M277.001 360.001c2 6 1.16699 11.167 -2.5 15.5s-8.5 6.5 -14.5 6.5c-16 0 -25.667 -7.33301 -29 -22c-2 -6 -1.16699 -11.167 2.5 -15.5s8.5 -6.5 14.5 -6.5c15.333 0 25 7.33301 29 22z" />
    <glyph glyph-name="guillemotright" unicode="&#xbb;" horiz-adv-x="467" 
d="M477 223l-57.002 -50.001c-10.667 -10 -49 -49.333 -115 -118c-21.333 9.33301 -47.666 25.333 -78.999 48c39.333 37.333 79 77.333 119 120c1.33301 3.33301 -6.16699 22.333 -22.5 57s-29.166 59.334 -38.499 74.001c18.667 14 53 34 103 60
c9.33301 -12.667 26.333 -42.667 51 -90c29.333 -55.333 42.333 -89 39 -101zM292.998 222.999l-47.001 -44.998c-31.333 -30.667 -71.666 -74.334 -120.999 -131.001c-32 18 -57.333 33.667 -76 47l119 129c-21.333 36.667 -47 71.667 -77 105
c44 29.333 78.333 50.333 103 63c18.667 -18.667 34.667 -38.334 48 -59.001c10.667 -17.333 22 -39 34 -65s17.667 -40.667 17 -44z" />
    <glyph glyph-name="onequarter" unicode="&#xbc;" horiz-adv-x="521" 
d="M181 494c-17.333 -44.667 -27.999 -73.999 -31.999 -87.999l-27 -108c-1.33301 -3.33301 -3.33301 -14 -6 -32c-21.333 -2 -36.666 -3 -45.999 -3l-45 2c2 13.333 4.33301 27.666 7 42.999l16 60l11 32l4 18h-17c27.333 44 43.166 67.833 47.499 71.5
s18.166 5.5 41.499 5.5zM617.001 533.001l-157 -153l-87 -88l-275 -286c-4.66699 -4 -24 -6 -58 -6c-21.333 0 -39.333 1.33301 -54 4c236.667 254 410 431.333 520 532c34 0.666992 71 -0.333008 111 -3zM486.001 49.001l-44.001 -0.000976562l-13 -49h-93
c2.66699 12 7.33398 30 14.001 54h-64l112 170c-2 0 13.667 0 47 0c16.667 0 33 -1.33301 49 -4l-24 -89c6.66699 -1.33301 19 -2.66602 37 -3.99902zM430 101l9 35l-29 -35h20z" />
    <glyph glyph-name="onehalf" unicode="&#xbd;" horiz-adv-x="533" 
d="M185 497c-17.333 -44 -28 -73.333 -32 -88l-28 -108c-1.33301 -3.33301 -3.33301 -14 -6 -32c-22 -2 -37.667 -3 -47 -3l-46 1c2 13.333 4.33301 28 7 44l16 60l11 32l5 19h-18c28 43.333 44.167 67 48.5 71s18.833 6 43.5 6zM608 523l-157 -153.002l-88 -87
c-59.333 -65.333 -151 -160.666 -275 -285.999c-4 -4 -23 -6 -57 -6c-22 0 -40 1 -54 3c236.667 254 409.667 431.667 519 533c34.667 0.666992 72 -0.666016 112 -3.99902zM473 90.998c0.666992 -2 4.66895 -3 12.002 -3c-1.33301 -6.66699 -9 -37 -23 -91l-74 -3
c-20.667 0 -50.334 2 -89.001 6l57 55c38 38 58 61.333 60 70c2 8 0 12 -6 12c-2.66699 0 -6.33398 -2 -11.001 -6c-7.33301 3.33301 -24 11.333 -50 24c19.333 52 53.333 78 102 78c18 0 34 -5.16699 48 -15.5s21 -24.5 21 -42.5c0 -28 -15.667 -56 -47 -84z" />
    <glyph glyph-name="threequarters" unicode="&#xbe;" horiz-adv-x="570" 
d="M645 520l-157.001 -153.002l-88 -87c-59.333 -65.333 -150.666 -160.666 -273.999 -285.999c-4.66699 -4 -24 -6 -58 -6c-21.333 0 -39.333 1 -54 3c236.667 254 409.667 431.667 519 533c34.667 0.666992 72 -0.666016 112 -3.99902zM529.999 44.998h-45l-13 -49h-96
l15 55h-65l114 173c-2 0 14 0 48 0c17.333 0 34 -1.33301 50 -4l-25 -91c7.33301 -0.666992 20 -2 38 -4zM472.999 97.998l9 37l-30 -37h21zM196.999 383.998c-12.667 -44 -59 -88.667 -139 -134c-21.333 16 -38.666 34.667 -51.999 56c58.667 24.667 92.667 53 102 85
c4 14.667 -0.666992 22 -14 22c-4.66699 0 -8 -0.333008 -10 -1c2 1.33301 4.66699 3.83301 8 7.5s6 6.5 8 8.5c-8 1.33301 -16.667 1.33301 -26 0l12 43l15 30c55.333 2 97 1.66699 125 -1c-12 -22 -27 -43 -45 -63c-0.666992 -0.666992 -0.333984 -1.66699 0.999023 -3
c17.333 -8 22.333 -24.667 15 -50z" />
    <glyph glyph-name="questiondown" unicode="&#xbf;" horiz-adv-x="427" 
d="M435 450c-71.333 -28 -113.333 -42 -126 -42h-13l-7 93l133 44c4.66699 -20 9 -51.667 13 -95zM391 35c-56 -27.333 -108.001 -40.999 -156.001 -40.999c-50.667 0 -92 13.667 -124 41s-48 64 -48 110c0 18 2.66699 36.667 8 56c28 103.333 101.333 168.666 220 195.999
c23.333 5.33301 38 8 44 8h47l-18 -67c-2.66699 2 -9 3 -19 3c-33.333 0 -53 -12 -59 -36c-1.33301 -3.33301 -2 -6.33301 -2 -9c0 -14.667 9.33301 -22 28 -22c5.33301 0 14.833 2.16699 28.5 6.5s22.834 7.83301 27.501 10.5c18 -39.333 27 -98.333 27 -177
c0 -28 -1.33301 -54.333 -4 -79z" />
    <glyph glyph-name="Agrave" unicode="&#xc0;" horiz-adv-x="586" 
d="M571 138c-2.66699 -7.33301 -28.999 -30 -78.999 -68c-44 -33.333 -73.667 -54.333 -89 -63l-60 -36c0.666992 18 1 35.333 1 52c0 60 -7 118.333 -21 175c-75.333 -65.333 -141 -140 -197 -224c-12 8 -24.667 20 -38 36c-8.66699 10 -22.334 31 -41.001 63
c-20.667 34.667 -30.334 54.667 -29.001 60c2.66699 9.33301 43.667 52.333 123 129c92.667 89.333 198.667 179 318 269c20 -35.333 37 -72.666 51 -111.999c12 -32.667 23.667 -73.334 35 -122.001c20.667 -92.667 29.334 -145.667 26.001 -159zM314.001 18
c-20.667 -5.33301 -54.333 -12.332 -101 -20.999c6.66699 33.333 9.66699 63.333 9 90c28.667 4.66699 60.667 13.667 96 27c4 -38.667 4.33301 -63.334 1 -74.001zM513.002 561.001h-16c-17.333 0 -47.333 6.33301 -90 19c-37.333 10.667 -59.333 18.334 -66 23.001
c14.667 30 27 56.667 37 80c36 -22.667 87 -40.334 153 -53.001z" />
    <glyph glyph-name="Aacute" unicode="&#xc1;" horiz-adv-x="586" 
d="M571 138c-2.66699 -7.33301 -28.999 -30 -78.999 -68c-44 -33.333 -73.667 -54.333 -89 -63l-60 -36c0.666992 18 1 35.333 1 52c0 60 -7 118.333 -21 175c-75.333 -65.333 -141 -140 -197 -224c-12 8 -24.667 20 -38 36c-8.66699 10 -22.334 31 -41.001 63
c-20.667 34.667 -30.334 54.667 -29.001 60c2.66699 9.33301 43.667 52.333 123 129c92.667 89.333 198.667 179 318 269c20 -35.333 37 -72.666 51 -111.999c12 -32.667 23.667 -73.334 35 -122.001c20.667 -92.667 29.334 -145.667 26.001 -159zM314.001 18
c-20.667 -5.33301 -54.333 -12.332 -101 -20.999c6.66699 33.333 9.66699 63.333 9 90c28.667 4.66699 60.667 13.667 96 27c4 -38.667 4.33301 -63.334 1 -74.001zM558.002 595.001c-12 -4.66699 -28.334 -10.333 -49.001 -17c-68 -16.667 -111.333 -24.667 -130 -24h-15
l18 66l97 25c29.333 8.66699 58 19 86 31c-1.33301 -7.33301 -3.66602 -34.333 -6.99902 -81z" />
    <glyph glyph-name="Acircumflex" unicode="&#xc2;" horiz-adv-x="586" 
d="M571 138c-2.66699 -7.33301 -28.999 -30 -78.999 -68c-44 -33.333 -73.667 -54.333 -89 -63l-60 -36c0.666992 18 1 35.333 1 52c0 60 -7 118.333 -21 175c-75.333 -65.333 -141 -140 -197 -224c-12 8 -24.667 20 -38 36c-8.66699 10 -22.334 31 -41.001 63
c-20.667 34.667 -30.334 54.667 -29.001 60c2.66699 9.33301 43.667 52.333 123 129c92.667 89.333 198.667 179 318 269c20 -35.333 37 -72.666 51 -111.999c12 -32.667 23.667 -73.334 35 -122.001c20.667 -92.667 29.334 -145.667 26.001 -159zM314.001 18
c-20.667 -5.33301 -54.333 -12.332 -101 -20.999c6.66699 33.333 9.66699 63.333 9 90c28.667 4.66699 60.667 13.667 96 27c4 -38.667 4.33301 -63.334 1 -74.001zM574.002 605.001c-16.667 -29.333 -31.665 -51.332 -44.998 -65.999c-6 4 -17.667 15.333 -35 34
c-14.667 16 -23.334 24 -26.001 24c-3.33301 0 -14.333 -6.66699 -33 -20s-32.667 -24.333 -42 -33c-6.66699 5.33301 -13.5 14.166 -20.5 26.499s-10.167 22.833 -9.5 31.5c36.667 22.667 83.334 49 140.001 79c15.333 -20 26.666 -34.333 33.999 -43
c13.333 -15.333 25.666 -26.333 36.999 -33z" />
    <glyph glyph-name="Atilde" unicode="&#xc3;" horiz-adv-x="586" 
d="M571 138c-2.66699 -7.33301 -28.999 -30 -78.999 -68c-44 -33.333 -73.667 -54.333 -89 -63l-60 -36c0.666992 18 1 35.333 1 52c0 60 -7 118.333 -21 175c-75.333 -65.333 -141 -140 -197 -224c-12 8 -24.667 20 -38 36c-8.66699 10 -22.334 31 -41.001 63
c-20.667 34.667 -30.334 54.667 -29.001 60c2.66699 9.33301 43.667 52.333 123 129c92.667 89.333 198.667 179 318 269c20 -35.333 37 -72.666 51 -111.999c12 -32.667 23.667 -73.334 35 -122.001c20.667 -92.667 29.334 -145.667 26.001 -159zM314.001 18
c-20.667 -5.33301 -54.333 -12.332 -101 -20.999c6.66699 33.333 9.66699 63.333 9 90c28.667 4.66699 60.667 13.667 96 27c4 -38.667 4.33301 -63.334 1 -74.001zM570.002 604.001c-8.66699 -32 -28.333 -47.999 -59 -47.999c-2.66699 0 -16.334 3.83301 -41.001 11.5
s-38 11.5 -40 11.5c-12 0 -32.667 -8.66699 -62 -26c1.33301 7.33301 3.33301 34.333 6 81c26.667 10 49.667 15 69 15c2 0 13.167 -3 33.5 -9s31.833 -9 34.5 -9c27.333 0 49.333 8 66 24c-1.33301 -4.66699 -2.66602 -13.834 -3.99902 -27.501s-2.33301 -21.5 -3 -23.5z
" />
    <glyph glyph-name="Adieresis" unicode="&#xc4;" horiz-adv-x="586" 
d="M571 138c-2.66699 -7.33301 -28.999 -30 -78.999 -68c-44 -33.333 -73.667 -54.333 -89 -63l-60 -36c0.666992 18 1 35.333 1 52c0 60 -7 118.333 -21 175c-75.333 -65.333 -141 -140 -197 -224c-12 8 -24.667 20 -38 36c-8.66699 10 -22.334 31 -41.001 63
c-20.667 34.667 -30.334 54.667 -29.001 60c2.66699 9.33301 43.667 52.333 123 129c92.667 89.333 198.667 179 318 269c20 -35.333 37 -72.666 51 -111.999c12 -32.667 23.667 -73.334 35 -122.001c20.667 -92.667 29.334 -145.667 26.001 -159zM314.001 18
c-20.667 -5.33301 -54.333 -12.332 -101 -20.999c6.66699 33.333 9.66699 63.333 9 90c28.667 4.66699 60.667 13.667 96 27c4 -38.667 4.33301 -63.334 1 -74.001zM574.002 563.001c-27.333 -2.66699 -54.334 -2.66699 -81.001 0c10.667 32 18.334 57 23.001 75
c14 0 40.333 1 79 3c-2 -21.333 -9 -47.333 -21 -78zM451.001 605.001c-6 -22.667 -10.833 -35.333 -14.5 -38s-17.5 -4 -41.5 -4h-17.5h-21.5c7.33301 22 15 47 23 75h81z" />
    <glyph glyph-name="Aring" unicode="&#xc5;" horiz-adv-x="586" 
d="M571 138c-2.66699 -7.33301 -28.999 -30 -78.999 -68c-44 -33.333 -73.667 -54.333 -89 -63l-60 -36c0.666992 18 1 35.333 1 52c0 60 -7 118.333 -21 175c-75.333 -65.333 -141 -140 -197 -224c-12 8 -24.667 20 -38 36c-8.66699 10 -22.334 31 -41.001 63
c-20.667 34.667 -30.334 54.667 -29.001 60c2.66699 9.33301 43.667 52.333 123 129c92.667 89.333 198.667 179 318 269c20 -35.333 37 -72.666 51 -111.999c12 -32.667 23.667 -73.334 35 -122.001c20.667 -92.667 29.334 -145.667 26.001 -159zM314.001 18
c-20.667 -5.33301 -54.333 -12.332 -101 -20.999c6.66699 33.333 9.66699 63.333 9 90c28.667 4.66699 60.667 13.667 96 27c4 -38.667 4.33301 -63.334 1 -74.001zM546.002 624.001c-6 -20.667 -17.833 -36.5 -35.5 -47.5s-35.5 -16.5 -53.5 -16.5c-30.667 0 -46 14 -46 42
c0 21.333 9.5 40.5 28.5 57.5s38.5 25.5 58.5 25.5c33.333 0 50 -15.333 50 -46c0 -4.66699 -0.666992 -9.66699 -2 -15zM511.002 625.001c4 14.667 -1.33301 22 -16 22s-24 -7.66699 -28 -23c-4 -14 1 -21 15 -21c15.333 0 25 7.33301 29 22z" />
    <glyph glyph-name="AE" unicode="&#xc6;" horiz-adv-x="761" 
d="M732 240c-38 -16.667 -78.333 -31.333 -121 -44h-10c2 18 1.33301 37.667 -2 59c21.333 15.333 63 31.333 125 48c6 -4.66699 8.66699 -25.667 8 -63zM802 447.001l-40.001 -125l5 -4h-162l-37 -139l1 -3c76.667 -2 127.334 -0.666992 152.001 4
c-17.333 -60 -30.333 -119.667 -39 -179c-32 -6.66699 -87 -10 -165 -10c-62.667 0 -120.334 2.33301 -173.001 7c-0.666992 0.666992 -2 2.66699 -4 6l31 161l26 106c-102 -88 -193 -178.333 -273 -271c-40.667 25.333 -81.667 62.666 -123 111.999
c64.667 66.667 136.334 131.667 215.001 195c92 74.667 175.667 132.334 251 173.001c5.33301 2.66699 36.333 4 93 4l248 -15zM321.999 50.001c-13.333 -4.66699 -25.001 -6.66699 -35.001 -6h-59l21 78c18.667 4 32.334 6 41.001 6h53c-8 -20.667 -15 -46.667 -21 -78z
" />
    <glyph glyph-name="Ccedilla" unicode="&#xc7;" horiz-adv-x="491" 
d="M506 310c-5.33301 -18.667 -25.668 -68.333 -61.001 -149c-17.333 3.33301 -32.333 5 -45 5c-36.667 0 -58.667 -13.667 -66 -41c-1.33301 -4 -2 -7.66699 -2 -11c0 -18 12 -31 36 -39c15.333 -5.33301 31.666 -8 48.999 -8c0.666992 -6 0.333984 -14 -0.999023 -24
l-13 -51c-41.333 -10 -82.666 -15 -123.999 -15c-62 0 -112.667 13 -152 39c-44 29.333 -66 71.666 -66 126.999c0 58.667 20.333 117.334 61 176.001c48.667 70 115.334 120.667 200.001 152c39.333 14.667 87.333 22 144 22c41.333 0 69.666 -4.33301 84.999 -13z
M349.998 -104.999c-7.33301 -27.333 -25.3359 -47.332 -54.0029 -59.999c-20.667 -8.66699 -42.667 -13 -66 -13c-1.33301 0 -7.66602 0.666992 -18.999 2s-19.666 2 -24.999 2c4 12.667 6 23 6 31c2.66699 -2 8 -3 16 -3c14 0 27.167 4.5 39.5 13.5s18.5 19.5 18.5 31.5
c0 15.333 -11.333 25.666 -34 30.999c-16.667 4.66699 -31 6 -43 4l32 54c27.333 -2.66699 48.333 -2.66699 63 0c-6.66699 -11.333 -11 -21 -13 -29c18 0 32.667 -1 44 -3v0c32.667 -6.66699 44.334 -27 35.001 -61z" />
    <glyph glyph-name="Egrave" unicode="&#xc8;" horiz-adv-x="463" 
d="M440 240c-46 -18.667 -90 -35.333 -132 -50c-1.33301 14 -3.33301 36.667 -6 68c14.667 11.333 59 29.333 133 54c4 -32.667 5.66699 -56.667 5 -72zM388 3.00098c-39.333 -6 -95 -9 -167 -9c-34 0 -63 0.666992 -87 2c-26.667 1.33301 -55 4 -85 8
c4 60.667 20.667 146.334 50 257.001c12 43.333 19.667 70 23 80c6.66699 19.333 24.667 65.666 54 138.999c23.333 6.66699 69 10 137 10c57.333 0 124.666 -4 201.999 -12l-50 -157h-153l-39 -145l1 -3c29.333 -2 66.666 -1.66699 111.999 1
c2.66699 0 7.33398 0.666992 14.001 2s11.334 2 14.001 2h12l-26 -98zM436 530.001h-16c-17.333 0 -47.333 6.33301 -90 19c-37.333 10.667 -59.333 18.334 -66 23.001c14.667 30 27 56.667 37 80c36 -22.667 87 -40.334 153 -53.001z" />
    <glyph glyph-name="Eacute" unicode="&#xc9;" horiz-adv-x="460" 
d="M440 240c-46 -18.667 -90 -35.333 -132 -50c-1.33301 14 -3.33301 36.667 -6 68c14.667 11.333 59 29.333 133 54c4 -32.667 5.66699 -56.667 5 -72zM388 3.00098c-39.333 -6 -95 -9 -167 -9c-34 0 -63 0.666992 -87 2c-26.667 1.33301 -55 4 -85 8
c4 60.667 20.667 146.334 50 257.001c12 43.333 19.667 70 23 80c6.66699 19.333 24.667 65.666 54 138.999c23.333 6.66699 69 10 137 10c57.333 0 124.666 -4 201.999 -12l-50 -157h-153l-39 -145l1 -3c29.333 -2 66.666 -1.66699 111.999 1
c2.66699 0 7.33398 0.666992 14.001 2s11.334 2 14.001 2h12l-26 -98zM476 586.001c-12 -4.66699 -28.334 -10.333 -49.001 -17c-68 -16.667 -111.333 -24.667 -130 -24h-15l18 66l97 25c29.333 8.66699 58 19 86 31c-1.33301 -7.33301 -3.66602 -34.333 -6.99902 -81z" />
    <glyph glyph-name="Ecircumflex" unicode="&#xca;" horiz-adv-x="463" 
d="M440 240c-46 -18.667 -90 -35.333 -132 -50c-1.33301 14 -3.33301 36.667 -6 68c14.667 11.333 59 29.333 133 54c4 -32.667 5.66699 -56.667 5 -72zM388 3.00098c-39.333 -6 -95 -9 -167 -9c-34 0 -63 0.666992 -87 2c-26.667 1.33301 -55 4 -85 8
c4 60.667 20.667 146.334 50 257.001c12 43.333 19.667 70 23 80c6.66699 19.333 24.667 65.666 54 138.999c23.333 6.66699 69 10 137 10c57.333 0 124.666 -4 201.999 -12l-50 -157h-153l-39 -145l1 -3c29.333 -2 66.666 -1.66699 111.999 1
c2.66699 0 7.33398 0.666992 14.001 2s11.334 2 14.001 2h12l-26 -98zM499 577.001c-16.667 -29.333 -31.665 -51.332 -44.998 -65.999c-6 4 -17.667 15.333 -35 34c-14.667 16 -23.334 24 -26.001 24c-3.33301 0 -14.333 -6.66699 -33 -20s-32.667 -24.333 -42 -33
c-6.66699 5.33301 -13.5 14.166 -20.5 26.499s-10.167 22.833 -9.5 31.5c36.667 22.667 83.334 49 140.001 79c15.333 -20 26.666 -34.333 33.999 -43c13.333 -15.333 25.666 -26.333 36.999 -33z" />
    <glyph glyph-name="Edieresis" unicode="&#xcb;" horiz-adv-x="460" 
d="M440 240c-46 -18.667 -90 -35.333 -132 -50c-1.33301 14 -3.33301 36.667 -6 68c14.667 11.333 59 29.333 133 54c4 -32.667 5.66699 -56.667 5 -72zM388 3.00098c-39.333 -6 -95 -9 -167 -9c-34 0 -63 0.666992 -87 2c-26.667 1.33301 -55 4 -85 8
c4 60.667 20.667 146.334 50 257.001c12 43.333 19.667 70 23 80c6.66699 19.333 24.667 65.666 54 138.999c23.333 6.66699 69 10 137 10c57.333 0 124.666 -4 201.999 -12l-50 -157h-153l-39 -145l1 -3c29.333 -2 66.666 -1.66699 111.999 1
c2.66699 0 7.33398 0.666992 14.001 2s11.334 2 14.001 2h12l-26 -98zM477 541.001c-27.333 -2.66699 -54.334 -2.66699 -81.001 0c10.667 32 18.334 57 23.001 75c14 0 40.333 1 79 3c-2 -21.333 -9 -47.333 -21 -78zM353.999 583.001
c-6 -22.667 -10.833 -35.333 -14.5 -38s-17.5 -4 -41.5 -4h-17.5h-21.5c7.33301 22 15 47 23 75h81z" />
    <glyph glyph-name="Igrave" unicode="&#xcc;" horiz-adv-x="322" 
d="M382 480c-34 -68.667 -65.999 -159.332 -95.999 -271.999c-8 -30 -13.333 -52 -16 -66c-6 -42.667 -12.667 -87.334 -20 -134.001l-3 -12c-99.333 -6 -165.333 -5.33301 -198 2c8.66699 76.667 23 151.667 43 225c25.333 95.333 56.666 183 93.999 263
c12.667 2.66699 37.667 4 75 4c38.667 0 79 -3.33301 121 -10zM389.001 534.002h-16c-17.333 0 -47.333 6.33301 -90 19c-37.333 10.667 -59.333 18.334 -66 23.001c14.667 30 27 56.667 37 80c36 -22.667 87 -40.334 153 -53.001z" />
    <glyph glyph-name="Iacute" unicode="&#xcd;" horiz-adv-x="322" 
d="M382 480c-34 -68.667 -65.999 -159.332 -95.999 -271.999c-8 -30 -13.333 -52 -16 -66c-6 -42.667 -12.667 -87.334 -20 -134.001l-3 -12c-99.333 -6 -165.333 -5.33301 -198 2c8.66699 76.667 23 151.667 43 225c25.333 95.333 56.666 183 93.999 263
c12.667 2.66699 37.667 4 75 4c38.667 0 79 -3.33301 121 -10zM393.001 571.002c-12 -4.66699 -28.334 -10.333 -49.001 -17c-68 -16.667 -111.333 -24.667 -130 -24h-15l18 66l97 25c29.333 8.66699 58 19 86 31c-1.33301 -7.33301 -3.66602 -34.333 -6.99902 -81z" />
    <glyph glyph-name="Icircumflex" unicode="&#xce;" horiz-adv-x="323" 
d="M382 480c-34 -68.667 -65.999 -159.332 -95.999 -271.999c-8 -30 -13.333 -52 -16 -66c-6 -42.667 -12.667 -87.334 -20 -134.001l-3 -12c-99.333 -6 -165.333 -5.33301 -198 2c8.66699 76.667 23 151.667 43 225c25.333 95.333 56.666 183 93.999 263
c12.667 2.66699 37.667 4 75 4c38.667 0 79 -3.33301 121 -10zM425.001 587.002c-16.667 -29.333 -31.665 -51.332 -44.998 -65.999c-6 4 -17.667 15.333 -35 34c-14.667 16 -23.334 24 -26.001 24c-3.33301 0 -14.333 -6.66699 -33 -20s-32.667 -24.333 -42 -33
c-6.66699 5.33301 -13.5 14.166 -20.5 26.499s-10.167 22.833 -9.5 31.5c36.667 22.667 83.334 49 140.001 79c15.333 -20 26.666 -34.333 33.999 -43c13.333 -15.333 25.666 -26.333 36.999 -33z" />
    <glyph glyph-name="Idieresis" unicode="&#xcf;" horiz-adv-x="322" 
d="M382 480c-34 -68.667 -65.999 -159.332 -95.999 -271.999c-8 -30 -13.333 -52 -16 -66c-6 -42.667 -12.667 -87.334 -20 -134.001l-3 -12c-99.333 -6 -165.333 -5.33301 -198 2c8.66699 76.667 23 151.667 43 225c25.333 95.333 56.666 183 93.999 263
c12.667 2.66699 37.667 4 75 4c38.667 0 79 -3.33301 121 -10zM423.001 540.002c-27.333 -2.66699 -54.334 -2.66699 -81.001 0c10.667 32 18.334 57 23.001 75c14 0 40.333 1 79 3c-2 -21.333 -9 -47.333 -21 -78zM300 582.002c-6 -22.667 -10.833 -35.333 -14.5 -38
s-17.5 -4 -41.5 -4h-17.5h-21.5c7.33301 22 15 47 23 75h81z" />
    <glyph glyph-name="Eth" unicode="&#xd0;" horiz-adv-x="535" 
d="M544 248c-20 -76 -72.332 -138.667 -156.999 -188c-71.333 -42 -139 -63 -203 -63h-111c0 0.666992 4 27 12 79c-14.667 2.66699 -36.334 3.66699 -65.001 3l-5 -3c12 34.667 18 56.667 18 66h66l33 122l82 219c32 0.666992 55.333 1 70 1c72 0 127 -8.33301 165 -25
c68.667 -29.333 103 -81.333 103 -156c0 -18 -2.66699 -36.333 -8 -55zM292.001 121c1.33301 4.66699 1.99902 11.332 1.99902 19.999c0 42 -11.333 63 -34 63h-13c-1.33301 -18 -6 -36.333 -14 -55h19c9.33301 -0.666992 14.333 -4 15 -10
c-4 -15.333 -10.333 -33.666 -19 -54.999c-3.33301 0 -8.16602 -0.5 -14.499 -1.5s-10.833 -1.5 -13.5 -1.5l-5 -20h12c10.667 0 23.167 6.5 37.5 19.5s23.5 26.5 27.5 40.5z" />
    <glyph glyph-name="Ntilde" unicode="&#xd1;" horiz-adv-x="537" 
d="M598 480l-78.998 -230.997l-63 -224l-17 -80c-51.333 29.333 -117.333 80.666 -198 153.999c-4.66699 -23.333 -10.334 -49 -17.001 -77l-5 -22h-184l82 304c4.66699 21.333 32.667 99.666 84 234.999c39.333 -44.667 98.666 -94.334 177.999 -149.001l36 102
c6 2.66699 15.333 4 28 4c15.333 0 67 -5.33301 155 -16zM522.002 589.003c-8.66699 -32 -28.333 -47.999 -59 -47.999c-2.66699 0 -16.334 3.83301 -41.001 11.5s-38 11.5 -40 11.5c-12 0 -32.667 -8.66699 -62 -26c1.33301 7.33301 3.33301 34.333 6 81
c26.667 10 49.667 15 69 15c2 0 13.167 -3 33.5 -9s31.833 -9 34.5 -9c27.333 0 49.333 8 66 24c-1.33301 -4.66699 -2.66602 -13.834 -3.99902 -27.501s-2.33301 -21.5 -3 -23.5z" />
    <glyph glyph-name="Ograve" unicode="&#xd2;" horiz-adv-x="594" 
d="M604 240c-20 -73.333 -62.334 -135.501 -127.001 -186.501s-134 -76.5 -208 -76.5c-60.667 0 -109.667 18 -147 54s-56 82.333 -56 139c0 22.667 3.33301 46 10 70c19.333 72.667 61.833 135.334 127.5 188.001s134.834 79 207.501 79c61.333 0 110.333 -18.5 147 -55.5
s55 -84.167 55 -141.5c0 -22.667 -3 -46 -9 -70zM446.999 162.999c0 25.333 -14.332 38 -42.999 38c-18 0 -34.5 -6.66699 -49.5 -20s-22.5 -28.333 -22.5 -45c0 -11.333 3.83301 -21.333 11.5 -30s18.167 -13 31.5 -13c15.333 0 31.166 7.66699 47.499 23s24.5 31 24.5 47z
M510 532.999h-16c-17.333 0 -47.333 6.33301 -90 19c-37.333 10.667 -59.333 18.334 -66 23.001c14.667 30 27 56.667 37 80c36 -22.667 87 -40.334 153 -53.001z" />
    <glyph glyph-name="Oacute" unicode="&#xd3;" horiz-adv-x="594" 
d="M604 240c-20 -73.333 -62.334 -135.501 -127.001 -186.501s-134 -76.5 -208 -76.5c-60.667 0 -109.667 18 -147 54s-56 82.333 -56 139c0 22.667 3.33301 46 10 70c19.333 72.667 61.833 135.334 127.5 188.001s134.834 79 207.501 79c61.333 0 110.333 -18.5 147 -55.5
s55 -84.167 55 -141.5c0 -22.667 -3 -46 -9 -70zM446.999 162.999c0 25.333 -14.332 38 -42.999 38c-18 0 -34.5 -6.66699 -49.5 -20s-22.5 -28.333 -22.5 -45c0 -11.333 3.83301 -21.333 11.5 -30s18.167 -13 31.5 -13c15.333 0 31.166 7.66699 47.499 23s24.5 31 24.5 47z
M518 576.999c-12 -4.66699 -28.334 -10.333 -49.001 -17c-68 -16.667 -111.333 -24.667 -130 -24h-15l18 66l97 25c29.333 8.66699 58 19 86 31c-1.33301 -7.33301 -3.66602 -34.333 -6.99902 -81z" />
    <glyph glyph-name="Ocircumflex" unicode="&#xd4;" horiz-adv-x="594" 
d="M604 240c-20 -73.333 -62.334 -135.501 -127.001 -186.501s-134 -76.5 -208 -76.5c-60.667 0 -109.667 18 -147 54s-56 82.333 -56 139c0 22.667 3.33301 46 10 70c19.333 72.667 61.833 135.334 127.5 188.001s134.834 79 207.501 79c61.333 0 110.333 -18.5 147 -55.5
s55 -84.167 55 -141.5c0 -22.667 -3 -46 -9 -70zM446.999 162.999c0 25.333 -14.332 38 -42.999 38c-18 0 -34.5 -6.66699 -49.5 -20s-22.5 -28.333 -22.5 -45c0 -11.333 3.83301 -21.333 11.5 -30s18.167 -13 31.5 -13c15.333 0 31.166 7.66699 47.499 23s24.5 31 24.5 47z
M563 600.999c-16.667 -29.333 -31.665 -51.332 -44.998 -65.999c-6 4 -17.667 15.333 -35 34c-14.667 16 -23.334 24 -26.001 24c-3.33301 0 -14.333 -6.66699 -33 -20s-32.667 -24.333 -42 -33c-6.66699 5.33301 -13.5 14.166 -20.5 26.499s-10.167 22.833 -9.5 31.5
c36.667 22.667 83.334 49 140.001 79c15.333 -20 26.666 -34.333 33.999 -43c13.333 -15.333 25.666 -26.333 36.999 -33z" />
    <glyph glyph-name="Otilde" unicode="&#xd5;" horiz-adv-x="594" 
d="M604 240c-20 -73.333 -62.334 -135.501 -127.001 -186.501s-134 -76.5 -208 -76.5c-60.667 0 -109.667 18 -147 54s-56 82.333 -56 139c0 22.667 3.33301 46 10 70c19.333 72.667 61.833 135.334 127.5 188.001s134.834 79 207.501 79c61.333 0 110.333 -18.5 147 -55.5
s55 -84.167 55 -141.5c0 -22.667 -3 -46 -9 -70zM446.999 162.999c0 25.333 -14.332 38 -42.999 38c-18 0 -34.5 -6.66699 -49.5 -20s-22.5 -28.333 -22.5 -45c0 -11.333 3.83301 -21.333 11.5 -30s18.167 -13 31.5 -13c15.333 0 31.166 7.66699 47.499 23s24.5 31 24.5 47z
M540 587.999c-8.66699 -32 -28.333 -47.999 -59 -47.999c-2.66699 0 -16.334 3.83301 -41.001 11.5s-38 11.5 -40 11.5c-12 0 -32.667 -8.66699 -62 -26c1.33301 7.33301 3.33301 34.333 6 81c26.667 10 49.667 15 69 15c2 0 13.167 -3 33.5 -9s31.833 -9 34.5 -9
c27.333 0 49.333 8 66 24c-1.33301 -4.66699 -2.66602 -13.834 -3.99902 -27.501s-2.33301 -21.5 -3 -23.5z" />
    <glyph glyph-name="Odieresis" unicode="&#xd6;" horiz-adv-x="594" 
d="M604 240c-20 -73.333 -62.334 -135.501 -127.001 -186.501s-134 -76.5 -208 -76.5c-60.667 0 -109.667 18 -147 54s-56 82.333 -56 139c0 22.667 3.33301 46 10 70c19.333 72.667 61.833 135.334 127.5 188.001s134.834 79 207.501 79c61.333 0 110.333 -18.5 147 -55.5
s55 -84.167 55 -141.5c0 -22.667 -3 -46 -9 -70zM446.999 162.999c0 25.333 -14.332 38 -42.999 38c-18 0 -34.5 -6.66699 -49.5 -20s-22.5 -28.333 -22.5 -45c0 -11.333 3.83301 -21.333 11.5 -30s18.167 -13 31.5 -13c15.333 0 31.166 7.66699 47.499 23s24.5 31 24.5 47z
M549 555.999c-27.333 -2.66699 -54.334 -2.66699 -81.001 0c10.667 32 18.334 57 23.001 75c14 0 40.333 1 79 3c-2 -21.333 -9 -47.333 -21 -78zM425.999 597.999c-6 -22.667 -10.833 -35.333 -14.5 -38s-17.5 -4 -41.5 -4h-17.5h-21.5c7.33301 22 15 47 23 75h81z" />
    <glyph glyph-name="multiply" unicode="&#xd7;" horiz-adv-x="396" 
d="M416 325l-110 -84.999c17.333 -26.667 39.333 -53.667 66 -81c-4.66699 -6 -19 -19.5 -43 -40.5s-38.333 -31.5 -43 -31.5c-6.66699 0 -30 27.333 -70 82l-105 -87l-50 68c31.333 29.333 65.333 58.666 102 87.999l-55 90l88 71c12.667 -29.333 31.667 -59.333 57 -90
l110 85c25.333 -28.667 43 -51.667 53 -69z" />
    <glyph glyph-name="Oslash" unicode="&#xd8;" horiz-adv-x="592" 
d="M604 242c-20.667 -77.333 -64.332 -141.334 -130.999 -192.001c-64 -48.667 -132.333 -73 -205 -73c-18 0 -41.667 3.66699 -71 11l-62 -67c-20 10.667 -44.333 27.667 -73 51c18 18 36.333 38.667 55 62c0.666992 1.33301 -4 8.16602 -14 20.499s-16.333 21.5 -19 27.5
c-12.667 34 -19 63.333 -19 88c0 20 3.66699 43.333 11 70c20 75.333 63.667 139 131 191c65.333 50.667 134.333 76 207 76c16.667 0 39 -4 67 -12c11.333 12.667 26 32.334 44 59.001c41.333 -24 72.666 -40 93.999 -48c-10.667 -14 -28 -35.333 -52 -64
c31.333 -34 47 -77.333 47 -130c0 -23.333 -3.33301 -46.666 -10 -69.999zM447.002 162.999c0 25.333 -14.332 38 -42.999 38c-18 0 -34.5 -6.66699 -49.5 -20s-22.5 -28.333 -22.5 -45c0 -11.333 3.83301 -21.333 11.5 -30s18.167 -13 31.5 -13
c15.333 0 31.166 7.66699 47.499 23s24.5 31 24.5 47z" />
    <glyph glyph-name="Ugrave" unicode="&#xd9;" horiz-adv-x="525" 
d="M549 343c-41.333 -156.667 -115.332 -266.332 -221.999 -328.999c-32.667 -19.333 -67.334 -29 -104.001 -29c-20.667 0 -42.334 4.33301 -65.001 13c-52 18.667 -78 65.667 -78 141c0 41.333 9 95.666 27 162.999c14.667 55.333 35.334 113.666 62.001 174.999h203
l-32 -120c-7.33301 -30 0 -45 22 -45c12.667 0 24.667 8.33301 36 25c8 12.667 13.667 25.334 17 38.001l26 94c43.333 2.66699 86.666 2.66699 129.999 0c0.666992 -27.333 -6.66602 -69.333 -21.999 -126zM484.001 526.002h-16c-17.333 0 -47.333 6.33301 -90 19
c-37.333 10.667 -59.333 18.334 -66 23.001c14.667 30 27 56.667 37 80c36 -22.667 87 -40.334 153 -53.001z" />
    <glyph glyph-name="Uacute" unicode="&#xda;" horiz-adv-x="525" 
d="M549 343c-41.333 -156.667 -115.332 -266.332 -221.999 -328.999c-32.667 -19.333 -67.334 -29 -104.001 -29c-20.667 0 -42.334 4.33301 -65.001 13c-52 18.667 -78 65.667 -78 141c0 41.333 9 95.666 27 162.999c14.667 55.333 35.334 113.666 62.001 174.999h203
l-32 -120c-7.33301 -30 0 -45 22 -45c12.667 0 24.667 8.33301 36 25c8 12.667 13.667 25.334 17 38.001l26 94c43.333 2.66699 86.666 2.66699 129.999 0c0.666992 -27.333 -6.66602 -69.333 -21.999 -126zM507.001 564.002c-12 -4.66699 -28.334 -10.333 -49.001 -17
c-68 -16.667 -111.333 -24.667 -130 -24h-15l18 66l97 25c29.333 8.66699 58 19 86 31c-1.33301 -7.33301 -3.66602 -34.333 -6.99902 -81z" />
    <glyph glyph-name="Ucircumflex" unicode="&#xdb;" horiz-adv-x="525" 
d="M549 343c-41.333 -156.667 -115.332 -266.332 -221.999 -328.999c-32.667 -19.333 -67.334 -29 -104.001 -29c-20.667 0 -42.334 4.33301 -65.001 13c-52 18.667 -78 65.667 -78 141c0 41.333 9 95.666 27 162.999c14.667 55.333 35.334 113.666 62.001 174.999h203
l-32 -120c-7.33301 -30 0 -45 22 -45c12.667 0 24.667 8.33301 36 25c8 12.667 13.667 25.334 17 38.001l26 94c43.333 2.66699 86.666 2.66699 129.999 0c0.666992 -27.333 -6.66602 -69.333 -21.999 -126zM529.001 587.002
c-16.667 -29.333 -31.665 -51.332 -44.998 -65.999c-6 4 -17.667 15.333 -35 34c-14.667 16 -23.334 24 -26.001 24c-3.33301 0 -14.333 -6.66699 -33 -20s-32.667 -24.333 -42 -33c-6.66699 5.33301 -13.5 14.166 -20.5 26.499s-10.167 22.833 -9.5 31.5
c36.667 22.667 83.334 49 140.001 79c15.333 -20 26.666 -34.333 33.999 -43c13.333 -15.333 25.666 -26.333 36.999 -33z" />
    <glyph glyph-name="Udieresis" unicode="&#xdc;" horiz-adv-x="525" 
d="M549 343c-41.333 -156.667 -115.332 -266.332 -221.999 -328.999c-32.667 -19.333 -67.334 -29 -104.001 -29c-20.667 0 -42.334 4.33301 -65.001 13c-52 18.667 -78 65.667 -78 141c0 41.333 9 95.666 27 162.999c14.667 55.333 35.334 113.666 62.001 174.999h203
l-32 -120c-7.33301 -30 0 -45 22 -45c12.667 0 24.667 8.33301 36 25c8 12.667 13.667 25.334 17 38.001l26 94c43.333 2.66699 86.666 2.66699 129.999 0c0.666992 -27.333 -6.66602 -69.333 -21.999 -126zM529.001 527.002c-27.333 -2.66699 -54.334 -2.66699 -81.001 0
c10.667 32 18.334 57 23.001 75c14 0 40.333 1 79 3c-2 -21.333 -9 -47.333 -21 -78zM406 569.002c-6 -22.667 -10.833 -35.333 -14.5 -38s-17.5 -4 -41.5 -4h-17.5h-21.5c7.33301 22 15 47 23 75h81z" />
    <glyph glyph-name="Yacute" unicode="&#xdd;" horiz-adv-x="526" 
d="M621 437c-82 -125.333 -229.669 -291.334 -443.002 -498.001l-133 109c4 2 28 24.833 72 68.5s67 69.834 69 78.501c0.666992 2 -5.66602 19.667 -18.999 53c-25.333 63.333 -45.666 131 -60.999 203c19.333 14 81.333 39.667 186 77c6.66699 -42 24.667 -97.667 54 -167
c42.667 44.667 87.667 101 135 169c34 -15.333 80.667 -46.333 140 -93zM496.998 604.999c-12 -4.66699 -28.334 -10.333 -49.001 -17c-68 -16.667 -111.333 -24.667 -130 -24h-15l18 66l97 25c29.333 8.66699 58 19 86 31c-1.33301 -7.33301 -3.66602 -34.333 -6.99902 -81
z" />
    <glyph glyph-name="Thorn" unicode="&#xde;" horiz-adv-x="427" 
d="M438 232c-12 -46 -37.3359 -84.834 -76.0029 -116.501s-88 -53.167 -148 -64.5c-2 0 -4.16699 -1.33301 -6.5 -4s-5.83301 -19 -10.5 -49c-80 -4 -134.667 -3.33301 -164 2c0.666992 32.667 9.33398 80.334 26.001 143.001c30.667 115.333 69.334 220 116.001 314
c34.667 4 65.667 6 93 6c2 0 12.5 -0.5 31.5 -1.5s34.167 -1.5 45.5 -1.5c-10.667 -14.667 -20 -31.334 -28 -50.001l4 -4c38.667 -8 68.834 -24.167 90.501 -48.5s32.5 -52.833 32.5 -85.5c0 -13.333 -2 -26.666 -6 -39.999zM248.997 133.999c3.33301 13.333 -1 25 -13 35
l-20 -73c18.667 13.333 29.667 26 33 38z" />
    <glyph glyph-name="germandbls" unicode="&#xdf;" horiz-adv-x="611" 
d="M640 278c-43.333 -29.333 -79.333 -68.334 -108 -117.001c-32 -54.667 -60.333 -92.667 -85 -114c-22 -19.333 -41.667 -34.333 -59 -45c-9.33301 -5.33301 -27 -14.666 -53 -27.999c-24.667 34 -44.667 83 -60 147c36.667 20 70.667 51 102 93l79 112
c34 42.667 74 75 120 97c14 -22 35.333 -70.333 64 -145zM377 274.999c-34.667 -18.667 -64.666 -46.666 -89.999 -83.999l-54 -91c-12.667 -20 -35.167 -42.667 -67.5 -68s-63.166 -44.666 -92.499 -57.999c-12.667 16 -25.334 39.667 -38.001 71
c-11.333 29.333 -19 54.666 -23 75.999c38.667 22.667 73.334 55 104.001 97l76 108c33.333 41.333 73.666 73.666 120.999 96.999c17.333 -28 38.666 -77.333 63.999 -148z" />
    <glyph glyph-name="agrave" unicode="&#xe0;" horiz-adv-x="523" 
d="M498 117c-0.666992 -2.66699 -9.99902 -11.333 -27.999 -26c-58.667 -48.667 -114.334 -87.667 -167.001 -117c4 69.333 -2 133.333 -18 192c-49.333 -37.333 -105 -100.333 -167 -189c-32 24 -62.333 69 -91 135c114 126.667 239 239 375 337l44 -97
c6 -18 16.333 -57.333 31 -118c16.667 -68 23.667 -107 21 -117zM278.001 15.001c-45.333 -12 -70 -18 -74 -18h-12c5.33301 34.667 8 59.667 8 75c32 7.33301 57.667 14.333 77 21c3.33301 -0.666992 5.33301 -10.667 6 -30c0.666992 -18 0 -29.667 -2 -35z
M518.001 463.001h-16c-17.333 0 -47.333 6.33301 -90 19c-37.333 10.667 -59.333 18.334 -66 23.001c14.667 30 27 56.667 37 80c36 -22.667 87 -40.334 153 -53.001z" />
    <glyph glyph-name="aacute" unicode="&#xe1;" horiz-adv-x="521" 
d="M498 117c-0.666992 -2.66699 -9.99902 -11.333 -27.999 -26c-58.667 -48.667 -114.334 -87.667 -167.001 -117c4 69.333 -2 133.333 -18 192c-49.333 -37.333 -105 -100.333 -167 -189c-32 24 -62.333 69 -91 135c114 126.667 239 239 375 337l44 -97
c6 -18 16.333 -57.333 31 -118c16.667 -68 23.667 -107 21 -117zM278.001 15.001c-45.333 -12 -70 -18 -74 -18h-12c5.33301 34.667 8 59.667 8 75c32 7.33301 57.667 14.333 77 21c3.33301 -0.666992 5.33301 -10.667 6 -30c0.666992 -18 0 -29.667 -2 -35z
M527.001 511.001c-12 -4.66699 -28.334 -10.333 -49.001 -17c-68 -16.667 -111.333 -24.667 -130 -24h-15l18 66l97 25c29.333 8.66699 58 19 86 31c-1.33301 -7.33301 -3.66602 -34.333 -6.99902 -81z" />
    <glyph glyph-name="acircumflex" unicode="&#xe2;" horiz-adv-x="521" 
d="M498 117c-0.666992 -2.66699 -9.99902 -11.333 -27.999 -26c-58.667 -48.667 -114.334 -87.667 -167.001 -117c4 69.333 -2 133.333 -18 192c-49.333 -37.333 -105 -100.333 -167 -189c-32 24 -62.333 69 -91 135c114 126.667 239 239 375 337l44 -97
c6 -18 16.333 -57.333 31 -118c16.667 -68 23.667 -107 21 -117zM278.001 15.001c-45.333 -12 -70 -18 -74 -18h-12c5.33301 34.667 8 59.667 8 75c32 7.33301 57.667 14.333 77 21c3.33301 -0.666992 5.33301 -10.667 6 -30c0.666992 -18 0 -29.667 -2 -35z
M543.001 538.001c-16.667 -29.333 -31.665 -51.332 -44.998 -65.999c-6 4 -17.667 15.333 -35 34c-14.667 16 -23.334 24 -26.001 24c-3.33301 0 -14.333 -6.66699 -33 -20s-32.667 -24.333 -42 -33c-6.66699 5.33301 -13.5 14.166 -20.5 26.499s-10.167 22.833 -9.5 31.5
c36.667 22.667 83.334 49 140.001 79c15.333 -20 26.666 -34.333 33.999 -43c13.333 -15.333 25.666 -26.333 36.999 -33z" />
    <glyph glyph-name="atilde" unicode="&#xe3;" horiz-adv-x="521" 
d="M498 117c-0.666992 -2.66699 -9.99902 -11.333 -27.999 -26c-58.667 -48.667 -114.334 -87.667 -167.001 -117c4 69.333 -2 133.333 -18 192c-49.333 -37.333 -105 -100.333 -167 -189c-32 24 -62.333 69 -91 135c114 126.667 239 239 375 337l44 -97
c6 -18 16.333 -57.333 31 -118c16.667 -68 23.667 -107 21 -117zM278.001 15.001c-45.333 -12 -70 -18 -74 -18h-12c5.33301 34.667 8 59.667 8 75c32 7.33301 57.667 14.333 77 21c3.33301 -0.666992 5.33301 -10.667 6 -30c0.666992 -18 0 -29.667 -2 -35z
M540.001 521.001c-8.66699 -32 -28.333 -47.999 -59 -47.999c-2.66699 0 -16.334 3.83301 -41.001 11.5s-38 11.5 -40 11.5c-12 0 -32.667 -8.66699 -62 -26c1.33301 7.33301 3.33301 34.333 6 81c26.667 10 49.667 15 69 15c2 0 13.167 -3 33.5 -9s31.833 -9 34.5 -9
c27.333 0 49.333 8 66 24c-1.33301 -4.66699 -2.66602 -13.834 -3.99902 -27.501s-2.33301 -21.5 -3 -23.5z" />
    <glyph glyph-name="adieresis" unicode="&#xe4;" horiz-adv-x="523" 
d="M498 117c-0.666992 -2.66699 -9.99902 -11.333 -27.999 -26c-58.667 -48.667 -114.334 -87.667 -167.001 -117c4 69.333 -2 133.333 -18 192c-49.333 -37.333 -105 -100.333 -167 -189c-32 24 -62.333 69 -91 135c114 126.667 239 239 375 337l44 -97
c6 -18 16.333 -57.333 31 -118c16.667 -68 23.667 -107 21 -117zM278.001 15.001c-45.333 -12 -70 -18 -74 -18h-12c5.33301 34.667 8 59.667 8 75c32 7.33301 57.667 14.333 77 21c3.33301 -0.666992 5.33301 -10.667 6 -30c0.666992 -18 0 -29.667 -2 -35z
M532.001 468.001c-27.333 -2.66699 -54.334 -2.66699 -81.001 0c10.667 32 18.334 57 23.001 75c14 0 40.333 1 79 3c-2 -21.333 -9 -47.333 -21 -78zM409 510.001c-6 -22.667 -10.833 -35.333 -14.5 -38s-17.5 -4 -41.5 -4h-17.5h-21.5c7.33301 22 15 47 23 75h81z" />
    <glyph glyph-name="aring" unicode="&#xe5;" horiz-adv-x="521" 
d="M498 117c-0.666992 -2.66699 -9.99902 -11.333 -27.999 -26c-58.667 -48.667 -114.334 -87.667 -167.001 -117c4 69.333 -2 133.333 -18 192c-49.333 -37.333 -105 -100.333 -167 -189c-32 24 -62.333 69 -91 135c114 126.667 239 239 375 337l44 -97
c6 -18 16.333 -57.333 31 -118c16.667 -68 23.667 -107 21 -117zM278.001 15.001c-45.333 -12 -70 -18 -74 -18h-12c5.33301 34.667 8 59.667 8 75c32 7.33301 57.667 14.333 77 21c3.33301 -0.666992 5.33301 -10.667 6 -30c0.666992 -18 0 -29.667 -2 -35z
M510.001 532.001c-6 -20.667 -17.833 -36.5 -35.5 -47.5s-35.5 -16.5 -53.5 -16.5c-30.667 0 -46 14 -46 42c0 21.333 9.5 40.5 28.5 57.5s38.5 25.5 58.5 25.5c33.333 0 50 -15.333 50 -46c0 -4.66699 -0.666992 -9.66699 -2 -15zM475.001 533.001
c4 14.667 -1.33301 22 -16 22s-24 -7.66699 -28 -23c-4 -14 1 -21 15 -21c15.333 0 25 7.33301 29 22z" />
    <glyph glyph-name="ae" unicode="&#xe6;" horiz-adv-x="660" 
d="M623 205c-45.333 -18.667 -82.333 -31.666 -111 -38.999c0 13.333 -0.333008 31.666 -1 54.999c13.333 7.33301 46.333 20 99 38h10zM579 -2.99902h-288.002l22 127l27 106c-57.333 -45.333 -135 -122 -233 -230c-37.333 20.667 -72.666 51.334 -105.999 92.001
c56.667 60 121.334 119.333 194.001 178c82 67.333 149.667 113 203 137c6.66699 2.66699 35.667 4 87 4l196 -9c-0.666992 -20 -2.5 -33.167 -5.5 -39.5s-5.83301 -11.833 -8.5 -16.5l-20 -72h-132l-33 -121l1 -3c70.667 -2.66699 115.667 -1.33398 135 3.99902
c-8 -18 -15 -42 -21 -72c-7.33301 -40.667 -12 -63.667 -14 -69zM272.998 42.001c-12.667 -4.66699 -22.332 -6.99902 -28.999 -6.99902h-51l18 67c14 0 40.333 0.666992 79 2c-8.66699 -20.667 -14.334 -41.334 -17.001 -62.001z" />
    <glyph glyph-name="ccedilla" unicode="&#xe7;" horiz-adv-x="427" 
d="M448 335c-11.333 -43.333 -35.334 -110.332 -72.001 -200.999c-10.667 4 -22.334 6 -35.001 6c-31.333 0 -50 -11.667 -56 -35c-1.33301 -4 -2 -7.33301 -2 -10c0 -26 23 -39.333 69 -40c1.33301 -11.333 1 -21.333 -1 -30l-9 -33c-47.333 -8 -82 -12 -104 -12
c-53.333 0 -96.666 10.667 -129.999 32c-38 25.333 -57 61.666 -57 108.999c0 17.333 2.66699 35.666 8 54.999c12.667 46.667 38 90.334 76 131.001c43.333 46.667 95 79 155 97c28.667 8.66699 63.334 13 104.001 13c22 0 45.667 -2 71 -6
c-2 -16.667 -7.66699 -42 -17 -76zM294.999 -89.999c-6.66699 -24.667 -22.665 -42.666 -47.998 -53.999c-17.333 -8 -36.333 -12 -57 -12c-1.33301 0 -7 0.5 -17 1.5s-17 1.5 -21 1.5c3.33301 12 4.66602 21.667 3.99902 29c2.66699 -2 7.66699 -3 15 -3
c12 0 23.333 4 34 12s16 17.333 16 28c0 14 -10 23.667 -30 29c-14 4 -26.333 5 -37 3c6 11.333 15.333 28 28 50c23.333 -2.66699 41.666 -2.66699 54.999 0c-6 -10.667 -10 -19.667 -12 -27c16 0.666992 29 0 39 -2v0c28.667 -6.66699 39 -25.334 31 -56.001z" />
    <glyph glyph-name="egrave" unicode="&#xe8;" horiz-adv-x="404" 
d="M372 205c-32.667 -15.333 -69.999 -30.333 -111.999 -45c-1.33301 12.667 -2 34 -2 64c25.333 11.333 61.666 25 108.999 41c3.33301 -12.667 5 -32.667 5 -60zM329.001 1c-55.333 -4.66699 -102.333 -7 -141 -7l-150 6c11.333 79.333 26.333 154 45 224
c8.66699 32 14.667 53 18 63c8 24.667 23.667 65 47 121c54.667 4 93.334 6 116.001 6l167 -9c1.33301 -4 2 -8 2 -12c0 -6.66699 -2 -14 -6 -22c-5.33301 -10 -8.33301 -16.333 -9 -19l-21 -77h-134c0.666992 -2.66699 -3.83301 -22.334 -13.5 -59.001
s-16.167 -58.667 -19.5 -66l1 -3c60.667 -2 101.667 -0.666992 123 4h15l-5 -5c-10.667 -19.333 -22.334 -67.666 -35.001 -144.999zM412.001 447h-16c-17.333 0 -47.333 6.33301 -90 19c-37.333 10.667 -59.333 18.334 -66 23.001c14.667 30 27 56.667 37 80
c36 -22.667 87 -40.334 153 -53.001z" />
    <glyph glyph-name="eacute" unicode="&#xe9;" horiz-adv-x="404" 
d="M372 205c-32.667 -15.333 -69.999 -30.333 -111.999 -45c-1.33301 12.667 -2 34 -2 64c25.333 11.333 61.666 25 108.999 41c3.33301 -12.667 5 -32.667 5 -60zM329.001 1c-55.333 -4.66699 -102.333 -7 -141 -7l-150 6c11.333 79.333 26.333 154 45 224
c8.66699 32 14.667 53 18 63c8 24.667 23.667 65 47 121c54.667 4 93.334 6 116.001 6l167 -9c1.33301 -4 2 -8 2 -12c0 -6.66699 -2 -14 -6 -22c-5.33301 -10 -8.33301 -16.333 -9 -19l-21 -77h-134c0.666992 -2.66699 -3.83301 -22.334 -13.5 -59.001
s-16.167 -58.667 -19.5 -66l1 -3c60.667 -2 101.667 -0.666992 123 4h15l-5 -5c-10.667 -19.333 -22.334 -67.666 -35.001 -144.999zM449.001 491c-12 -4.66699 -28.334 -10.333 -49.001 -17c-68 -16.667 -111.333 -24.667 -130 -24h-15l18 66l97 25
c29.333 8.66699 58 19 86 31c-1.33301 -7.33301 -3.66602 -34.333 -6.99902 -81z" />
    <glyph glyph-name="ecircumflex" unicode="&#xea;" horiz-adv-x="405" 
d="M372 205c-32.667 -15.333 -69.999 -30.333 -111.999 -45c-1.33301 12.667 -2 34 -2 64c25.333 11.333 61.666 25 108.999 41c3.33301 -12.667 5 -32.667 5 -60zM329.001 1c-55.333 -4.66699 -102.333 -7 -141 -7l-150 6c11.333 79.333 26.333 154 45 224
c8.66699 32 14.667 53 18 63c8 24.667 23.667 65 47 121c54.667 4 93.334 6 116.001 6l167 -9c1.33301 -4 2 -8 2 -12c0 -6.66699 -2 -14 -6 -22c-5.33301 -10 -8.33301 -16.333 -9 -19l-21 -77h-134c0.666992 -2.66699 -3.83301 -22.334 -13.5 -59.001
s-16.167 -58.667 -19.5 -66l1 -3c60.667 -2 101.667 -0.666992 123 4h15l-5 -5c-10.667 -19.333 -22.334 -67.666 -35.001 -144.999zM443.001 516c-16.667 -29.333 -31.665 -51.332 -44.998 -65.999c-6 4 -17.667 15.333 -35 34c-14.667 16 -23.334 24 -26.001 24
c-3.33301 0 -14.333 -6.66699 -33 -20s-32.667 -24.333 -42 -33c-6.66699 5.33301 -13.5 14.166 -20.5 26.499s-10.167 22.833 -9.5 31.5c36.667 22.667 83.334 49 140.001 79c15.333 -20 26.666 -34.333 33.999 -43c13.333 -15.333 25.666 -26.333 36.999 -33z" />
    <glyph glyph-name="edieresis" unicode="&#xeb;" horiz-adv-x="405" 
d="M372 205c-32.667 -15.333 -69.999 -30.333 -111.999 -45c-1.33301 12.667 -2 34 -2 64c25.333 11.333 61.666 25 108.999 41c3.33301 -12.667 5 -32.667 5 -60zM329.001 1c-55.333 -4.66699 -102.333 -7 -141 -7l-150 6c11.333 79.333 26.333 154 45 224
c8.66699 32 14.667 53 18 63c8 24.667 23.667 65 47 121c54.667 4 93.334 6 116.001 6l167 -9c1.33301 -4 2 -8 2 -12c0 -6.66699 -2 -14 -6 -22c-5.33301 -10 -8.33301 -16.333 -9 -19l-21 -77h-134c0.666992 -2.66699 -3.83301 -22.334 -13.5 -59.001
s-16.167 -58.667 -19.5 -66l1 -3c60.667 -2 101.667 -0.666992 123 4h15l-5 -5c-10.667 -19.333 -22.334 -67.666 -35.001 -144.999zM448.001 455c-27.333 -2.66699 -54.334 -2.66699 -81.001 0c10.667 32 18.334 57 23.001 75c14 0 40.333 1 79 3
c-2 -21.333 -9 -47.333 -21 -78zM325 497c-6 -22.667 -10.833 -35.333 -14.5 -38s-17.5 -4 -41.5 -4h-17.5h-21.5c7.33301 22 15 47 23 75h81z" />
    <glyph glyph-name="igrave" unicode="&#xec;" horiz-adv-x="281" 
d="M293 407l-27.998 -83.998c-13.333 -44 -25.333 -92 -36 -144c-8.66699 -40.667 -13.667 -65.667 -15 -75c-2.66699 -21.333 -5.33398 -55.333 -8.00098 -102c-42 -5.33301 -71 -8 -87 -8c-30 0 -54.333 1.33301 -73 4c1.33301 63.333 8.66602 126.666 21.999 189.999
c10.667 51.333 21.667 95.666 33 132.999l30 86c8 5.33301 29.333 8 64 8c30 0 62.667 -2.66699 98 -8zM277.002 460.002l-15 0.000976562c-18 0 -48.333 6 -91 18c-36.667 11.333 -58.667 19 -66 23c14.667 30.667 27 57.667 37 81
c36.667 -22.667 87.667 -40.334 153 -53.001z" />
    <glyph glyph-name="iacute" unicode="&#xed;" horiz-adv-x="284" 
d="M297 410l-28.001 -85c-13.333 -44 -25.666 -92.333 -36.999 -145c-8 -40.667 -12.667 -65.667 -14 -75c-3.33301 -22 -6.33301 -56.333 -9 -103c-42.667 -5.33301 -72 -8 -88 -8c-31.333 0 -56.333 1.33301 -75 4c1.33301 64 8.66602 127.667 21.999 191
c10.667 52 22.334 97 35.001 135l29 86c8.66699 5.33301 30.334 8 65.001 8c31.333 0 64.666 -2.66699 99.999 -8zM389.999 492c-11.333 -4.66699 -27.668 -10.333 -49.001 -17c-68 -16.667 -111.333 -24.667 -130 -24h-15l18 66l97 25c30 8.66699 58.667 19 86 31
c-1.33301 -7.33301 -3.66602 -34.333 -6.99902 -81z" />
    <glyph glyph-name="icircumflex" unicode="&#xee;" horiz-adv-x="284" 
d="M297 410l-28.001 -85c-13.333 -44 -25.666 -92.333 -36.999 -145c-8 -40.667 -12.667 -65.667 -14 -75c-3.33301 -22 -6.33301 -56.333 -9 -103c-42.667 -5.33301 -72 -8 -88 -8c-31.333 0 -56.333 1.33301 -75 4c1.33301 64 8.66602 127.667 21.999 191
c10.667 52 22.334 97 35.001 135l29 86c8.66699 5.33301 30.334 8 65.001 8c31.333 0 64.666 -2.66699 99.999 -8zM348.999 521c-16.667 -29.333 -31.665 -51.335 -44.998 -66.002c-6 4.66699 -17.667 16.334 -35 35.001c-14.667 15.333 -23.334 23 -26.001 23
s-13.5 -6.5 -32.5 -19.5s-33.167 -23.833 -42.5 -32.5c-6.66699 5.33301 -13.5 14 -20.5 26s-10.167 22.333 -9.5 31c36.667 23.333 83.334 50 140.001 80c15.333 -20.667 26.666 -35 33.999 -43c13.333 -15.333 25.666 -26.666 36.999 -33.999z" />
    <glyph glyph-name="idieresis" unicode="&#xef;" horiz-adv-x="284" 
d="M293 410l-27.998 -85c-13.333 -44 -25.333 -92.333 -36 -145c-8.66699 -40.667 -13.667 -65.667 -15 -75c-2.66699 -22 -5.33398 -56.333 -8.00098 -103c-42 -5.33301 -71 -8 -87 -8c-30 0 -54.333 1.33301 -73 4c1.33301 64 8.66602 127.667 21.999 191
c10.667 52 21.667 97 33 135l30 86c8 5.33301 29.333 8 64 8c30 0 62.667 -2.66699 98 -8zM352.002 453c-27.333 -2.66699 -54.334 -2.66699 -81.001 0c10.667 32 18.334 57 23.001 75c14 0 40.333 1 79 3c-2 -21.333 -9 -47.333 -21 -78zM229.001 495
c-6 -22.667 -10.833 -35.333 -14.5 -38s-17.5 -4 -41.5 -4h-17.5h-21.5c7.33301 22 15 47 23 75h81z" />
    <glyph glyph-name="eth" unicode="&#xf0;" horiz-adv-x="459" 
d="M461 208c-17.333 -64 -60.668 -116.669 -130.001 -158.002c-60 -35.333 -118.667 -52.666 -176 -51.999h-103l5 4c2.66699 12 6.66699 32 12 60c-0.666992 0 -18 1 -52 3l-6 -3l18 54c21.333 4 38.333 6 51 6c2 1.33301 12 36 30 104l32 87c14 39.333 27.667 71 41 95
h102c2.66699 0 7.66699 -0.833008 15 -2.5s13 -2.5 17 -2.5c46.667 -4 83.334 -20 110.001 -48s40 -61.667 40 -101c0 -15.333 -2 -30.666 -6 -45.999zM245.998 101.998c2.66699 10 2 23.333 -2 40c-5.33301 20 -14.666 30 -27.999 30h-9l-13 -46
c8 -1.33301 18.333 -3.33301 31 -6l-9 -34c-1.33301 -4 -4.66602 -9.33301 -9.99902 -16c-3.33301 0 -7.83301 -0.5 -13.5 -1.5s-9.16699 -1.5 -10.5 -1.5l-4 -14h12c9.33301 0 20.166 5.16699 32.499 15.5s20.166 21.5 23.499 33.5z" />
    <glyph glyph-name="ntilde" unicode="&#xf1;" horiz-adv-x="442" 
d="M505 408l-67 -199.999l-66 -254c-68 43.333 -123.667 87 -167 131l-22 -85h-153l50 188l90 270c22 -26.667 47.667 -51.334 77 -74.001l73 -52l32 88h59c18.667 0 50 -4 94 -12zM461 514.001c-8.66699 -32 -28.333 -47.999 -59 -47.999
c-2.66699 0 -16.334 3.83301 -41.001 11.5s-38 11.5 -40 11.5c-12 0 -32.667 -8.66699 -62 -26c1.33301 7.33301 3.33301 34.333 6 81c26.667 10 49.667 15 69 15c2 0 13.167 -3 33.5 -9s31.833 -9 34.5 -9c27.333 0 49.333 8 66 24
c-1.33301 -4.66699 -2.66602 -13.834 -3.99902 -27.501s-2.33301 -21.5 -3 -23.5z" />
    <glyph glyph-name="ograve" unicode="&#xf2;" horiz-adv-x="511" 
d="M513 206c-16.667 -62 -53.335 -114.667 -110.002 -158s-115.334 -65 -176.001 -65c-51.333 0 -92.666 15.167 -123.999 45.5s-47 69.833 -47 118.5c0 18.667 2.66699 38.334 8 59.001c16.667 62 52.334 114.667 107.001 158s113.334 65 176.001 65
c50.667 0 92.167 -15.833 124.5 -47.5s48.5 -71.5 48.5 -119.5c0 -18.667 -2.33301 -37.334 -7 -56.001zM376.999 138c0 22.667 -11.999 34 -35.999 34c-14.667 0 -28.334 -5.5 -41.001 -16.5s-19 -23.833 -19 -38.5c0 -23.333 11.667 -35 35 -35
c13.333 0 26.833 5.66699 40.5 17s20.5 24.333 20.5 39zM426 457h-16c-17.333 0 -47.333 6.33301 -90 19c-37.333 10.667 -59.333 18.334 -66 23.001c14.667 30 27 56.667 37 80c36 -22.667 87 -40.334 153 -53.001z" />
    <glyph glyph-name="oacute" unicode="&#xf3;" horiz-adv-x="512" 
d="M513 206c-16.667 -62 -53.335 -114.667 -110.002 -158s-115.334 -65 -176.001 -65c-51.333 0 -92.666 15.167 -123.999 45.5s-47 69.833 -47 118.5c0 18.667 2.66699 38.334 8 59.001c16.667 62 52.334 114.667 107.001 158s113.334 65 176.001 65
c50.667 0 92.167 -15.833 124.5 -47.5s48.5 -71.5 48.5 -119.5c0 -18.667 -2.33301 -37.334 -7 -56.001zM376.999 138c0 22.667 -11.999 34 -35.999 34c-14.667 0 -28.334 -5.5 -41.001 -16.5s-19 -23.833 -19 -38.5c0 -23.333 11.667 -35 35 -35
c13.333 0 26.833 5.66699 40.5 17s20.5 24.333 20.5 39zM484 485c-12 -4.66699 -28.334 -10.333 -49.001 -17c-68 -16.667 -111.333 -24.667 -130 -24h-15l18 66l97 25c29.333 8.66699 58 19 86 31c-1.33301 -7.33301 -3.66602 -34.333 -6.99902 -81z" />
    <glyph glyph-name="ocircumflex" unicode="&#xf4;" horiz-adv-x="511" 
d="M513 206c-16.667 -62 -53.335 -114.667 -110.002 -158s-115.334 -65 -176.001 -65c-51.333 0 -92.666 15.167 -123.999 45.5s-47 69.833 -47 118.5c0 18.667 2.66699 38.334 8 59.001c16.667 62 52.334 114.667 107.001 158s113.334 65 176.001 65
c50.667 0 92.167 -15.833 124.5 -47.5s48.5 -71.5 48.5 -119.5c0 -18.667 -2.33301 -37.334 -7 -56.001zM376.999 138c0 22.667 -11.999 34 -35.999 34c-14.667 0 -28.334 -5.5 -41.001 -16.5s-19 -23.833 -19 -38.5c0 -23.333 11.667 -35 35 -35
c13.333 0 26.833 5.66699 40.5 17s20.5 24.333 20.5 39zM498 518c-16.667 -29.333 -31.665 -51.332 -44.998 -65.999c-6 4 -17.667 15.333 -35 34c-14.667 16 -23.334 24 -26.001 24c-3.33301 0 -14.333 -6.66699 -33 -20s-32.667 -24.333 -42 -33
c-6.66699 5.33301 -13.5 14.166 -20.5 26.499s-10.167 22.833 -9.5 31.5c36.667 22.667 83.334 49 140.001 79c15.333 -20 26.666 -34.333 33.999 -43c13.333 -15.333 25.666 -26.333 36.999 -33z" />
    <glyph glyph-name="otilde" unicode="&#xf5;" horiz-adv-x="511" 
d="M513 206c-16.667 -62 -53.335 -114.667 -110.002 -158s-115.334 -65 -176.001 -65c-51.333 0 -92.666 15.167 -123.999 45.5s-47 69.833 -47 118.5c0 18.667 2.66699 38.334 8 59.001c16.667 62 52.334 114.667 107.001 158s113.334 65 176.001 65
c50.667 0 92.167 -15.833 124.5 -47.5s48.5 -71.5 48.5 -119.5c0 -18.667 -2.33301 -37.334 -7 -56.001zM376.999 138c0 22.667 -11.999 34 -35.999 34c-14.667 0 -28.334 -5.5 -41.001 -16.5s-19 -23.833 -19 -38.5c0 -23.333 11.667 -35 35 -35
c13.333 0 26.833 5.66699 40.5 17s20.5 24.333 20.5 39zM503 501c-8.66699 -32 -28.333 -47.999 -59 -47.999c-2.66699 0 -16.334 3.83301 -41.001 11.5s-38 11.5 -40 11.5c-12 0 -32.667 -8.66699 -62 -26c1.33301 7.33301 3.33301 34.333 6 81c26.667 10 49.667 15 69 15
c2 0 13.167 -3 33.5 -9s31.833 -9 34.5 -9c27.333 0 49.333 8 66 24c-1.33301 -4.66699 -2.66602 -13.834 -3.99902 -27.501s-2.33301 -21.5 -3 -23.5z" />
    <glyph glyph-name="odieresis" unicode="&#xf6;" horiz-adv-x="511" 
d="M513 206c-16.667 -62 -53.335 -114.667 -110.002 -158s-115.334 -65 -176.001 -65c-51.333 0 -92.666 15.167 -123.999 45.5s-47 69.833 -47 118.5c0 18.667 2.66699 38.334 8 59.001c16.667 62 52.334 114.667 107.001 158s113.334 65 176.001 65
c50.667 0 92.167 -15.833 124.5 -47.5s48.5 -71.5 48.5 -119.5c0 -18.667 -2.33301 -37.334 -7 -56.001zM376.999 138c0 22.667 -11.999 34 -35.999 34c-14.667 0 -28.334 -5.5 -41.001 -16.5s-19 -23.833 -19 -38.5c0 -23.333 11.667 -35 35 -35
c13.333 0 26.833 5.66699 40.5 17s20.5 24.333 20.5 39zM508 448c-27.333 -2.66699 -54.334 -2.66699 -81.001 0c10.667 32 18.334 57 23.001 75c14 0 40.333 1 79 3c-2 -21.333 -9 -47.333 -21 -78zM384.999 490c-6 -22.667 -10.833 -35.333 -14.5 -38s-17.5 -4 -41.5 -4
h-17.5h-21.5c7.33301 22 15 47 23 75h81z" />
    <glyph glyph-name="divide" unicode="&#xf7;" horiz-adv-x="406" 
d="M322 321c-34 -3.33301 -66.666 -3.33301 -97.999 0c-2 16 -0.333008 35 5 57c4.66699 16 9.66699 29.667 15 41c34 3.33301 68.667 3.33301 104 0c-4.66699 -29.333 -13.334 -62 -26.001 -98zM407.001 187h-340c4 22 12.667 54.667 26 98h340zM251.001 59
c-5.33301 0 -14.667 -0.666016 -28 -1.99902s-21 -2 -23 -2c-32.667 0 -49 6.66699 -49 20c0 6 3 20 9 42l14 40c10.667 2 25.667 3 45 3c25.333 0 40 -0.333008 44 -1c8 -1.33301 12 -6 12 -14c0 -6.66699 -2.5 -19.334 -7.5 -38.001s-10.5 -34.667 -16.5 -48z" />
    <glyph glyph-name="oslash" unicode="&#xf8;" horiz-adv-x="511" 
d="M513 207c-17.333 -64.667 -55.334 -118.667 -114.001 -162c-56 -41.333 -114.333 -62 -175 -62c-2 0 -11.5 1.33301 -28.5 4s-26.5 4 -28.5 4c-2.66699 0 -10 -7 -22 -21c-18 -20.667 -29 -33 -33 -37l-60 45l47 52c-29.333 36 -44 74.667 -44 116
c0 18.667 3 38.667 9 60c17.333 64 54.333 117.333 111 160c54.667 42 112.334 63 173.001 63c23.333 0 42.333 -3 57 -9c8.66699 10 22 26.333 40 49c16.667 -12 42.667 -25.667 78 -41l-44 -53c28 -30.667 42 -67.667 42 -111c0 -18.667 -2.66699 -37.667 -8 -57z
M376.999 140c0 21.333 -12 32 -36 32c-14 0 -27 -4.66699 -39 -14c-14 -11.333 -21 -25 -21 -41c0 -23.333 11.667 -35 35 -35c13.333 0 26.833 6 40.5 18s20.5 25.333 20.5 40z" />
    <glyph glyph-name="ugrave" unicode="&#xf9;" horiz-adv-x="423" 
d="M465 290c-20 -76 -52.333 -142.334 -97 -199.001c-53.333 -68.667 -112 -103 -176 -103c-21.333 0 -41.333 4.33301 -60 13c-42 18.667 -63 58.334 -63 119.001c0 33.333 7.66699 79 23 137c8 30 25.333 79.333 52 148c86 4 144.667 3 176 -3l-29 -97
c-8 -28.667 -2.33301 -43 17 -43s34.333 18.333 45 55l23 85c-2 0 14.667 0 50 0c16 0 35 -2.33301 57 -7c-2 -33.333 -8 -68.333 -18 -105zM377 443.999h-16c-17.333 0 -47.333 6.33301 -90 19c-37.333 10.667 -59.333 18.334 -66 23.001c14.667 30 27 56.667 37 80
c36 -22.667 87 -40.334 153 -53.001z" />
    <glyph glyph-name="uacute" unicode="&#xfa;" horiz-adv-x="423" 
d="M465 290c-20 -76 -52.333 -142.334 -97 -199.001c-53.333 -68.667 -112 -103 -176 -103c-21.333 0 -41.333 4.33301 -60 13c-42 18.667 -63 58.334 -63 119.001c0 33.333 7.66699 79 23 137c8 30 25.333 79.333 52 148c86 4 144.667 3 176 -3l-29 -97
c-8 -28.667 -2.33301 -43 17 -43s34.333 18.333 45 55l23 85c-2 0 14.667 0 50 0c16 0 35 -2.33301 57 -7c-2 -33.333 -8 -68.333 -18 -105zM462 484.999c-12 -4.66699 -28.334 -10.333 -49.001 -17c-68 -16.667 -111.333 -24.667 -130 -24h-15l18 66l97 25
c29.333 8.66699 58 19 86 31c-1.33301 -7.33301 -3.66602 -34.333 -6.99902 -81z" />
    <glyph glyph-name="ucircumflex" unicode="&#xfb;" horiz-adv-x="423" 
d="M465 290c-20 -76 -52.333 -142.334 -97 -199.001c-53.333 -68.667 -112 -103 -176 -103c-21.333 0 -41.333 4.33301 -60 13c-42 18.667 -63 58.334 -63 119.001c0 33.333 7.66699 79 23 137c8 30 25.333 79.333 52 148c86 4 144.667 3 176 -3l-29 -97
c-8 -28.667 -2.33301 -43 17 -43s34.333 18.333 45 55l23 85c-2 0 14.667 0 50 0c16 0 35 -2.33301 57 -7c-2 -33.333 -8 -68.333 -18 -105zM482 514.999c-16.667 -29.333 -31.665 -51.332 -44.998 -65.999c-6 4 -17.667 15.333 -35 34c-14.667 16 -23.334 24 -26.001 24
c-3.33301 0 -14.333 -6.66699 -33 -20s-32.667 -24.333 -42 -33c-6.66699 5.33301 -13.5 14.166 -20.5 26.499s-10.167 22.833 -9.5 31.5c36.667 22.667 83.334 49 140.001 79c15.333 -20 26.666 -34.333 33.999 -43c13.333 -15.333 25.666 -26.333 36.999 -33z" />
    <glyph glyph-name="udieresis" unicode="&#xfc;" horiz-adv-x="423" 
d="M465 290c-20 -76 -52.333 -142.334 -97 -199.001c-53.333 -68.667 -112 -103 -176 -103c-21.333 0 -41.333 4.33301 -60 13c-42 18.667 -63 58.334 -63 119.001c0 33.333 7.66699 79 23 137c8 30 25.333 79.333 52 148c86 4 144.667 3 176 -3l-29 -97
c-8 -28.667 -2.33301 -43 17 -43s34.333 18.333 45 55l23 85c-2 0 14.667 0 50 0c16 0 35 -2.33301 57 -7c-2 -33.333 -8 -68.333 -18 -105zM470 452.999c-27.333 -2.66699 -54.334 -2.66699 -81.001 0c10.667 32 18.334 57 23.001 75c14 0 40.333 1 79 3
c-2 -21.333 -9 -47.333 -21 -78zM346.999 494.999c-6 -22.667 -10.833 -35.333 -14.5 -38s-17.5 -4 -41.5 -4h-17.5h-21.5c7.33301 22 15 47 23 75h81z" />
    <glyph glyph-name="yacute" unicode="&#xfd;" horiz-adv-x="417" 
d="M525 370c-43.333 -66.667 -107 -145.667 -191 -237c-64.667 -70 -126.667 -131.667 -186 -185l-108 91l121 126c-30 58.667 -53.667 130.667 -71 216c12.667 10 65 31.667 157 65c12.667 -56 28 -102.667 46 -140c39.333 43.333 77.333 91 114 143
c24.667 -12.667 64 -39 118 -79zM458 509c-12 -4.66699 -28.334 -10.333 -49.001 -17c-68 -16.667 -111.333 -24.667 -130 -24h-15l18 66l97 25c29.333 8.66699 58 19 86 31c-1.33301 -7.33301 -3.66602 -34.333 -6.99902 -81z" />
    <glyph glyph-name="thorn" unicode="&#xfe;" horiz-adv-x="490" 
d="M517 274c-15.333 -56 -47.499 -103.166 -96.499 -141.499s-107.833 -61.833 -176.5 -70.5c-4.66699 -14.667 -8.33398 -35 -11.001 -61c-44 -4.66699 -75.667 -7 -95 -7c-32.667 0 -66.667 3 -102 9c4 45.333 14.667 100.333 32 165c40.667 150.667 86.667 274 138 370
c20 6.66699 55.667 10 107 10c18.667 0 49 -2.33301 91 -7c-14.667 -20.667 -23.667 -36.334 -27 -47.001l-3 -11c47.333 -10 84 -29.5 110 -58.5s39 -63.167 39 -102.5c0 -16 -2 -32 -6 -48zM295.001 171.001c0 11.333 -7.33301 21.333 -22 30l-22 -84
c29.333 12 44 30 44 54z" />
    <glyph glyph-name="ydieresis" unicode="&#xff;" horiz-adv-x="419" 
d="M525 370c-43.333 -66.667 -107 -145.667 -191 -237c-64.667 -70 -126.667 -131.667 -186 -185l-108 91l121 126c-30 58.667 -53.667 130.667 -71 216c12.667 10 65 31.667 157 65c12.667 -56 28 -102.667 46 -140c39.333 43.333 77.333 91 114 143
c24.667 -12.667 64 -39 118 -79zM460 471c-27.333 -2.66699 -54.334 -2.66699 -81.001 0c10.667 32 18.334 57 23.001 75c14 0 40.333 1 79 3c-2 -21.333 -9 -47.333 -21 -78zM336.999 513c-6 -22.667 -10.833 -35.333 -14.5 -38s-17.5 -4 -41.5 -4h-17.5h-21.5
c7.33301 22 15 47 23 75h81z" />
    <glyph glyph-name="dotlessi" unicode="&#x131;" horiz-adv-x="288" 
d="M302 323l-29.0029 -67.002c-13.333 -35.333 -25.666 -73.666 -36.999 -114.999c-8.66699 -32 -13.667 -51.667 -15 -59c-3.33301 -17.333 -6 -44.333 -8 -81c-44 -4.66699 -74.333 -7 -91 -7c-31.333 0 -56.666 1 -75.999 3c2 50.667 9.66699 101.334 23 152.001
c10.667 40.667 22.334 76 35.001 106l30 68c8.66699 4 30.667 6 66 6c32 0 66 -2 102 -6z" />
    <glyph glyph-name="Lslash" unicode="&#x141;" horiz-adv-x="398" 
d="M330 3c-32 -4 -60.999 -5.99707 -86.999 -5.99707l-194 9c7.33301 67.333 13 106.666 17 117.999l32 121l-42 -6l5 55l58 23c12 35.333 34.667 92.666 68 171.999h200c-26 -48.667 -41.667 -81.667 -47 -99l-3 -15c4 -1.33301 14.667 0 32 4
c1.33301 -22 1.33301 -41.333 0 -58c-11.333 -2.66699 -32 -10.334 -62 -23.001l-24 -88h97l-39 -145c-4.66699 -18 -8.33398 -38.667 -11.001 -62z" />
    <glyph glyph-name="lslash" unicode="&#x142;" horiz-adv-x="347" 
d="M329 413l-46 -95.998c5.33301 -2.66699 15 -1.33398 29 3.99902c1.33301 -8.66699 1.33301 -25 0 -49c-12 -4.66699 -29.667 -12.334 -53 -23.001l-19 -72c25.333 -2.66699 53.333 -2.66699 84 0l-48 -179c-59.333 -4 -137 -1.33301 -233 8l16 103l24 93
c-3.33301 2 -14 0.666992 -32 -4v25c0 11.333 0.333008 19.333 1 24c12 4 29 10.667 51 20c18 51.333 37.333 100.333 58 147z" />
    <glyph glyph-name="OE" unicode="&#x152;" horiz-adv-x="857" 
d="M835 234c-27.333 -11.333 -69.999 -27 -127.999 -47c0 4 -2 27 -6 69c51.333 22 92 37.667 122 47h10c0 -3.33301 0.333008 -14 1 -32c1.33301 -14.667 1.66602 -27 0.999023 -37zM914.001 475l-29.999 -79.999l-20 -75c-6.66699 0 -40.334 -0.666992 -101.001 -2
c-31.333 -0.666992 -49 0 -53 2l-42 -157h100l56 9c-16 -40.667 -29.333 -97.667 -40 -171c-32.667 -6.66699 -84 -10 -154 -10l-189 10c7.33301 15.333 11.666 30.666 12.999 45.999c-60.667 -44.667 -124 -67 -190 -67c-58 0 -105.5 18.5 -142.5 55.5
s-55.5 82.833 -55.5 137.5c0 20 2.66699 40 8 60c19.333 70.667 61.333 131.667 126 183s132 77 202 77c66.667 0 118.334 -23.333 155.001 -70c8 17.333 13.333 37.333 16 60l136 4c76 0 144.333 -4 205 -12zM441.002 161.001c0 26.667 -14.332 40 -42.999 40
c-16.667 0 -32.334 -7.33301 -47.001 -22s-22 -30 -22 -46c0 -24.667 14 -37 42 -37c14.667 0 30 6.66699 46 20s24 28.333 24 45z" />
    <glyph glyph-name="oe" unicode="&#x153;" horiz-adv-x="742" 
d="M710 202c-48 -19.333 -84.332 -33.334 -108.999 -42.001c-1.33301 23.333 -2.33301 42.333 -3 57c9.33301 8.66699 26.666 17.334 51.999 26.001c19.333 6.66699 38.666 13 57.999 19c0.666992 -14 1.33398 -34 2.00098 -60zM776.001 404.999l-19.999 -53.0029l-22 -81
c-44 3.33301 -87 3.33301 -129 0c-2 -1.33301 -14 -43.666 -36 -126.999c39.333 -4.66699 82 -4.66699 128 0l-19 -73c-2 -15.333 -5 -32.666 -9 -51.999l-7 -28c-2 4 -6 6 -12 6l-14 -2c-46 -2.66699 -78 -4 -96 -4l-164 9l9 33l-3 5
c-42.667 -36.667 -94.334 -55 -155.001 -55c-50 0 -90.667 15.333 -122 46s-47 69.667 -47 117c0 18.667 2.66699 37.667 8 57c16 59.333 51.333 110.333 106 153s112 64 172 64c54.667 0 97 -19.667 127 -59c10 22.667 15 36.334 15 41.001c0 3.33301 -1 6 -3 8l119 4
c56 0 114 -3 174 -9zM373.002 135.996c0 26 -11 38.999 -33 38.999c-14 0 -26.667 -6.33301 -38 -19c-9.33301 -10 -15.333 -20.333 -18 -31c-0.666992 -3.33301 -1 -7 -1 -11c0 -21.333 10.667 -32 32 -32c12 0 24 4.33301 36 13c14.667 10.667 22 24.334 22 41.001z" />
    <glyph glyph-name="Scaron" unicode="&#x160;" horiz-adv-x="412" 
d="M452 328c-43.333 -27.333 -79.999 -63.334 -109.999 -108.001l-72 -114c-32 -43.333 -73.667 -79 -125 -107l-55 -28c-32 51.333 -56 108.333 -72 171c46 27.333 87.667 66 125 116l92 129c39.333 48 85.666 85 138.999 111c14 -19.333 28.333 -46.666 43 -81.999z
M520.001 616.999c-35.333 -24 -81.668 -50.6689 -139.001 -80.002c-24 32.667 -47.667 58.334 -71 77.001c9.33301 15.333 24 36.333 44 63c25.333 -15.333 44.666 -34.666 57.999 -57.999c17.333 6 43 23.667 77 53c6.66699 -4.66699 13.834 -13.5 21.501 -26.5
s10.834 -22.5 9.50098 -28.5z" />
    <glyph glyph-name="scaron" unicode="&#x161;" horiz-adv-x="347" 
d="M378 278c-44 -30.667 -82.334 -74 -115.001 -130s-72.667 -100.667 -120 -134l-28 -18c-10 -4.66699 -24 -12 -42 -22c-30.667 47.333 -51 96.333 -61 147c38.667 22.667 73.334 55 104.001 97l76 108c33.333 41.333 73.666 73.666 120.999 96.999
c10.667 -15.333 32.334 -63.666 65.001 -144.999zM449.999 532c-35.333 -24 -81.668 -50.6689 -139.001 -80.002c-24 32.667 -47.667 58.334 -71 77.001c9.33301 15.333 24 36.333 44 63c25.333 -15.333 44.666 -34.666 57.999 -57.999c17.333 6 43 23.667 77 53
c6.66699 -4.66699 13.834 -13.5 21.501 -26.5s10.834 -22.5 9.50098 -28.5z" />
    <glyph glyph-name="Ydieresis" unicode="&#x178;" horiz-adv-x="527" 
d="M621 437c-82 -125.333 -229.669 -291.334 -443.002 -498.001l-133 109c4 2 28 24.833 72 68.5s67 69.834 69 78.501c0.666992 2 -5.66602 19.667 -18.999 53c-25.333 63.333 -45.666 131 -60.999 203c19.333 14 81.333 39.667 186 77c6.66699 -42 24.667 -97.667 54 -167
c42.667 44.667 87.667 101 135 169c34 -15.333 80.667 -46.333 140 -93zM501.998 563.999c-27.333 -2.66699 -54.334 -2.66699 -81.001 0c10.667 32 18.334 57 23.001 75c14 0 40.333 1 79 3c-2 -21.333 -9 -47.333 -21 -78zM378.997 605.999
c-6 -22.667 -10.833 -35.333 -14.5 -38s-17.5 -4 -41.5 -4h-17.5h-21.5c7.33301 22 15 47 23 75h81z" />
    <glyph glyph-name="Zcaron" unicode="&#x17d;" horiz-adv-x="541" 
d="M643 474l-123 -133.001c-48 -54 -88.333 -103 -121 -147c22 -1.33301 54.333 -4 97 -8l-29 -106c-2.66699 -12 -11.334 -37.667 -26.001 -77c-27.333 -4 -50.666 -6 -69.999 -6h-207l-173 12c48.667 68 127.667 159.667 237 275c-6 0.666992 -33 3.33398 -81 8.00098
l52 194h159zM562 606.999c-35.333 -24 -81.668 -50.6689 -139.001 -80.002c-24 32.667 -47.667 58.334 -71 77.001c9.33301 15.333 24 36.333 44 63c25.333 -15.333 44.666 -34.666 57.999 -57.999c17.333 6 43 23.667 77 53c6.66699 -4.66699 13.834 -13.5 21.501 -26.5
s10.834 -22.5 9.50098 -28.5z" />
    <glyph glyph-name="zcaron" unicode="&#x17e;" horiz-adv-x="472" 
d="M546 407l-206.998 -242c17.333 -1.33301 43.666 -4 78.999 -8c-1.33301 -17.333 -7.33301 -42.333 -18 -75l-26 -79c-34.667 -4 -82 -6 -142 -6l-238 12c48 68.667 114 144.667 198 228c-5.33301 0 -13 0.833008 -23 2.5s-17.667 2.5 -23 2.5
c-8.66699 0 -16.334 -1.66699 -23.001 -5l46 171h303c-5.33301 0 17.667 -1.33301 69 -4zM492.002 522c-35.333 -24 -81.668 -50.6689 -139.001 -80.002c-24 32.667 -47.667 58.334 -71 77.001c9.33301 15.333 24 36.333 44 63
c25.333 -15.333 44.666 -34.666 57.999 -57.999c17.333 6 43 23.667 77 53c6.66699 -4.66699 13.834 -13.5 21.501 -26.5s10.834 -22.5 9.50098 -28.5z" />
    <glyph glyph-name="florin" unicode="&#x192;" horiz-adv-x="414" 
d="M452 328c-14.667 -10.667 -29 -21.667 -43 -33c-22 -16 -35.333 -29 -40 -39c16 -2.66699 35.333 -2.66699 58 0l-6 -22c-18.667 0 -41.334 -0.666992 -68.001 -2c-2.66699 -2 -9.66699 -12 -21 -30c-5.33301 -7.33301 -12.333 -19 -21 -35
c-17.333 -39.333 -51.666 -80 -102.999 -122c-44.667 -37.333 -84 -62 -118 -74c-32 51.333 -56 108.333 -72 171c13.333 8.66699 33.333 23.334 60 44.001c18.667 16 33.667 31 45 45c-12.667 2.66699 -27 2.66699 -43 0l6 22c14 0 31.667 0.333008 53 1l88 123
c40.667 50 89.667 90.333 147 121c20 -28.667 46 -85.334 78 -170.001z" />
    <glyph glyph-name="circumflex" unicode="&#x2c6;" horiz-adv-x="244" 
d="M432 600c-16.667 -29.333 -31.665 -51.332 -44.998 -65.999c-6 4 -17.667 15.333 -35 34c-14.667 16 -23.334 24 -26.001 24c-3.33301 0 -14.333 -6.66699 -33 -20s-32.667 -24.333 -42 -33c-6.66699 5.33301 -13.5 14.166 -20.5 26.499s-10.167 22.833 -9.5 31.5
c36.667 22.667 83.334 49 140.001 79c15.333 -20 26.666 -34.333 33.999 -43c13.333 -15.333 25.666 -26.333 36.999 -33z" />
    <glyph glyph-name="caron" unicode="&#x2c7;" horiz-adv-x="244" 
d="M436 616c-35.333 -24 -81.668 -50.6689 -139.001 -80.002c-24 32.667 -47.667 58.334 -71 77.001c9.33301 15.333 24 36.333 44 63c25.333 -15.333 44.666 -34.666 57.999 -57.999c17.333 6 43 23.667 77 53c6.66699 -4.66699 13.834 -13.5 21.501 -26.5
s10.834 -22.5 9.50098 -28.5z" />
    <glyph glyph-name="breve" unicode="&#x2d8;" horiz-adv-x="254" 
d="M449 620c-2.66699 -10 -19.5 -25.5 -50.5 -46.5s-49.833 -32.167 -56.5 -33.5l-20 -4c-16.667 0 -34 7.66699 -52 23s-32.333 35.333 -43 60c18.667 21.333 38.334 38.666 59.001 51.999c21.333 -35.333 40.333 -53 57 -53c19.333 0 48.666 19.333 87.999 58
c0.666992 -3.33301 4.33398 -13.666 11.001 -30.999c5.33301 -14.667 7.66602 -23 6.99902 -25z" />
    <glyph glyph-name="dotaccent" unicode="&#x2d9;" horiz-adv-x="128" 
d="M292 560c-28 -1.33301 -54.667 -0.333008 -80 3c9.33301 34 17.333 59 24 75c2 0 19.667 0.666992 53 2l25 1c-4 -27.333 -11.333 -54.333 -22 -81z" />
    <glyph glyph-name="ring" unicode="&#x2da;" horiz-adv-x="173" 
d="M353 598c-6 -20.667 -17.833 -36.5 -35.5 -47.5s-35.5 -16.5 -53.5 -16.5c-30.667 0 -46 14 -46 42c0 21.333 9.5 40.5 28.5 57.5s38.5 25.5 58.5 25.5c33.333 0 50 -15.333 50 -46c0 -4.66699 -0.666992 -9.66699 -2 -15zM318 599c4 14.667 -1.33301 22 -16 22
s-24 -7.66699 -28 -23c-4 -14 1 -21 15 -21c15.333 0 25 7.33301 29 22z" />
    <glyph glyph-name="ogonek" unicode="&#x2db;" horiz-adv-x="210" 
d="M214 -69c-12.667 2 -29 0.332031 -49 -5.00098c-28 -7.33301 -44.667 -20.666 -50 -39.999c-0.666992 -3.33301 -1 -6.33301 -1 -9c0 -17.333 13.333 -26 40 -26c10.667 0 17 1 19 3c-5.33301 -6 -10 -16.333 -14 -31c-5.33301 0 -13.833 -0.666992 -25.5 -2
s-18.5 -2 -20.5 -2c-20 0 -37.667 3.66699 -53 11c-20 10 -30 24.667 -30 44c0 6 0.666992 12 2 18c6 21.333 18.667 38 38 50c16 9.33301 33 14 51 14c8.66699 0 16 -1 22 -3c3.33301 5.33301 5 16 5 32c10.667 -2.66699 31.667 -2.66699 63 0c0 -13.333 1 -31.333 3 -54z
" />
    <glyph glyph-name="tilde" unicode="&#x2dc;" horiz-adv-x="239" 
d="M420 579c-8.66699 -32 -28.333 -47.999 -59 -47.999c-2.66699 0 -16.334 3.83301 -41.001 11.5s-38 11.5 -40 11.5c-12 0 -32.667 -8.66699 -62 -26c1.33301 7.33301 3.33301 34.333 6 81c26.667 10 49.667 15 69 15c2 0 13.167 -3 33.5 -9s31.833 -9 34.5 -9
c27.333 0 49.333 8 66 24c-1.33301 -4.66699 -2.66602 -13.834 -3.99902 -27.501s-2.33301 -21.5 -3 -23.5z" />
    <glyph glyph-name="hungarumlaut" unicode="&#x2dd;" horiz-adv-x="280" 
d="M499 699l-22.0029 -72.001c-9.33301 1.33301 -23.666 0 -42.999 -4c-21.333 -14 -52.666 -33 -93.999 -57h-13l2 9c20.667 18.667 44.334 43.334 71.001 74.001c3.33301 10.667 9.33301 26 18 46c7.33301 3.33301 21.333 5 42 5c8.66699 0 21.667 -0.333008 39 -1z
M384.997 698.999l-22.001 -72.001c-9.33301 0.666992 -23.333 -0.666016 -42 -3.99902c-23.333 -16.667 -56 -35.667 -98 -57h-10l3 12c18.667 16 42.334 39.667 71.001 71c3.33301 12 9 27.333 17 46c7.33301 3.33301 21.666 5 42.999 5
c8.66699 0 21.334 -0.333008 38.001 -1z" />
    <glyph glyph-name="summation" unicode="&#x3a3;" 
 />
    <glyph glyph-name="Omega" unicode="&#x3a9;" 
 />
    <glyph glyph-name="pi" unicode="&#x3c0;" 
 />
    <glyph glyph-name="endash" unicode="&#x2013;" horiz-adv-x="422" 
d="M410 193l-243.001 -0.000976562c-27.333 -1.33301 -60.666 -5.33301 -99.999 -12c-1.33301 -1.33301 6.66699 32.334 24 101.001c50 6 75.333 9 76 9h269z" />
    <glyph glyph-name="emdash" unicode="&#x2014;" horiz-adv-x="428" 
d="M412 178h-243l-102 -9l35 131h342z" />
    <glyph glyph-name="quoteleft" unicode="&#x2018;" horiz-adv-x="244" 
d="M309 495c-17.333 -40 -29.334 -71.334 -36.001 -94.001l-35 -132h-142l13 50c3.33301 6 7.33301 14.667 12 26c10 36.667 37 71.334 81 104.001c40.667 30.667 76.334 46 107.001 46z" />
    <glyph glyph-name="quoteright" unicode="&#x2019;" horiz-adv-x="230" 
d="M299 441c-3.33301 -5.33301 -7.33301 -13.999 -12 -25.999c-10.667 -36.667 -37 -70.334 -79 -101.001c-38.667 -29.333 -75 -45.333 -109 -48c16.667 38.667 29 72 37 100l34 126h142z" />
    <glyph glyph-name="quotesinglbase" unicode="&#x201a;" horiz-adv-x="238" 
d="M217 137l-23 -71c-10.667 -35.333 -38.167 -69.5 -82.5 -102.5s-82.5 -49.833 -114.5 -50.5c12 26 26 63.333 42 112l32 117l3 -3c10.667 0 27.167 0.666992 49.5 2s33.833 2 34.5 2c25.333 0 45 -2 59 -6z" />
    <glyph glyph-name="quotedblleft" unicode="&#x201c;" horiz-adv-x="428" 
d="M420 274c-34 -10 -82.333 -9.66895 -145 0.998047c0.666992 2.66699 2 9.33398 4 20.001s3.33301 17.334 4 20.001c26 98.667 91.667 159.667 197 183zM246 268.998l-147.001 -0.000976562c2.66699 10.667 6 23.334 10 38.001c28.667 109.333 95.334 174 200.001 194z
" />
    <glyph glyph-name="quotedblright" unicode="&#x201d;" horiz-adv-x="400" 
d="M467 438c-10 -38 -34.667 -75.333 -74 -112c-42.667 -39.333 -86 -60.333 -130 -63c25.333 58 41.333 100.333 48 127l28 102h142zM312 492c-4 -12 -9.33203 -29.667 -15.999 -53c-6.66699 -30.667 -28.167 -63.667 -64.5 -99s-72.833 -56.666 -109.5 -63.999
c-14 -2.66699 -19.333 -4.33398 -16 -5.00098h-13c14 31.333 28 69 42 113l31 114l4 -3c37.333 3.33301 82.333 4.33301 135 3c1.33301 -0.666992 3.66602 -2.66699 6.99902 -6z" />
    <glyph glyph-name="quotedblbase" unicode="&#x201e;" horiz-adv-x="407" 
d="M372 83c-10.667 -38.667 -35.333 -76 -74 -112c-42.667 -40 -86 -61.333 -130 -64c24.667 58.667 40.667 101 48 127l28 103h142zM217.001 137c-4.66699 -40.667 -24 -83 -58 -127c-39.333 -52 -83.333 -82 -132 -90l-7.5 -2.5c-3 -1 -5.83301 -1.5 -8.5 -1.5h-13
c14 32 27.667 68.333 41 109l32 117l3 -3c10.667 0 27.167 0.666992 49.5 2s33.833 2 34.5 2c25.333 0 45 -2 59 -6z" />
    <glyph glyph-name="dagger" unicode="&#x2020;" horiz-adv-x="394" 
d="M401 267c-14.667 -0.666992 -36.3311 -0.666016 -64.998 0.000976562l-48 -172l-30 -77h-82c-10.667 -0.666992 -30 1.33301 -58 6c-2.66699 14.667 -2 29.667 2 45l25 90l18 47l17 62c-24.667 -2.66699 -50 -2.33398 -76 0.999023
c1.33301 3.33301 2.66602 9.5 3.99902 18.5s2.33301 14.833 3 17.5c4.66699 18 18 53.333 40 106h59l29 78c6.66699 0 19.667 1 39 3s29.666 3 30.999 3h77l-14 -84h67c-4 -2.66699 -5.66699 -5 -5 -7c-1.33301 -8 -3 -18.667 -5 -32z" />
    <glyph glyph-name="daggerdbl" unicode="&#x2021;" horiz-adv-x="404" 
d="M362 121c-3.33301 -8 -7.66602 -19.333 -12.999 -34l2 -5h-64c-10 -20.667 -22 -51 -36 -91h-82c-1.33301 0 -9.5 1 -24.5 3s-26.167 3 -33.5 3c-1.33301 17.333 3 44.666 13 81.999c-16.667 2.66699 -37 3.66699 -61 3c5.33301 48.667 11 84 17 106
c0 2 1.83301 7.33301 5.5 16s5.83398 15.334 6.50098 20.001c25.333 2.66699 50.666 2.66699 75.999 0l12 44c-26.667 -3.33301 -52 -3 -76 1c1.33301 3.33301 2.66602 9.5 3.99902 18.5s2.33301 14.833 3 17.5c4.66699 18 18 53.333 40 106h59l29 78
c7.33301 0 20.5 1 39.5 3s29.167 3 30.5 3h77l-14 -84h67c-4 -2.66699 -5.66699 -5 -5 -7c-1.33301 -8 -3 -18.667 -5 -32l-27 -100c-14 -2 -37.333 -5 -70 -9l-8 -33l64 -9z" />
    <glyph glyph-name="bullet" unicode="&#x2022;" horiz-adv-x="297" 
d="M171 149c-25.333 0 -44.666 7.33301 -57.999 22s-20 32.667 -20 54c0 32.667 14 62.667 42 90s58.333 41 91 41c25.333 0 44.666 -7.33301 57.999 -22s20 -33 20 -55c0 -32.667 -14 -62.5 -42 -89.5s-58.333 -40.5 -91 -40.5z" />
    <glyph glyph-name="ellipsis" unicode="&#x2026;" horiz-adv-x="709" 
d="M645 3c-26.667 -6 -52.334 -8.99805 -77.001 -8.99805c-22.667 0 -46.667 2 -72 6c0.666992 33.333 4.33398 61.666 11.001 84.999c3.33301 12.667 11 33.667 23 63c36.667 4 70.334 4.66699 101.001 2c40 -2.66699 56.333 -4.33398 49 -5.00098
c-4.66699 -33.333 -9.33398 -57.333 -14.001 -72s-11.667 -38 -21 -70zM446 74.002c-6 -15.333 -13.668 -38.9971 -23.001 -70.9971c-26 -6 -51.333 -9 -76 -9c-22.667 0 -46.667 2 -72 6c0.666992 33.333 4 61.666 10 84.999c3.33301 12.667 11 33.667 23 63
c36.667 4 70.334 4.66699 101.001 2c40 -2.66699 56.333 -4.33398 49 -5.00098c-2.66699 -26.667 -6.66699 -50.334 -12 -71.001zM192.999 3.00488c-26.667 -6 -52.002 -8.99805 -76.002 -8.99805c-23.333 0 -47.666 2 -72.999 6
c0.666992 33.333 4.33398 61.666 11.001 84.999c3.33301 12.667 11 33.667 23 63c36.667 4 70.334 4.66699 101.001 2c40 -2.66699 56.333 -4.33398 49 -5.00098c-4.66699 -33.333 -9.33398 -57.333 -14.001 -72s-11.667 -38 -21 -70z" />
    <glyph glyph-name="perthousand" unicode="&#x2030;" horiz-adv-x="1134" 
d="M1146 143c-12 -44.667 -37.668 -82.167 -77.001 -112.5s-80.666 -45.5 -123.999 -45.5c-36 0 -65.5 10.833 -88.5 32.5s-34.5 49.5 -34.5 83.5c0 45.333 21 89.666 63 132.999c44 46 92 69 144 69c38 0 68.333 -12 91 -36c20.667 -22 31 -50 31 -84
c0 -13.333 -1.66699 -26.666 -5 -39.999zM792.999 143c-12 -44.667 -37.5 -82.167 -76.5 -112.5s-80.5 -45.5 -124.5 -45.5c-36 0 -65.333 10.833 -88 32.5s-34 49.5 -34 83.5c0 45.333 20.667 89.666 62 132.999c44 46 92 69 144 69c38 0 68 -11.5 90 -34.5
s33 -51.5 33 -85.5c0 -13.333 -2 -26.666 -6 -39.999zM777.999 521c-170 -163.333 -344.002 -340.001 -522.002 -530.001c-29.333 0 -53 0.333008 -71 1c-13.333 0.666992 -23.166 1.33398 -29.499 2.00098s-9.16602 1 -8.49902 1l128 136l338 346
c32.667 32.667 54 49 64 49c2 0 5.66699 -0.333008 11 -1h14zM430.997 366.999c-12 -44.667 -37.668 -82.001 -77.001 -112.001s-80.666 -45 -123.999 -45c-38 0 -68 11 -90 33s-33 49.667 -33 83c0 13.333 2 27 6 41c12 44.667 37.333 82.667 76 114s80.667 47 126 47
c37.333 0 67.333 -12 90 -36c20.667 -22.667 31 -51 31 -85c0 -13.333 -1.66699 -26.666 -5 -39.999zM1051 94.998c0 16.667 -8.66699 25 -26 25c-10.667 0 -20.667 -4.33301 -30 -13s-14 -17.667 -14 -27c0 -16.667 8.66699 -25 26 -25c8.66699 0 18.167 3.83301 28.5 11.5
s15.5 17.167 15.5 28.5zM697.996 94.998c0 16.667 -8.66699 25 -26 25c-9.33301 0 -18.166 -3.5 -26.499 -10.5s-13.5 -14.5 -15.5 -22.5c-2.66699 -8 -1.33398 -15.333 3.99902 -22s12.333 -10 21 -10c8 0 17.167 4 27.5 12s15.5 17.333 15.5 28zM334.996 319.998
c0 16 -8.66699 24 -26 24c-10 0 -19.667 -4.16699 -29 -12.5s-14 -17.5 -14 -27.5c0 -16 8.66699 -24 26 -24c8.66699 0 18 3.83301 28 11.5s15 17.167 15 28.5z" />
    <glyph glyph-name="guilsinglleft" unicode="&#x2039;" horiz-adv-x="312" 
d="M339 328c-47.333 -34.667 -91.001 -69.666 -131.001 -104.999l50 -129c-28 -14.667 -62 -30.334 -102 -47.001c-15.333 60.667 -39.333 116.334 -72 167.001c-0.666992 0 -1 2.66699 -1 8c2.66699 11.333 25 35.333 67 72c44.667 39.333 85.334 71.666 122.001 96.999
c28 -20.667 50.333 -41.667 67 -63z" />
    <glyph glyph-name="guilsinglright" unicode="&#x203a;" horiz-adv-x="306" 
d="M310 222l-58.001 -54.999c-35.333 -35.333 -71.666 -75.333 -108.999 -120c-32.667 18 -58.334 33.667 -77.001 47l119 129c-30.667 48 -55.667 82 -75 102c18 17.333 51.667 39.333 101 66c20.667 -21.333 34.834 -37.833 42.501 -49.5s18.167 -30.834 31.5 -57.501
c18.667 -35.333 27 -56 25 -62z" />
    <glyph glyph-name="trademark" unicode="&#x2122;" horiz-adv-x="503" 
d="M222 434c-8.66699 -0.666992 -21.333 -0.666016 -38 0.000976562l-27 -91l-18 -46h-47c0.666992 0 -13 1.33301 -41 4l37 128c-4.66699 1.33301 -19 3 -43 5l12 39c0.666992 3.33301 6.66699 16 18 38c34 2 57.667 3 71 3l99 -3l-3 -2
c-0.666992 -0.666992 -1 -2.66699 -1 -6c-1.33301 -6.66699 -2.33301 -11.334 -3 -14.001zM467.001 353.001c-2.66699 -11.333 -33.333 -35.668 -92 -73.001c-1.33301 16.667 -5 42 -11 76c-17.333 -21.333 -37.333 -40.333 -60 -57c-12 24.667 -19.333 44.334 -22 59.001
c-20.667 -22.667 -40.334 -47.334 -59.001 -74.001c-2.66699 2 -10.667 13.833 -24 35.5s-19 35.834 -17 42.501c1.33301 4.66699 18 25.334 50 62.001c28.667 32.667 48 53.667 58 63c18 18 39 36.667 63 56l11 -32l34 35c8.66699 -12.667 19.334 -32.667 32.001 -60
c4 -8.66699 11 -29.334 21 -62.001c12.667 -39.333 18 -63 16 -71z" />
    <glyph glyph-name="partialdiff" unicode="&#x2202;" 
 />
    <glyph glyph-name="Delta" unicode="&#x2206;" 
 />
    <glyph glyph-name="product" unicode="&#x220f;" 
 />
    <glyph glyph-name="fraction" unicode="&#x2215;" horiz-adv-x="265" 
d="M434 521l-157 -153.001l-88 -88c-59.333 -64.667 -151 -159.667 -275 -285c-4 -4.66699 -23 -7 -57 -7c-22 0 -40 1.33301 -54 4c236.667 254 409.667 431.667 519 533c34.667 0.666992 72 -0.666016 112 -3.99902z" />
    <glyph glyph-name="periodcentered" unicode="&#x2219;" horiz-adv-x="258" 
d="M266 331l-20.001 -64.998c-29.333 -6 -57.333 -9 -84 -9c-19.333 0 -42.666 2 -69.999 6c-2 25.333 1 52.666 9 81.999c0.666992 1.33301 3.5 9.66602 8.5 24.999s8.5 27 10.5 35c30 6 58.667 9 86 9c23.333 0 48.333 -2 75 -6c-4.66699 -33.333 -9.66699 -59 -15 -77z
" />
    <glyph glyph-name="radical" unicode="&#x221a;" 
 />
    <glyph glyph-name="infinity" unicode="&#x221e;" 
 />
    <glyph glyph-name="integral" unicode="&#x222b;" 
 />
    <glyph glyph-name="approxequal" unicode="&#x2248;" 
 />
    <glyph glyph-name="notequal" unicode="&#x2260;" 
 />
    <glyph glyph-name="lessequal" unicode="&#x2264;" 
 />
    <glyph glyph-name="greaterequal" unicode="&#x2265;" 
 />
    <glyph glyph-name="lozenge" unicode="&#x25ca;" 
 />
    <glyph glyph-name="apple" unicode="&#xf000;" 
 />
    <glyph glyph-name="fi" unicode="&#xf001;" horiz-adv-x="693" 
d="M744 462l-28 -69.999c-22.667 -57.333 -42.334 -118 -59.001 -182c-4.66699 -18 -13 -52.667 -25 -104c-3.33301 -30 -7.33301 -62.667 -12 -98l-3 -12c-99.333 -6 -165 -5.33301 -197 2c8.66699 76.667 22.667 152 42 226c26 95.333 57.333 182.666 94 261.999
c16.667 2.66699 42.334 4 77.001 4c39.333 0 78 -3.33301 116 -10zM418 214.001c-25.333 -9.33301 -63.001 -21.333 -113.001 -36c-1.33301 14 -0.666016 42.667 2.00098 86l110 45c2 -54 2.33301 -85.667 1 -95zM501.999 462.001
c-8 -20.667 -19.668 -52.668 -35.001 -96.001c-6 -19.333 -9 -29.666 -9 -30.999c0 -3.33301 0.666992 -6 2 -8l5 -4h-157l-49 -182l-22 -125l-5 -19h-132c-9.33301 0 -28.666 2 -57.999 6c8.66699 62 22.667 129 42 201c32.667 122.667 65 217.667 97 285l107 2l220 -10z
" />
    <glyph glyph-name="fl" unicode="&#xf002;" horiz-adv-x="772" 
d="M706 4c-32 -4.66699 -60.999 -7.00098 -86.999 -7.00098l-194 9c4 53.333 17.333 122.333 40 207c25.333 94.667 58 186.667 98 276h200c-2.66699 -3.33301 -14.667 -29 -36 -77c-22.667 -51.333 -36.334 -86 -41.001 -104l-26 -98h96l-39 -145
c-5.33301 -21.333 -9 -41.666 -11 -60.999zM418.001 212.999l-113.999 -38.001c-0.666992 22 0.333008 52 3 90c30 14.667 66.667 29.334 110 44.001c3.33301 -54 4.66602 -82.667 3.99902 -86zM510.002 476.998c-13.333 -23.333 -24.334 -48.667 -33.001 -76l-21 -78h-148
l-52 -194c-9.33301 -38 -16.666 -80 -21.999 -126h-192c8.66699 62.667 22.667 129.667 42 201c10 38 25.667 88.667 47 152c23.333 70 39.666 113.333 48.999 130c24.667 2.66699 62 4 112 4c78.667 0 151.334 -4.33301 218.001 -13z" />
    <glyph glyph-name=".null" 
 />
    <glyph glyph-name="nonmarkingreturn" horiz-adv-x="240" 
 />
    <glyph glyph-name="LF" 
 />
    <glyph glyph-name="DLE" 
 />
    <glyph glyph-name="DC1" 
 />
    <glyph glyph-name="DC2" 
 />
    <glyph glyph-name="DC3" 
 />
    <glyph glyph-name="DC4" 
 />
    <glyph glyph-name="RS" 
 />
    <glyph glyph-name="US" 
 />
    <glyph glyph-name="DEL" 
 />
    </font>
</defs>
</svg>
